<mxfile host="65bd71144e">
    <diagram id="V-kYW9GV2uXmBUqnUB78" name="PÃ¡gina-1">
        <mxGraphModel dx="1097" dy="779" grid="0" gridSize="10" guides="0" tooltips="1" connect="1" arrows="1" fold="1" page="1" pageScale="1" pageWidth="827" pageHeight="1169" math="0" shadow="0">
            <root>
                <mxCell id="0"/>
                <mxCell id="1" parent="0"/>
                <mxCell id="23" value="" style="shape=image;verticalLabelPosition=bottom;labelBackgroundColor=default;verticalAlign=top;aspect=fixed;imageAspect=0;image=data:image/png,iVBORw0KGgoAAAANSUhEUgAAAlsAAAL7CAYAAADK2UCfAAAAAXNSR0IArs4c6QAAAARnQU1BAACxjwv8YQUAAAAJcEhZcwAADsMAAA7DAcdvqGQAAABhaVRYdFNuaXBNZXRhZGF0YQAAAAAAeyJjbGlwUG9pbnRzIjpbeyJ4IjowLCJ5IjowfSx7IngiOjYwMywieSI6MH0seyJ4Ijo2MDMsInkiOjc2M30seyJ4IjowLCJ5Ijo3NjN9XX1hRu8gAADeY0lEQVR4XuzdC3wU1d0//o+XqhWyuWFIgJhAMCUCwcitwQBySWueoPmnKeUBa0UqWKk+9VbLT9Bffwr+qPXWamkFi7cKD9qYX1ryxDZcFCIUBKMBDEUCiQESAuSyIVatl/85M2d2ZzZ7TbJhN/m8fY3snLNz3cnOd7/nzMx5SUlJX4OIiIiIguJ89S8RERERBQGDLSIiIqIgYrBFREREFEQMtoiIiIiC6LyRI0eygzwRERFRkJwXHx/vMdiKjY3Fges3qDGic2/kX+fgzJkzaoyod5DftTyuiXovn8HW2bNn1RjRude/f3+elKjXYbBF1LuxzxYRERFREDHYIiIiIgoiBltEREREQcRgi4iIiCiIGGwRERERBRGDLSIiIqIgYrBFREREFEQMtoiIiIiCiMEWERERURAFPdj66hvfVK+sr4mIiIj6guA8ruf8C/DJ0EycHZOHqO3P4aJTh7Xizy8bjpbJixBR+Rd888gOEX19pZUT+aszj+vJiLgAa0b0U2PeLaxqR8XZL9UYUc/g43qIerduz2y1iQDrxA+fx5nv3A98+W9HoCXJ1+d9+QVOZ9+PevEe+V7ffoVNNZVY92M16smP16GyZpN4N4WkmXnIS1avXSWLupnqdRA0/dvj74kOzvj53oRZ92HFLePUmGfjblmB+2YlqDHqunFYsOI+XD9YjXarYM6biPqybg+27OPn4ct+sdpr297XtH/NIioKtX+/6DcA9rFztNd0Dv16E2oq12GhGrXotgD2ajz888fw2It/wI9cA67kH+EPL4q6nz8s3hUcZ/6tZ1Arz36J2w5+4nbYp7JZTV/6H5hRsCTg+vtWYIHvWLajwdfjvhULRNhERBQ6uj3YOv8zvdnxG021uOTY+9rrz+KuwL9jLtdeX/LxXq1OMt5Lvd17eOi2FdiKaVj6x984M1zJefjNH5eK0q1YcdtD4l3BIeOoL776WjvY97Z9geGXno+xtgssw8CLz8cXIs46K/9HRETUjbq9z9bJH/wWn8cmY8Dff4VvVr+jlTVN+y/g668Q89az2vgnKVlaM+NFp6ox8M93a2WeyWbEHDQ+ko55fxSjMtvy4CTY9Eocfj0ZM38uXmjlcSh9HZgze7heWb0ByTN+ob/W5jMHeo0dO4z5WZjf4zpv5zLtO1cgfe4a7fWvNtcgp3EHGjMn6dNpy4RzPqZ1WLi+EkvjSrEBczAnRStyLkOR8zPqRC02JM+ENrWb7TOvh2Se1lmn9t/r+zFqttoGtU7a+mQaW+WyLjLjZexHwZifZRrL/vWDlsUSwdWXb+L+u7dg+lOP4boLRKA1/yd4uUa9x4fO9NmS/ueqCHz59de4/oOzePnKfriy3wWqxunk518j94M2NeadbEa847K3sPSFPdq4bC7MN3ZX8z/w7ON/Rb14KcuvPVWEf47Ix7ejtUr8Y9Xj+Otx+VrNJ1OrEB9AkWN+Zpb3uMzbsUxUo2jpWmhTy+zO4svwz50x+LY2nb7MPRnGfMzrIJvOrsWpon/iW/nfhr6KzmVotPmpOqF557N4fKNe23H7TOshWaZ11hn7rwj5ahuMdZLrkw/Hn4Drunhb33ELsCLfMaW+nhXjAt8XjvGewz5bRL1b92e2Pm/HhS0n8M0jO7VxeQXiJ1dM1YavL7xYK7v0yA5c2HYK53Uis7VwZhz2P5KM5GQxvH4Yw2ebm7mGY87Ve/W65BXYcdkcVK6XDWQLsa5yDiCCCb3Oc6DleM8jIoAyykWg1eiYdgX2j1yKTb/WKjW2zDjs1eo24HDKHNTUjLWMm98LMT72PTUvsYy42c7+aDKQmXPZDqzQphWDDKwsTXym7RPTIvNO67QijHO/jjZM+i7wjFbnXKc1c9O1fQi7vkxz0Iefz9SWYdcCvmQ9cBMB2NKR+53rF0igJdW8jJ/Mvx9v4jr85o3fiP+LoCuAQKsrZL+tyy48T3v9ow/bMe5du2WQma+mLzp7wcY4pIuwYenSpWJ4Fv/At3GjqZ9WdOa1wHpZJ4aiJnx7sWrmEsHBHSP+iWe16cTgKdAyvafooLM8P1YEGca0RUD+fdfDudQUfAuvanXPij/Fby9egRvN43PN743Gt8UqvqrmVXTm27jD0R9NBCAiWGoqUssR2/fPEXdYmvjM21d0OAX5lmm/hX+uUtO6ruPwfKTv0+uc67QHa+U+bBahmVymJdAymNe3CNXR30aOXOSetVi66h8ifJJB3VJHQBjYviAi6n7dHmzh07OwVfxZy2RJ7WnZ+PqCb2iBVvsI1Qta1Nnee10LzAK1Zu5MZ6D0870iFDATgYEjAFiDeX87DNvIaSJYWYO6U0DcELc9k3S/Hovh1RucAccf52GeeL1wfY61XM13+NXOEM++c4OefRL/31vdcdyyXJdllFbbMGqmrP8V5mQCO34zTyxB+fkG7MAoTHNcHGDavj9uxX67DXEj5Iiadp1z27cesJuWazfN1806+etgI+y2OEfmL5zIflsXnn8e7hhyMZanfBOrR/TThhsHXoT+IgiTdWc+72wToggQHIFSPfYcFJGCSfPOV52Zkj2lIpBIQboMDupPoTn6Mnjuj52AceLz/cd6Z8CxZ6N8PQ454vM2l2vzFSHFOMfMqvGWCjbqK/6pBSCWcctym63L+LsIWIanawFhwqxrkXK4CGsdcWA9/vpWNVJGO6Mt8/bt2ScOrtgELXjRp33LtO2VIjAyLdc0347r5I15ffegUnwJxMR7C5cC2RdERN2v24Otb7TUod+hrWoM2m0eEn9/gzb031+iSoFLD27CN1qNr/dAyAxUDWq0wdnk55YMDtTLX8zQsz1yOj3bZbVwSBzsjdbQzdChXM73skT3ncoDdLjRWEOpEXWWjJsMEo2AypUeQDrZMOlBY7/UaE19tjj3e8e6zACI4DBdZtu0ZXSi47zqDC8zWj/73s+0DJfbTvNBYFyR+JdT/8aJz77G1REXaEOkCLQGqIxXUxf6a8lM04oVK7TB0eTnVj3qjdai43/F4zLbo03nrlP3YFwW3YR6t01aruVyvtG4rDtSNMfrxdydmk+5rIAMElVA1YGsUy81w/Md+2WF1jwYgwR3kY3LMgNx/JQ1uCUiCjXdHmzZKt4AvvJ9n6LzvvoCETIDFhDV/8hoRpRNYqrGrRFxsJ2qUxmdNZiXLqfp2Axo8BScdCi3zLdrhsfZ0HjMmFMcEi23uFiIxMvsaFRNR97pzX36flFDoM18/pDNi3LeHZo4fTD31/rxz1BcWYyf/fh+vPnlNCztgYDLuCIx+hvnYfXxzzD3QDt+sP8sVp/4HDGiTGpS7wmU1tQn+29pzVqyacrbyV8EKbHNOOVII63Vp+vQDGjwEJx0KHeZb1cMTkBM8ykYIVb0ZS4rkHAZos+I4E6NeiP7TRn7RR96vj8UEdG51v19tkz9sE7lPIi62/9iGU5dt1TVyvcG2Iz440QRjpiyP7LpT73UDUeOI2slArPZw3H4PdeAw9SkaLq1wZpN+2E3968SdetkvybXchFerPuuu/n6KSXHec+wX2/CnJTD2Ks1K8rmPRsm/cwUwPx6DiZhP7Z26F/mSk47HHM2d/0mDV5vBWEWUJPi1Xj4OXXVoQy0jD5aNTLgUlcpPhe8Wz9Ixv2zfpN6KVakXKJ1kM/ofwFWDv8mnrziUq3O33tsuRp8WbQp+yOb/qyZrejMHEfWKmHWjfg2/ok9rgGHqUnReW8u2UQWbelTNG6W3q/JtRzjctzP1y9iXt9xrCGun/tt8fnu0YIprZlteL6pj5aovzYF1fs69i9zJadF5o3dcN+qLtwKgogoBHR/ny3l6/MvwJdRHX+nfxk9BDivk4v94zw8szNONWOJQZydXfts7cedqiltDuJ2rlD9o2QHeTWNGGRHcvNVfBrZRKZ1WFfve3CUOOG4Ka9Ziri/uXQmD0T1fuBnal6z47DjEXW1ofCLGcnYcGoSlqr1rPluI1akm/pweSGbSeUFAfo6ysGPG8FKWr8wfZkdsn1anzIRxIk6relVBmLG/MX+2W9ad+/ew0O/vt99Z3jVaf7+Xwfv1g9S7adfQXbJ6n/BeZgR/Q08mHwJ/lfyN3Ft1IVa2WdfiVUR7+mMPS8UoSnzDtVUdiMuO+PaZ+sU0lVT2h2ZTSgyOn3Lq+eMJjatI7npKj5lzwuqw7p6X/5lekbJtXzFtadcrtoLRDP+cSpdrcsd+PaZImfnctnUueofiMlXyxH1l7211NSHywutmVReEGBMKwY/bgQrwjS9X5hcpttsnxdimW/JTvpiWbyZLBGFiuA8rsdw/vk4e+V12o1O8fXXsO1+Ff0P/r3PPqbHuPVDUJr3+ojO3vpBkq2FYyMuxDWRF2CKCLhkY/c7zf/GO61fYk/bF9p9tvqec3e7A3LirR+IeregZbY0Iqjqv/9/EL/uNsS/ugj9P3yTz0Okc0a2Ev7D/gWeqPsMeZVn8T0xyNeyjPcyJSKiYAlusKXIvlnn//tfaoyIiIio7whuMyJRN+tKMyJRqGIzIlHv1iOZLSIiIqK+isEWERERURAx2CIiIiIKIgZbREREREHEYIuIiIgoiBhsEREREQURgy0iIiKiIOJ9tiisyPtsERERhRMGW0RERERBxGZEIiIioiBisEVEREQURAy2iIiIiILonPTZGjjkclw+7ArEDRqCr7/+Go0njqHuyEc4ebxOvYOIiAL11Te+ifP//a8Or4ncGTz4Arx0y0W46L1Pseh/vsZBVU7d74L+/fv/Ur3u4NJLL8Xnn3+uxrruGxddjOnXF2Bm3mxcPjwVF1x4IfrbIvGt9AyMHp+JS/v114Kur776Sk1BRERenX8BPhl2DZqn3YmLGg/hgk+atOJ/xybjzHVLtIDrGy3HIH7ZauVEkhZo3XwBjpf8Gy1jLsaP4r/ER/8EPlb11L16LNi6UARW826/B4nDrsCurX/Hm6//CbvfKsP7O7dj/55/4Msv/o2MzCkYfuVofPjebgZcfsq96zHclHYaW99vUCWhKBd3PZaL2LJ/4CNVEqpiJt+Gn/1/8fh410doVWU96Vwv370YTF34M+QP/hj/OBQ6a9UZAe3fqxfg4bun4lIfx23GLQ/jnmsvRdk/unZ0d+azbxuThzPfuR/tadm40N4A23uvqxrx5S6Crk9Sp8F+VT4+SZuplV18UpxNvenhbabuMAKz77kV477Ygw9OfKHKvHMEWn/+HDcf+BrvngZunHkBvtz2Fd5W7wkOeS64CVee2YqKelXUR/RYn62s626ALToaL//2V/jHlr/hk/azGDAwQRs+OduGd8r+R6uLjInFNd+ZpaYi6llN20uxDxNx63/l4nJV1pPO9fLda8Lbf98HjL8Vd10fOmvVGaG5f3WdWTf7+Hn4sl+s9tq29zXtX7OIikLt3y/6DYB97BztNZ078sfxw7dkqDEX19+Fx/73Anio9eIg/rr9BJLz78ePxl+iyjyzBFqH1Ph/XoAj/+/f+D/qPf6SQbfH7el2MlB7DI85hrtESfjokWBLNh9mZE7GWyX/Dy1nTmPk1RNw+wPLcdN/3a8Nty9dgRFjrkbz6VPae64S75XTEPW8j1Hy2+exS5707vjuOTghn+vle1Bbgqf/uEsLuO74TjgHXCG6fzWBr9v5n+l9ar/RVItLjr2vvf4s7gr8O0af+pKP92p1kvFe6n0+ffdlPFZUg2QRsM31EXDdOvkiRNR8gTVGoHXLhbBv/Axz96s3mNw08yJULLsIzyWrgnNFBqKPTQW234/771fDf9txRY8Fel3XIx3kh37rSsyaOx/P/p9faEHUwl/8EhddbA2mPv3XJ3j+V/8HX3zxb9zxv3+Fv/zpj6g97CPlLX4DLPjfczGinz72adV6PPTCIBH9XoGP7n8aJXqx9mviiur78fRf9dcTWw+iKW0EBrUfxPr/sxYQ0fncNHWAnngb9z+tTymjdkc5PsXB/34Ia99To+7IFPx/joAxxQlxYMhl6uU27NoOTJ08SKvT17VCey3J9ZqqV4np3gYmq22Q014PFIn11N8ttzkf+Ku+Lvr2qHl5Wr72i2Ai7FVNGJE2qMOyHdR61lTFiPfJuejbXDHG2A/OfWBZrkYtw1TvdnvkO011UJ9BhbGPTJ+btv8jd2mfh9tpxEt9Pd5GzeVT1XFg/pzUOm0XX0KT1X4xTevd5fjuHbfiGryD55/9m8d+DOb1Mvarvk7WY0yUinWZCmMTnJ+NJ4Evv0f2S9J3ccf8a4Cdz+PZv7tfK+NzextTTceAaXs9HqeCuU6s09sfJ4vQo8hxnFn+Jk1/q9Z5nsDbpuPIPT/2r8sxaf0+cC4jsO3tpnVTTv7gt/g8NhkD/v4rfLP6Ha2sadp/AV9/hZi3ntXGP0nJ0poaLzpVjYF/vlsr86gnt1meQNX3YYd5O5bp5rhV32OStkw452NeB+9/A5L1b7LDd79l+7xNa6oz9l+H73pYzlWu+8S6zc7tcPf94s0l4+firv9IQu3/PI31736qSl1cdB6eW3Qx0k5/gc+HXYiIr77Gwf/3Of7bpSfKsG9/A7eO+Ar/bwsw44bzsHl5x8yXXO9809+ng+XzN38uvr573O1XNY1l/3dk+S4071/1mfhzXvO9fq6flfW46HjMOdejRzJbl6dcgZPHP9auPIwfcnmHQEu65JuXIm5wouPqxMRhw1WNJ3qglfzxehXpig1UNb5ckmYTJ34xjdyB8pfA5TVYb0TLxpe3LE9rEjtKlf+32Pn/6T1tmTFGfKD/rd6//QQGTTa/fxCmpnyk5nUQSMvHgqv1GvnhTRV/1vp23I+PUkxfAAHwvvxLMCJSX773P9hBSBZ/PPJ966uAEf/5mPbH5Bi/Xk9zl1SfwCWXZzhT3tdfgUEndmkHnfftycUVjrr1OIgRyJe/Tt6rQE37IFwhAkudmLf4cX5wm/w8PEyjXJI2Efirsd3ii9jyOYntFvu5SK3L260jMPcuf5LPH+Nvzz4vTnfX4NbFMxCnSs1ct9O8Xy3HmFgb+QXi+FUmPn+7ep9nvpd/TvZL7d/w7IvipJ55K+6Y6X6tNIOmaj9wjO2Nmfyw83j3eJyK/fSfyc468eU80XQC0v4mTX+r8kSoN2G4TOfuxN6BP/vXTByPkaZlnxB/z+b95XF7g7tu53/ejgtbTuCbR3Zq4/IKxE+umKoNX1+of89eemQHLmw7hfMCzmwFcZu1QAuO79f1Veovwuf3rvN7TD92HsNjxvdqh+88b38D8vwxFTEigNHqxOA8nhTT9pm/+4xpnX/Pruvo7ru+Amv/j9yHetDkuk8qXnhIW3/txC6mk4GJt+8XTz59dz2e/p9aJP2H2I/q762Dz7/GbS9+hqO2C2B/8zO8/8n5SL/hIvzyVtNwxyVaoLXhxS8xaMqF4ov4S2xWk/vD57nI7XePy369XwUx8tzSXoMKL4GWtq8i9X2nL1MEu5YmWf/Oazov341+xAXmY878N9MjwdZ551+gXgnnqX/dOP98fXVkwHXBN76hvfbo6gyx8w6iyHEAlmCtHwej9GnV284D/bgdn/azuQQ34kO/epCIxk1/EO+txS6x4/RgQJ48nW3Hd6kAoeKFp/WDQ/rrRyKmNRMRrhHIaYHFJbANliO5mJpmBBW6kqffdpnWP96XLyJw0zLkwelo+7YclCewS+3Hig9qxFQu48a+kvM37bfcFLG/quX8fW1PCZ429oMIQyo+Nn596a9jBqg10T5f4w/M0zS6T6uKTNv9Ng5agjax3X91/iop2XYQnw66wvLH4dOFphO+ScXpJiByoGnfOVmOMS0Qfdv5q18cS2uN1/7wsPxzvV/Uudw9l+3ddeISJI/R95Sn4zTjlomOgF0jpiuqMrZJ/U2KMsc6y4A/Uh6BJ2B3/D11gsf9ayZOlk9bl23hcXuDvG6fnoWt4s9aJkuSHeW/vuAbWqDVPkLvFC/rZMd5GZgFJnjbrH1fmL5fK15YK177+t6VTN9j2rHjOh6DgaYgw+PfwPVTxU8T8/lD/xuA+Qekafss331q2rcd2y6/z83L9fRdHxhv3y8+XXARvJ5Bz36Nm1d/hu9p++ZL7P7TZ5j4uHN4dueXwBfnYcK8i5HW8Dke+PNXKNcm9I/Pc5Hb754KnGyF8xxg1nrS8f6O1DnHNE/tsxZnkAzTZ+LXeU3jaf38OT6tx5z2N6N9hhk9E2ydOnEMlyUM0V6faah3e6XhV19+idMn9csT4gYNFtMc1157NNiGS7x+AH4SO+shGQVrgYc5Qv0UdpdVONFqBAPiJGdEtmJwfOGIqZ1BmLfslH5QOTXhpHFgdom/y5d/DOKXlLEN/jQfdVCCj0zB5xWDTuAjx37wvj3mQM+cOpcHvfFllzEmWfzAFwGEXuVxmo5c962L906KtfOH3pQz9cJdeP63JWhUpRZ/fRrrP07GXLleXjq2ZgyIwaetLicqn/xYvtDj+0U2I/54Ki5873k8XeJprTqSfztOno9TX/tJy2QY08pmGu2LTGYNZFO1Xm78+PHOv/1rIbMx5mV74dze4K7bN1rq0O/QVjUGRFT+BYm/v0Eb+u93nBJw6cFN+EZrJy7/Cso2Z2BgZMfvV523792ucvkbcD1/yL+BDj+8Fde/j34j9L97bZDNg54CKh9/d974+f1ipjUj3nAFGv/6GF7uwjnllc2f48mD52FAJwItnf/nIvO+LXl6PWoun6tNZ8ky+gw6Xc85cr934UeOmeWzD/D4lMkc9bJHgq3G+uNa06HsGN9+tg2bi1/H5586v3zl67KiDfhX+1mMGvdtrV/XyRN+3OC0s1G/K3FQa0GHJfXY8YMaFHkJmk57CkvkwSXblY0gLJDslPXXGK4eKEoC1ZXld46M+GNSRHiqZW4+ckb7XrZHBgdaPywV6K13ZC4E+SuhVf4aEQHX5UDNB/q+9jpNB96+yAW5Lu12H/vGebL7g/iF6q3PjBG0al+K5iYWF3oGxl/+Lb/H94sRaL37B/EDw9te6cj5t+P9OHXdT3I6J/GL0zGdGhw/FIwfQPIk72yydM//z9dBBh1X203NFN6PIOt3RfDWzVbxhvylqsY8O++rLxAhM2CBCOo2ezoRBvq9GwiXvwHX84df3w3KCWfznjE4f3R3H3+/XyRHoPWXx7DWU3+tALyy6XOs+eRCPLPsIryUqgr9EuC5yLLfZaAup9GDLi1Ql5mxfuYslTsu5xxf33eBsKxf54/PHgm2TjecwJGDBzDt+u9pt3aQ99X6/YqleOUZEX3/5lfa6w8r3kVkdCym/sf/h8Mf7sOZkz7uG6V9AOY+KrlYoL2WKWxTWk98YUz19zznaFLUm2Qs7cxXL8BES/bGhfxAzNG1DEDUS+9khugSjJji/EPKneLsWKj/2nIeaBm35MPZydKk08vvApkij7wCd6XEmJoNvW+PPDCd2QsZVFmzMSXVTUieMhXJrc7mJF/TXJI21fE5afvH0fwomdclAwuuH2HJmHXUiROx4C3lr6WpB011/sIXx9ICjxkO/5ffo/sl0EBr0ETnCVb7G1R/O16OU30/mabT/ubUa+1v0rVvhTu+mrA69/nK7KQ5EyKbwSw8ba9F96+b+QrDUzkPou72v1iGU9ctVbXyvYE1I3b7NsvgTfsx2/H7NeOWBeJ1J753ffD4N9Dh/KF/T3n/blDktOa/5y6QHaotGRwPjO8XT7oWaJ2HS2znISfKOvz0Py7CPcO/woa/fIWhP/gG/rd6t08+z0X+fPfoGUGjJeltrZ+VS9Aujo27tH2nzjnm7watqdd7Py/PPK1fV47PClyoXgWV7INV+tqfMG/x3bjxp/fi74XrtYDqdIMzrT18ZDq++725OGtvwd/+/Koq9Ub+coKIoGXKca5WIq94kNa+NxWPyRT2ZFn4ttZJ7Qqtxg35BeBIj8tfzg+JOQviF4V2leJjj2GqVme9eqSD99aiSF7dYLz/xAkxhX9k6nTg/5bboZa0XfwSGGSssTzQJmLuf4rt+U+xhlWy38FEVWfSheV3njz48rVOy2+bDmpv2yP7b13h+Mw+Favp8sUgvsia5HTbn1YFvqf5tMou6sX+0cbk52RuFhWfaesVYlq9VvtFauqn4Spm5g2Y6OfJTsssOZrunMt1OSVpn81DkFfEqGNSO860mg4CWX7P7ZcYzLh+YmAZrRM14m9LP2b17VV/V96OU7mfBou/R3Wsa1cjVn0K42iXv/IHiZOTnFb/ixeTa1c5yV/SzqYK7aotD19+gexfs4oXipBhPqbFelt42l7xtRzsdZO+Pv8CfBmVoMacvoweIjvNOvp0BaLbt9kUnMjP0vL9KjuGuyvXjlsv37s+eP4b6Hj+8OdqP52Y9r8Hmv6eBZcr1jyRrQET/1Pfp3K7LGQ/o6vn6tsujuu3B3T8fnFvFPJndjbQ+lr+CeI/Zl0Ey93NLzkfF539t9ZBfui8i4GDn3vsIH9JmnMfSvJvsqjKw9+4xtN3jwhsxPHmSCaYvpPkcSEvZnN8N0jaPlefpv5hOr8b/Pw83PP83diV47NHn40omwen/kee9miezz79l3bPrQsuuBC2qGhcdMklqNz1DraV/gX//nf3PSIoLIlo2Xq7h9AlAw63l/52mvyitt66wxv9UltPX5JGOtv7JcO90bncL47mTRE0dJXcDuO2LeTD+efj7JXXaTc6lY/mse1+Ff0P/h3oo0/j8P43QN7I+2vdM+JrHP3qAgxo7Gy/rXAUvO/GHmlGNPz788+w6f+9hvW/fxrvvr0ZrU1ncKaxAbveKhNlT2HzX/7MQMtjWjUUyatAmhxXdXQHeUVajPlKPuq7PDZNkVsiqOq//38Qv+42xL+6CP0/fLPPBlrUNbK/1is1XekgT656NNgyNByrxbvbNqPkv1/C/2x4GXu2bxFlgSbOew/5C0ymLPVhLka0vh3yv8b0dZ6qNfd1S2Aks3kyBXx5jeVybOpD1DHg+FuYHIOD/91Nx1cfIvtmyYdPE3XFkxs/x5Q3GGh1lx5tRiQiIiLqa85JZouIiIior2CwRURERBREPpsR5eW+553n5Rk7fUxMTAyamiz3EiYiIiLyyGew1dioPyyCAZcuLi7OsU+IiIiIfPEZbJ05c4aBlsmgQYM63tyPiIiIyAOfwVZLS4saIykxMRF1dX48t5GIiIhI8Bls2e12NUZSUlISamtr1RgRERGRdz6Drba2NjVGUnJyMmpqatQYERERkXc+gy3e1NRq6NChOHr0qBoLNStx0+Y5SNZe27Fn5RiUlmkjwZf9Ku5cMglR2shhbJyR3aOPG/rqphp8nqJGWnbg4qfnwdrTMBFP3JOFgRUl+OHWLmRrR2ehaGIznnr+ALaJ0SnTcnF3hk2vqy1HfqH/TczatDGVAU1DYU4eP9mR2LuuBMsbVJliOYarN+CSV36hRogo3IXdfbYSJi1A3hw15GQiQpX3Jhmrj+LO5QvVWCCW4JUZQ/HIjA0IOPe2uAwPbi5DhhrVuCvzpOxGPCOXvXIHzlUvvwt2rcAlv0zGJR0Cre5iw7KJiTiySw+0pG1bS5D/5Ho8VcHm9lAxv2Au/jRNBcBh5PxXxLErjt+Ld/FYIuptwirYihg5GxMiq7Blw1oUi2F3axqmT0pVtUS+nTzdhRNZfCJGoBLF+9Q4Uae04phLVouIercwakZMxYQ5WUC5CLKOqyJbJqbnRKFqQynqVVGwdUszoswYFQxXI0DLzkfxzLI1iF/+ARZmuvlFXr0BjyxaotdfuR9rvncjjO9qd2V6c2IOTrtpRrQuw9Tcp60TrM1/5jKtmTAO5TP2YpTRVNm6w2W5guN9rs2IC5HzxgMYF6lG3TU1qqZIqP0RCNkE8+XpFfhGaWDTBUJmTGY2uW+G9NgkqDUbJaoR4EjZetyrgjVjmmJkIS9JLzPXa5m0W3Mx1nFI1KH4yXK8qMZ88za93qw6THst2CstTaOLUIOTGemiXkwjjqE8uQ1GM6ncptRaPNWU7mhCbXdpnpX7ytgm2aTtbDaTy03CvnXNmDkvHf20aueyNZZ9Zp7WWLft2BST22GfafvTaNI1C6h51/N+8f15eJvWf1/nVOKzAaVsRiTqRcKsGbENLeb++vYzOIv+iHDz/Rq6RCBUEIc9K2Vznz4YgUXDsjHa+MZqPQAz6mWgpdW/vR8tkaOQka2NCguRcaUNLR++ZQ14PBHB08LMRhHk6PNdszMOs954FfGq2rfhmKUFcXL6DaiJnITsxarKh/jld2DcaRE0GtvUIRgLcfEjMTOpDpsC6u8lTr4iKJHNjNpQVodh2VmYr2o1SVlaAOeufsq0yRjbLAIFY/rOBFpup5d1ev81vbwEeyECpwJnUNgvIxnNIsjZa09Enuyjtq4S7UlJznUX660Fl3J6UYeMyVimDiQZ9ORFi0BDLfcp8UGPnWfebjHPedHYpNbpiC0deaNVldjPf9L6NOnT5pe1ukwr1y3Xsc9k8+2wiSMxRZQbTbrFtXrwp00vhwADLed+EYMpWPL1ecwv8DwtEfVtYRRsHUJdXQTSRjmbDRMmZSFBvQ4vNgyf2ok+WWU3orzaNG32tRgeeRjlfmaBMq4ajppCZ5DTsKxUBEzm4M23mkIjW7YE+0VQGDUogO1IGeu9/5fq9xVoVqsnTElLRr/a2gCCHakO95pP9PtqcQSRGGKObmvLnRkhrT4Ro43AQzIHOIEYnY6xtjoUuws0VJ0zcLRj+UaXYKq20pFNMvdRc5BZG2PeDXU4aLch+jI5IgKpDJtLv7btWtDm3C6ZrTIClTq52Rg4QP/FJPczKrY7O4/vq3SZVjDts21VNWi3RTuzSV0wZVo6hontWu0toPbxefRLSdQCPyIis7DKbNXvKEd9Ypajg3yi+NKtx1m0BZJsOOeW4JWVO4DMB/Dg5qP+d0BXKt4/jKgrr9WyUfFTRwE7X/MzQ7QQ8QOA5AK5TGMwrlz012HsX6VeChWL/A+MZNZuY7XMjOnL7twFAOeKDCCAve/4myFxks1pRfcYg6mJya1WNJuOZZmpKa4Vy1bTB9Lpe8qASBHTNIvgzQNvdZ1kBEwymGo+pV4GaFiMTctcOfeZudkuuOSy5QfgKRvl6/N4sVBlCFX9E+YAkYj6tDBrRjyE3apzvNZBvi0W/e0tItwKM8aVe0ZTXiAB16q9KhslmxBF+PN2YFmgmkKjGc8YVKbqo0b3VxG2NnZbfzgZnOnL3IAWEWyGTcA1OgnD7DXY5ldbrZPWnJYk+/U4m528BziRiLZZA5UXC53TnhRBiL8B17bTreqVB67ZoMui9f5TXeC8+MDIchnkdqmXfrA0AarB2Y8teI40+f7V5v3zsGP586p+XSUGZjPgIiJdmAVbJlrn+CE49s5OhPNtVxtOdHyodX2j3ZG96mgJynYC426/A8NPlwZwH601qPjQjuQCD4FdWZ0ItoZjlKMP1kLkzBzuf3+wgFTDbSwgO8ifo6yXkYHqeHK0dbjdQ0BMGSTZp8dbZktvxvIU1FmzXg6yM7nMpJj6W2lkk6QtHYvcBWequXKmo07fxvaKygCbSXVaXyZbHfZpAZHeLGj0o5KM5jl/ruJ88VAd+pn6f3WGDJq8Nud52Gdak2RSlp8BkofPw9Bgx0n1kogorG5qKm/9MH2UcWeteuzuwasQDV2+GtHlSkT5a7jjzUddrtxTVyM6qKv2WgqH4hVTs17HeUvW+Xe44tF8RaGar35jUsG8XI9XGercX0lpXHHoeiWi4LpN0jm8GtG4es56NaAgO2xrnbnddU53vTpNcVz9Zr06TQYzJ1XHc9knqcPVc16vfBPcXVVnXLnnrs5l+V6vRjRNr62XdmVlq7YO0bvEPjll2g+WqwUl16vynPtT57rcdMc+kOR7LVd5epm/c93Utrr9fFz2neu+8bbPtPmpqyQlx2fi6/Nw3dcdr9D0F69GJOp9eAf5AIXEHeR9BD59UbBu/dAhECA9WDHdRZ+6F4Mtot4nfJsR+6yFyLldZn/87RhPXSH76DDQIiKirmCwFTZkU5y8ku8B7X5VoXh7hHPty4lL8ekva/DpXevgMV1LFKJkdlYev59NdG2XJqJwx2bEAIX2g6iJiIgo1DCzRURERBREDLYCxKwWERERBYLBFhEREVEQMdgiIiIiCiIGW0RERERBxGCrE6aP+DPK8ktRNvNhTFdlFjPaUbmhHeH0qGUiIiIKjpC89YPxWJ768rXYfVwVKqHwyB7DbRNKcZ39MeQf3KpKnH61qhZzEI/kxRerEiIiIuqLQiyzFYvUnAUYj2PuA6jBOSLQOisCrLUoFsPuugRMyMmEEXr1tOeOVaO/LUWNWf1i8RDsiG3ApttUAREREfVJIRVsRYycjqjKtdhy4IwqMROBWHoC2vbvdgRi9fur0GYbgoSQvOHyBZi3JQrDp7M5kYiIqC8LqWCr7cDrHZoNnWIRZWvDsTojEEvFhJw0RIj/os5VasuX5y7B4chPMG2GGiciIqI+Jww7yOtNjXlzsgDZp6sO6B8Vq+p6WFsTzg6+Cp5bCi9EY+sniBuuRomIiKjPCbNgKwJpOXlaU6PWZ+t4LCIigbMt7pode0DbQ8jf1ITr5JWJE25VhWYXQCbi4hK+VONERETU14RRsHUGLXYR3+wvNjU16k2LLW1qtKcNehZlE4FninKQvft5VWj2JRJjgcb6C9Q4ERER9TVhFWzVf9yGiFHTkao6xEeMHIME+zHUiyDsnLF/jC3qZUdfIC7yUjQeVqNERETU54TWfbYG5yAvK0GNOJnvt2W5z5a9CltKd+JcJba0zNaQ9z1ktYTbWlEz/UKsmNMPa1QRERER9S0heVPTsOE12PoS6zYcQ9yWJMx8ThURERFRnxOGVyOGjtuGpOCsvVqNWf1q1TFMOhPPQIuIiKiPY7DVCcazEb8/uBpvunlUj3w2Yk7sAKzgo3qIiIj6PDYjEhEREQURM1tEREREQcRgi4iIiCiIGGwRERERBRGDLSIiIqIgYrBFREREFEQMtshPtyL5wVJM1IY/Y+AgVRzubr4bY57/ES5So9SDZrSj8s1a1Lx5CutmqDIiol4oJIMt+UievDkLMGGwKnCRMGmBqJ/teEYimVx2D56/7WHcqEa7z/OoeSQHux4pxElVEjLOdcAkl//ab9TwCAZMUeW92ZQf4YrX7kZ/NRq4L7Fu0WngH0OQfN1lmLdZFRMR9UIhFmzFIjVnAcbjGOpViVUqJoggLLG16tw9D5HI5KL7H8GY3Bgcf/Zn+OAHcngFmMVMmW/6Q9r3b79AjRMR9V4hdVNTmdFKa3kdu4/LoCoLMD2AWkqYNBsR+1/HIWRies4QHCsVr+2qskdl4v55P8FV6nnYYkUwr+S/9ddpD2PdlCTUbLsZD1TJAvVefIDfrXsS78j6YR/idy1T8dNRl2qTfLL/D7j1nZ3aa+A/8ehtOUhWY2hT02kj+ryiKm7GgWEvIXeILPsE779xOx475TKdg1GvRn25+llMzE1RI8DZ3Y/hwN/Md8mXzYnX4V9//D5OnlBFysXf/TOumtBPjbWjxvKeaRh45/1IjlKjqEbVI3fA+fHJ+RZgoBpDy7t4/5mH8Jka9UpmliafQdWtL+NzVWT1HQx+LRcD1BhqSvDB/X/XX6tpqw9dgZRxeqr0kz2/w0ePHdJeSzKgSlN10umSn+H4S/KVPl84xjvyPu1IfLYnBoNF/Sd7StCcmovBNrsI3B7E6W2pGPD8TcDL23HxHca616D6B0/B8Rcps0t3jIV+FAmm7ZLLTcIrqB/wU6Sog8K5bEnO/6dieWrUvE/UurU+ewYJxvzte9X+ddmXDsZ6q1GfPsOmN+1o/DWzWkTU+4VUZqvtgAy01Igb9TvOVXBldWOuCJ5aRYD13M1i+APej8zB89dk6pVVD+F3+z9B8hS9Ke+aa37kDLT0dwBDcvDTqLf16d/4ABj1I9x/mayQwVQO4kTw5Zg3xuCnuf+pTWZInvISprXo7yk5dqkIcGT9f+MBNb9PUIsSbXo5BBpoxYsgSTYX6oM10PJi0MNIwO8c072/W6xnwcMwHlh08Xd/iuSmQkf9LkugBdhuLEA/Edg56v0NtPzQ/zEROGhZJzmU4HSyCGpuVpWSbSxSBmzX65/dC4y7ydkUKAKapHFNIsgxpjcFLDePFEFHDVo9BFoykEszT1tSgwG55mbGZAyWyxXll47LxcXbf4bqGhuiv52q6m0YfMdkfKayZtU1yUh57DuqTgQ9IhD6RARQ+nrp23XF/ca0EPP8KRJO/06rr9pjx4DJzoxb/8dEoNUkAixt2t/heIx1WrluKXfEot6Yt9hHl2n77O84LsvEfvpEC/6M5QcSaBER9S0h2WcrtP0nRg4RwYyRycJOPFZRi0uTMnGNKnnnndtFEJSEadfcg9xRwPtlpkBLktkqY/pTO3Go7VJEyVRBWg6uiqjFVkeWS8y7TARPQ6609sE6VurIhL16pBaIHORYdudNw8BrUnB29+86ZKz8cuIh1JgCs8/2fYizUTGOYEsz7CoRPnjWP3Wa9f3d5Oz9pmyQCBZaa0QgMtAUWMisjZHV2fYPNNvNAY+UjEhzcOaXVBHcJGsZK8eyX3rKJZiy4/hGtVyxDqfcBG2nS5xBzNkDYsVj4rWA6aL7J2OAZRoRBMmgLfXbzibMmhJHhu7zf3yET2yxqu47iEwWgZIjk3UIp7e7TKtlqoz95mafddWMLxAnllbHrBYR9QEMtgJ12SBxkkhC7m0vYZ0xTElSlU6vlpSicdQYxO1/2a/MUlyMyoy1tUCc17yqOWIEekLVQ5hnzpp1Wgq+GQW0n/Izk9WBbCY0rlYUw4/HWzpPf/a376PqSArSVP3I705TNTr7q4+J7R6Pq1R98tWqojtYOrD/xtGs5t4hfNqkXkrbXsZHWkZKTR9gR/xPTjqbI7uFI2ASmho8NJv6MCUel8rMlWmfjMn1ulO6kWw+rEXNIuCZ6yLxC1VKRNSbMdjqFHMznRosAY/eHIhtMuD6CR5NU8VeNDapbFZElLXf1YAoZ5+coKrGv1rUy06w3Xi/WO938b7RDPjHd03ZJJ39VVX3SCHaJ9zvEnBtxclnnNP2y+2mgEv2axKBhOyvpDd3yeY4VedWKi6JcQmSXnrKOW3TWKQZAdfRM/jER9bLmg3S590l9jPOAEtluQwXDQxk5uYmQDV47PPWnS7GzOuSkLwauPPNVvxKlRIR9WYMtgKlNfslIdelH5WZ0U+rpOq/8cC2Wkf/LXe090bU4oDsTF/1oTgFyuZHleWSQVtGEj7ZX4pXVYlPp06gUcxjpB8BntVWtBxqx8DcZ7029XnV9LHqZzUNAwusmS0rH4HdiY/Rrl52Dzs+O6pe3ny398zWzbKTuud+WJ+fNvU02/Yy6kXgNiDXfAuEVAx4TAZjh2A/ZNf6Yjnq1LzrTZ3v/fcdDBZB4yeH/qEFRHqzoNGPSvoOLhtnw+ntfgRMWlOpuf9XJ2xr8BloerX5QnGcfo5E3l+LiPqAkLoaEYNzkJeVoEac6tVVifJqxemjjEsADW2o6vGrEtUVhqZVMa4ovOaa3+Onsp+W4wpA470yG/YQXlVXKzqpcjXW4WpE85WOal7yakT9SkcPLMsI7GpE6xWFpqsRXa5S1JmuOBz0MEaamg5P7n4X/SbEoE7rCO96JaJwpBC7Xn1ejbhciSh0vArSC9lM6NoM5rh6TnYGNzUdivLjTWMRfVpdcdhhWusVf65XE7rWS5b5a32dnP2srNOb6+RVfbLzuxgf6rya8iIxL9mp/aPHRBBnvlpQcL1K0vVqRHO9tlzZ+d7ol6W9V3Z4N9bd5WpEwTm9ad3Udsht1NfLtHzLvuPViEREnoRWsNUXyEAoo8V6dSJRB3owJK9Q9HRbifDGYIuI+g42IxLROXAhGls/QdxwNUpE1Isx2CKic+ACzFs9AHH5fDYiEfV+bEYkIiIiCiJmtoiIiIiCiMFWgPLz89UrIiIiIt8YbBEREREFEYMtIiIioiBisEVEREQURAy2wkzG6qN4cLM+3Ll8oSrtI0ZnoeieXCyLV+OBiB+JP90zF0UFiaogXCTiCbnet47EFFXing3Lbp2LJ0ar0VB3Lj+PsD0WOsnYXm3IwnxVbOXvcRYE/nwexnvOxfr1IlOm5arjwMf+7gJ9GZ6Os74rJIMt+VievDkLMGGwKnCIRWrOAq1OGyaZH/LbN1QsGopHZgzFxmpV0Oepk4R56CsnUSJ/NBzAD59cj/x1ld38zNEeIgOteek4WSa24fkD8PuJUCFN/3HU6R+PnbRtawnyxbHwVEWPPt+OhBALtvRgajyOoV6VmEWMnI4hHxejeMNaMZSjPjEL00fGqlrqG1pxrEG9NDkiv4jlCeXJchxJyuqY4TFOOIV1qiBc1OFeud695iSjnMvPI2yPhWA6h8eZr89D1d+7T433BvGJGIFKFFcAI9I6/ej/0GVvxhH1knQhdVNTmdFKa3kdu4+nYsKcLEA9gNqThEkLMAHlKN5hejhukMlbPxQVFamxAGW/ijuXxKF8RjbE35jT4jI8OLMRa753IxqwEDlvPIBxkaquegMeWbREjTjJ5sSsxkfxzLI1qsTgMj0OY6NpeXK6WY7nSduxZ+UYlJaJl3IdrmrEngGTxLSivHA/hhdMQlTrDrVe6j0FxvNVTNOeUzKzJY4VEWwZX8bzC+ZiZlMJfrhV//Umx/PUc7nbK5zlDrJ5MtvIhtmxd10JlquATqbEF2E7NsXkOuYhAzttWdp0QLEI8F7UqzqWdXbegqy/O0N9EdeWuzkZ6ds+TI1JHqcXzHW+uczb7fLdkdMlobkiEmPFstsrynEwJQtjbc5t9/l5eOFrnxmf/WpMdmy7a737Zftebz0bkSvKtAlc9oleF71rPfalGsuwft7WY6EbPw8539RaPNWU7thmt/tVyxBFY5P5eBV8H2fejyVrncs2Sy7bbV43X8eC5+XK/T0Z2FiJ6HnGfqmz/i365PJ5ukxvXjfrdnV92dp2xVQi/x0b/jQLWO0Icv2Yt8r09VOjOvUeua8nNuMpx/zkcZOOZpfPxLF8X98p5uPBcfzUYrTxHnulaVn+uBmPF96AoTV/QcG9vfKhrx6FVGar7YAMtNRIb1RWhxbEIV6cjD3JWC0CpdMiwJohmwsfFcHPnAD6ZqlAyzG9HJyBVvzyDzBrgAieVN2ancC4JWXIUPVImYQBm2QTpQ3jCmRQuAE1kaOQIddXBoqibM9KNd/CRuu0ISMRo5PsOFjl/NJ+sVD8aha/jItrVYGZ/ALJjhRfpPp78staMVZ8yZn7G/TLyNVO4Eb6fdhE1W9kX6349SaWZ8qiTRkgotzaWv2LsSvzFryn/OWXchYGihOUNu8nS7DX/DbxpXt3Rqv4AjaWXYdh2f43WcwvSMI+Y1rxJe42W+hRIsbKL3KxzH4ZWVoAUlxrc/yC9/p5+MG8z/Tt6rhPtROJqHfdp96X7X295xeIE3OzOPlo+0Ts7+gs/GmaMxCQhmXrwZ6+DBvGXmMEGeIkJgIifVr36+2Nz89DjBvbLJsLkTHZ78/aV9OSHvCYjiUxOIJEcYznieDXKH9KfNmMnWXqV6UFWqa/ATGYAyqvn4fPY1jsXxF0NGvzlsd/Ima6fB6eqUDL8XnKwRnQyG3OixaBhKrTtsvyt9u1ZU9JseHIIRHENNhx0paMKZbPytu8xXrPSgeMv3uxT/RA0P9Azxvff/eJyNOCN1VvS0ee398LfVv4dpAfnIMJiW2o2t9zWa2uq8bpVvVSBi+b9WAlflAccLoODViJUSmHsdGRyVqD0k2HEXXltfDre3PxDzAu0jy92UpkZ9pQs0llqYSGZc9iT+twjFqsClp3oGyV/rJl52uW7Fv81FHAzmedmaxVr1mn9erH+G1JCUpch3W/xLXqHV0lT3J6ny0ZgGy3/rL2YkpasvjiMr1/X6X25WYOoOSvO+MEsa2qBu22aOcvTnkyTzVOqPJLFNj7jv5LsGvz9mF0OsaiEqtdMgE68YU8MRHtFZXOL+B95ZbAwZcXC81f3nUyrsTAAf6eTMSXv9oH8pdvsd/ZGz+Z9pke8EZiiPkPRP7aVr/GA9qnXtdbBvHi83ZkAuxYvksEZSmJ1g7bpnV7UZ5Mo8UxoY3V4V5zFsHdenvh8/MwbTMa6nDQbkP0Zfpo14iTa4YIDMo8nMwbDuBe0zFo3d/Gcej/36OTf8fwkTIjY2PHtmo7+sU4Uvreyb8fm/nzNFPbvMuZsdm2dXuHv91OL1s2IYpl79OOL/lZdvy79DhvbVrTj0ntOOquz9q/v3vnugX6vSC9hPsKCvpcVksKz2DLlonpWQmoL38dh9yda0LWGjSctmHAFTJ4iUNLtfhXZblaGsVIdiKiMByz1NWG2uBotvNNC9paG932d9PZcfoj9TJACXE2RGU+4FyvzeamSl/+iP/KzUWu6zDvl3hLvaOrZPOC/musBAdTcv3uJD8sxqZlQpwd7M3NCr5pJ5ekJP0Xr9YPowbb1Imlq/PuqpOnu/DHITMSjvU2N6eEIuvJpr26ztmsofX36YZf/fE2DNR+1Tv3iblpzKBlKwwiODD3gZLNUs59amqq8UcnPo/AToIeaNttR/MpNd6BzBCZtsvSvBUpY80uHYddOoa90DLQXvsVedvmrpE/wvoZ2W9BBuUdgnZPZCZM7HNHcDY6SRxHRuDWDXweZ9ZlycykOVNJnoVfsCUDrZw0YH9xWDY51jfaETVoJTKuFJvweiMGTF2oBTItJ4y+V7KPldEEqIbvObNR3jScaFSvPNEDPacUyO8cf7XsfNS6XmJ4RWXCvAt+ZstJzzg4Mwq+yb4ieqDmHPzuS6NlEfRfvFomy3yiF7o07y6ynmxtGBKtXvqiNX8mmgLYzjf59YzgnRitZL8Y62fpb4dyrVlKZsYc05Z7OdG76OTn0S2BinZy90xrWoWzuc16xWMrmru4Cp0+hn3Y5mhi8MQ1W6QHjl2nNyHKZl9HUCOD9g5NiZ7o+9TxI047Lrrhx4QUdn/34SW8gi1ToLXlwBlVGI4SMeD0XlTI9vYrf4BRA1TGqewtHG4djlmrV+pvC9SqvaiJnITZbvt4LcH+aiB55quOJsn45TlINjUdelPx/mFEZd6BHC/9zTwLfmbLSTU/uAQ9nmi/KgPo39KRnuYfOED8Mk1pxSbTr7yuz9uLU81oN31Bayc9x8lANT1kpDv7mKhmE/P6eWcKYMSv3VDNbM0vyMIwuzObGDQqqM7rym1FTJkUbb3Va//4/3lMmTZZ+6y7J9shm4ps1n5YrsTZX/9bE397s8yZLf04DKRvmlN3HMNeyOY3WzoWue1npTePmfv6TZmWLo6z7mgSl0Gb7GPlDGj0fll+NvGr7gOO4FYMHX68mZtxbw3ecdY5soN8IQpfWIrJqqSvCKmrEWU/rLysBDXiVK+uStSuPuzwXdeGqtKea07s0tWIkrqir6ZQzwrpVwfKbJbRkd31akI9o6RfdbgSN22eg2S92MFZL7m+xzxv16sRTXWmKyITHFc6poh55eC0+YpFS7Omdd7nhsvVM5L5Chp39YLlyieZOpe/Lh1kBkL/tdjhqh3566/DFV1qGZblKp2et/yidNPsaFqG3nFZf4PcHnmF3uhDzi9fc738Eu1wlZgXliuxxElmb3M6RjS5ucKtA7kv1NVPl4ltV1dGDRPzkx3Hf7g10vfn4YV1mwTZV8mlqU5fjrt5eTsW5Hp5W285v46fiXO99TrZqd595tK6bNkX6WRGsr48Pz4Tr5+Hl2NM6rDPNMZ7fB9nkvXKPL3ZXttO7Zh1BlhHxHYNzLD+fbgu37nPfP9tej6GO+5v7b3mvyefXJdv3W/WbTbXdWHZ8rOyXC2o06ZPqRHldZjidd7uPy/H5yGY11tmvZCtjusG35+11+PM7XdfoCZj6Qt34WpbO9777Y+w4m1V3AeEVrAVBrocbBFRpwV+Qu0DPJzAqRdy91lrwbbLLWhC2M1PFOKGmPfw9C0rsF2V9QXhezUiERFRH6J17HcxX14NHQ43Eb3lcRQW9s1AS2KwRUREFAa0W1AgHXcbnevFoN0PLByymi/chwJ524c+GGhJbEYMEJsRiYiIKBDMbBEREREFEYMtIiIioiBisEVEREQURAy2iIiIiIKIwRYRERFREDHY6k3kHd43lyFDjYaa2yaUoixfDTMfxnRVTkRE1JuFZLAVMXI28uYswITBqsAgH+cjyh3DpFRVEWayX8WdIRwUBdPZqseQXZSD7E0PYYsqIyIi6s1CLNiKRWrOAozHMdSrEovjpSjesFYNxaiKzML0kbGqkoiIiCj0hFSwFTFyOqIq12LLgTOqxJszaGtVL8OGfEj0UTy4ZBKiMByz5Gtt+AA52eot2oOojXIxvPEq4lWNTs3DY71T/PIPtPfcuXyhKnGWGcNNi1UFERERBUVIBVttB17H7uNqxKdUJCa24VidP4FZqFiCV2YMxSMrd6AFh7FRvtaGMSgt098Rv/wHwO+N8kexB5Mw2xQsZayeg6idj6p6MXzvRmgPwXchg6qFmY3aMp5ZtkYvzH4Vs1WZMf0rq/QqIiIiCo6w6yBv9OfKm5OFhLoPcMiuKnqJhmXZjsALWIOKD+2IiktR47qoK6/1mM2SnIFWNipUmdNwjOpENuvah15DSUlJh+G3zjiQiIiI3Ai7YEtmv4x+W1taxyAvJxMRqq5X0DrPO5v5FmbaVIWuYpGe7VrosRlwOMbJaar3dgy0ym7EM4WHkVyg5u+lCdLVWw//ALm5uR2G/1JJMyIiInIv7IIts7a6Y2izRaG/Gg9/K3HTkkmAqZlwzU7X1N0alH5PNQOu3IEoEThZAy7ZPLkBNSlzLH21HFZlO+a98bQI2vwMuJjZIiIi6pywDrYSRqUhoq7a/ZWLoaysDi1emvNaTpj7WFkzWxbafNxZgldEIIbMB7x2gK9v9L8NlpktIiKizjkvPj7+a/W6g9jYWJw9e1aN9QB5H62sBDXiVF++Vus4L/trTR9lajSsK0fxjkNqpGfk5+ejqKhIjXWBvAFpwXA1YseelXoneb2/lRFgHcaenXEYF1eKRxYtEePySsQ5SNYrNS07H3V2gNfmCWdfLWMZ1Ru06a3zlmQWzF2/ruCQNzW9zv4Y8g9uVSVERES9X2gFW2Gg24KtPojBFhER9UVh3YxIREREFOoYbFGP6p92P5+NSEREfQqbEQPEZkQiIiIKBDNbREREREHEYKsHDR06VL0iIiKivoLBFhEREVEQMdgiIiIiCiIGW0RERERBxGArLCXiiXvm4k/TvDzKJ8RMmZaLIrHO2lCQqEp7O/1z0rc7F8v8fep3uBid1Tu3i4iom4VksCUfy5M3ZwEmDFYFHcQiNWeBeM9spIZPvBF82snPOLkbQxbmq+ouix+JP3Vyftu2liD/yfV4qsL/5zF2K2Pf9GigV4d7xTbnP1mOI6qkZ5mDPZfgXO6PW0diihq1sk5nDE+MVtVERBSQEAu29CBqPI55fbh0xMjpSGutD78HUHezk6ddApd95VpAk19WJ0bqUKxO9C/qtX3a/NREHCkTQU9SUvcFn6FMBcYDK/QgVw6rke5nFsoaJB4p06e/d59ea9WKYw3qJRERuRVSNzWVGa20ltex+3gqJszJAtQDqC1smZieMwTHSj9AVM4YtJS+jkM9mCzpyk1N5a0fjh49qsaCSGYtsiGCLWugJZvyFmE7NsXkIi9JL5MnUudJ1IZlt+ZirCMBIgM2OQ+Z6cjCMFXqZMfedSVYrk62cv53ZxgTW+sM2ntiKpFfKANCM5dl1IrA0XiPDBzmRWPTk7UYbbzHXomnnj+AbdobfJHzTkezWJ9j18zF6EOmbZb7KrUWTzWlO9a9XQQoP9zqPKjmF8x17C+D/p5Ix3yN7ZTvndlknd68fLf7w8M+M+a1GpMd77F+Xp5p6wzTPnQlt3tis499qH8m8HOZRETkXkhlttoOyEBLjbgVi9Rr0oD9W3o0wOpN+mXkaidwo0lv2ERnU9KUaZMxtlllx1RmQw/WVKZjXSXaHRkzOZiCBxEQ5YlAzpj2qQpg7CxPzVQdzS9Iwj7HfGUGKsul2SoReVrAoupt6cjzt1lrdBKG2WuwTazrkSaxzakuTYliWVoAKJddVif2Uboz+yWCkrwkY5tLsFcedyIQtAZTneTHPpOfl7Furp+XZ4lyk3HkkIdAi4iIelR4dZAfPAFpqMK7B86oAgqYKVDYVlWDdlu0NWPV2Wa2hgO41xSAuJ23Fy8WmrNwddhXCwwc4EixaY6UGcGd+3pPZBNie3WdlsHR1st1G2WWzMgAiRkfQSSGqOY2OS1qa9W62bGtWmxjtM3vINIrf/aZad0C3adERBQawijYSsWErP6oemcn2lQJdS/Zib24VmaQ3HSo9kk2QZo6VM9LRz9V4xfZrGVMKwbXZjstwDI1Zb1YuN7P7JLM8thxsEq9t6EOB+2izM+smMyEOQNQEWSl2ByBW9f53meWZYng7IcuTcNERBT6wifYGpyCBEQgTbsKUQ5ZzvFJqepN1FUyiDGa8k5m5PodcM0vyMVYVOIp1SSmNzn6SfbJypYd2I1lrxdBn6rrKtmEKIKasfOMoEbvk9ahKdGDbadbxf+NAFTfxtXd0YQodGmfedWKZrGK/m4jEREFV/gEW8dLUbxhrWkoRz3aUFUqXu84pN5E3Uc/YVs02HFSZoo8ZYXEBHoWxoZlswLMbMGO5lPqpdZPSr3uoikDIvXO9kZAIwd5taZfzaViOyZag8D8Dh3KbYi+TH8lO7sHvN5d2mee2LF8l9xGa7+3KdOyevCeWJOx9IVCFBa+jKVTVRERUR8VUlcjYnAO8rIS1IhTvburEmWz4hxejWghm+KyXbMZxhWF6so385WAjqv8ZL1s0jJfiSiYrwg0WJZhunpOm5czWDhSUYmBGV7mLZnmb7niz16Jvc3pGGFc1WdZz0Doy43e5Xo1nekqO7heledy5aC7fWq+EtJcL7anWMzPcTWi28/D332m75OOVzYGwGX5lqssvW6Xvn9c+4b5eyWkYfKSl3HX+H44urEA972gComI+qDQCrbCQFjc+oG6ibtgTS8bUd2FIKivuOVxFM6Kw3u//RFWvK3KiIj6oPC6GpGoR0XKCw+t4hMxQpR1uKEsmdyMxwsLGWgRESnMbAWIma0+xk1zW6DNaURE1Lcx2AoQgy0iIiIKBJsRiYiIiIKIwRYRERFREDHYIiIiIgoiBltEREREQcRgi4iIiCiIGGyFJXmH70AfFE2hSt7Zv+ieLD8eH0REROEoJIOtiJGztYdNTxisCgy2TEzXHkJtGvgQahfyDufGQ5fFUOD6uBjqXvr+Nj+DkIiIyCzEgq1YpOYswHgcQ70q6cBehS3mB1L34YdQd7yLucx45WJss+nBy4eSGAiEA3szjqiXRETUu4TUTU1lRiut5XXsPi4fMp0FuD6AWma2rgHeLd2JNlXU00L5pqbag6ZTakwPVXYh74YuH7q8EVhkPADZ8rBp/bl/jgdGuz6I2uVu6pY7qfuctzcySEzCvnXNmGlMa37Ys+NB1LUYbTwg2Vzv+uBkU527fdKhzLJdpgdFO7if/zDzw7NNzA981paV4Wzu5d3niYj6npDKbLUdkIGWGqEA2TAlxYb26jpHUOGWLR13a4HLeuSvq0R7UjqWxetV8wvMWbES7I3OMvULEwFHaq0zY1ZWh2HZLv2MvMzbt0TkGdPKZSMdiyx90kT9PeloXifry3FELCtPy9jJADELA0WA41hvMe3dqvl0W1UN2m3JmOJYD5f9JAO57EgRYMlpxVDWirHzzNulB1rO+YtBBWkvFqrlibhKBlFGveMB1SKIuzujFcXGdNo+yw1gnxARUW8Qfh3kbWmmfls5SFDF5C+ZuSnHi/JlQx0O2m2IvkyOJGJ0Uh2KHZkoO5bvqkO/lERM0cbrcK85S7WvFkcQiSGWwMHTvP1hmla83lZtR7+YSG3McKTMyDjVycVj4AARjI1Ox1hbHTYZAY5c740y0EvSA6aGA9hUa8OINBW4aQ+Sdr5/SloyULHdmcnaVymCJ7EvVNPrlGnpGGavxGrH/P0lgsCJiWivqFTbJOwrR7F5XYiIqE8Ir2DLvtPSX2vL/v6YwIArMPYabHM0kYnA5HnVrBVvw0Ate2TqXO/yAOb5BaY6c7OawdO8OyvapgI9SQRYpnnJrJIjg+Sjv9OLh5xBox5cOQOgYTE29MuQVwMa22VqRhVkPZpF8KfGA9WxXx0REfU14ZfZMmmrO3bO+m6FHjuONcOUieqMOmeTlzGY+j7lycyXo648+B26/Q1ybNHWwO+yaL3fl0Fm4bSmRNmECByssgZAso+VZZvFYASJR5q6Fixp2TcHG4ZEq5dERNRnhHGwFYvUa9IQUVft+crFPubFdyrRbnPp6zQ6y7+rEbVmv0TkebtVhCmDNL/ATWaru8SPxKIMG44c8qNzvdacmYiZjm1203wng8gKYOysyRjRXGnp/K5lvTIme+xHpfX5SvK2D/Ugd1iq635TTaEZ6c7+Xx2aPP0wdSleLixE4QtLMVkVERFReAmpqxExOAd5WR0bBevVVYnyasXpoyJUKdC2vxhbDpxRYz0jlK9G1GhX7qkr+iTzFYHGFYOmK/OsXK5GFJxX1lmvyJPBzMmMZDQbV+75nLc3Llf7CZar9hxXIxp9uly5TO/uKki1X066uxrQcjWiJDN4pmW57lPLlZCS677xdDWiuysdfZmMpS/chattR/GXgvvwkiolIqLwEVrBVhgI+WArLMlgRV5pGGggEgCfAVvouvmJQtwQ8x6evmUFtqsyIiIKH2HdZ4vIPzYsm5Vu6RgfFm55HIWFDLSIiMIdgy3qxWSzqLrCsLncefViuHjhPhQUFKCAgRYRUVhjM2KA2IxIREREgWBmi4iIiCiIGGwRERERBRGDLSIiIqIgYrBFREREFEQMtoiIiIiCiMFWWJI3AZ2LP5kfy0N9FI8FIqJQF5LBlnwsT96cBZgwWBW4SJi0QKvXhkmpqpR0xr2l1ODtWYd07slHBd06sgsPDyciolAXYsFWLFJzFmA8jnl4uLRePwHlKN6wVh92HFJ1fc/J06436ZRZDv0GnvlPrteHQ0n+PYiawlrHY4GIiEJFSN3UVGa00lpex+7jqZgwJwtQD6B2kA+qTqo+pwFWKN/UVHvocUqN54dBGw+L3ggsMh6sbHlos8uDqF0f6OzywGbLw6J9zts360ObrfP3WCeXm9qMvdHpYr3t2FtWgxHZYvmOh0XLADQJ+9Y1Y6axXi4Pkva13EXYjk0xueLY08ss263N3/1DqPV1q8VTTemO+TvqXR9u7WB+CLaPz4OIiMJCSGW22g7IQEuNuJGQlIC21lgRiDmbET01NfY9NkxJsaG9us59oGWwiRO/9kDm9chfV4n2pHQsi9er5heYs2IlIoDJMvUFEkGFCBwcGbOyOgzLzsJ8VavxMm9f9ICnVQQaav5iMAdyljpt2bnOeYvlRO9aj+JaG8Zm6w+bPmJLxhTHshORZ6yX3C6kY5GxXb7mLfTLyMXMphKt/qkKO4ZNNJr9ZDCUhYEigNLXuRwnxXstmcQkMf+YSse8+2Wk6/us4QB+qMq04E+bXp+H8fxG758HERGFizDqIB+LiEggYlQU6owmxPJ6JGTNRirPPwGwY+86dUJvqMNBuw3Rl8mRRIxOqkOxI3Nix/JdIjhISVSBRR3uNWdV9tXiCCIxxBJMeZq3LyIYyrDhSJkz0HASAc3ERLSbHyK9r1wLrEakqQ9eBCvFKjCzvM/BtF7i9bZqO/rFiIPJn3lLtc7nKm6rqkG7LVrPZMUnYgQqsdrxzEWx/2QwlmrqJycDKWO/ud1nnvj6PIiIKFyE3dWI9eWlzv5cx3ejyh6BqAg1Tr7Za7CtQb2WJ/DnVQYp3oaBMugxOtbLwdRkKM0vMNWZms4cPM3bF23ZdjSfUuNudHufpGibI2jp9Lwvi0Y/mc0z7TNzc2SX+PF5EBFReAijYOsM2lqB/lGxapys7DjWjC5mPmR/IaM5Sw2qb5Ns5suTmRZHXTmO6BN1XYMdJ9VLTwYOMAcxNgyJVi87q9nuaG7t0rwtTYBq6LZ+VZ4/DyIiCh9hldmqr61HxKgJSFDjGDwBabZ61Hnp59WXvPhOJdptpv5I0ugs/65G1Jr9EpHn7VYR9mZHgDW/wE1mq9PqsE/2t5rl7hYIqtnP6OskjZad4euwydF8F4D4kVgkmywPyYCoi/OWzYKu+ztQp5rFZ2buX6b483n4NBlLXyhEYeHLWDpVFRERUY8LqasRtasNsxyhlEO96apEecXi9FFGu2E9dm8wNSv2gFC+GlHjepWb+Qo2eXWcvGLQY3bE5eo3wXl1netVd5U4mZGM5nUlWC6bDn3O2zfZTGlc8Sd5vhpR9sHquNxhYnrZkf2HWyPFuqardbOut2S9mtDLvAWtTnZwN/ahtn/1Tvh6Py8v8++wT+R7jfXSCjTW5ctsljFvb5+HfyYveRl3je+HoxsLcN8LqpCIiHpUaAVbYSDkgy1y4T7A6TNueRyFs+Lw3m9/hBVvqzIiIupRYddBnoj8cTMeLyxkoEVEFAIYbBH1Si/hvoICFBQw0CIiOtcYbFEvV4d7n+yjTYhERBQSGGwRERERBRGDLSIiIqIgYrBFREREFEQMtoiIiIiCiMEWERERURAx2ApL8kadc/GnrjwmhizkXdzlw579erSRK3lXefmg6E4+WkdfdpbzkUFERNSrhGSwJR/JkzdnASYMVgWaWKTmLNDKrcNspDLmMJGPeBEnfnny70IAQERERN0jxIItPaAaj2Nunnd4BodK16J4g2kol+86i7ZOPI+4Nzh52nXDZcYrF2Oby5H/5Hp9OJTUuWxNH7Nta4m2v8zPTPRbwwH8UO5r4/mJnWF6yDcREfUuIfVsRJnRSmt5HbuPp2LCnCzA9ABqdxImLUBaazG2HDijSoIvlJ+NqD3QOKXG88OgjQcjbwQWGQ+rNj+o2vXBx5Y6QU6f7cyUWR7o7HPevrg80Nlead0Oy7KtD4uWD7CWD6BejcmOBzob6+Zun1jLzMu1ztfJ87qZH57t7iHR2rIcD5nu+BBsIiLq/UIqs9V2QAZaasQXWybSEutR1YOBVmizYUqKDe3Vde4DLYMtHXfPi8YmmYlZV4n2pHQsi9er5heYs2Il2BudZeoXJgKO1FpnxqysDsOyXfoZeZm3L/MLsjBQBCuO+ZsDLdknKjtSBELGslsxdp512f0yRFATU6nVP1Vhx7CJIzFFlG+rqkG7LRlTTOsxLMa8n+Qd5uV8yz1klvRAy9O6vViolxXXqgIzESDendGKYmM6bZ/l+r1PiIiodwjbDvIJo9KA/bvdNDeSdzJ7U44X5cuGOhy02xB9mRxJxOikOhQ7MlF2LN9Vh34piVrQogUl5izVvloRnERiiCVw8DRv/ziXZTUlLRmo2O7MOO2rxF67WF9z86jMNqn10wOsaD0T1XAAm2ptGJHmDBrldm5yyUB5MmVaOoaJea/28/1ONiybmIj2ikp9f0j7ykVQZl4XIiLqC8Iz2NKyWm04VsesVsDsNdjmaCYTAdXzqlkr3oaBIhDJMzrWy8HUZCjJJjNHnblZzeBp3n54sbAEe5GOu9X8zf3MZCZKZq6cyzY1dSqWjJ7Wh0oFfcKLh0xB4+gkDKutdQZAPshlo9nuPVvoRcd+dURE1NeEZbAls1oRdR/gEM9jJnYca/acHfJPnbPJyxhUk5nse5QnM1+OOk/Nbp2lB2favNdVYmC2NeCS/aEs6yUGv/s+ySycakqcn5qIIyL48teRpq4dZAMHmKNCG4ZEq5dERNRnhF+wpbJaVfsPqQIyvPhOJdpt6Vhkvv/W6Cz/rkbUmv0SkeftVhGmK+ZkH6sOma3u0mDHSfVS0jJTGZO70NepTsRbskkzEaOjK1EcQAd1rUkyyc99aGHHtmq7WO90Z9+y0ekYa/O/CVMzdSleLixE4QtLMVkVERFReAmpqxExOAd5WQlqxKnecVWivDVEHtJay1G849wEW6F8NaJGdiY3rgaUzFcEGlcMmjufW7hcjSg4r7CzXpEn+yKdzEhGs3H1ns95e+NytZ/Q4co+y9WIksyy6U2FxtWIrlcCWqj9Ap/zlVyuSnTdp46rETuut2Red+vViJ6udvRmMpa+cBeuth3FXwruw0uqlIiIwkdoBVthIOSDLep1bn6iEDfEvIenb1mB7aqMiIjCR9hejUjU693yOAoLGWgREYU7BltEoeqF+1BQUIACBlpERGGNwRYRERFREDHYIiIiIgoiBls9iJ3jiYiI+h4GW0RERERBxGCLiIiIKIgYbBEREREFEYOtc2D6iD+jLL9UH2Y+jOmqnIiIiHqfkAy2IkbORt6cBZgwWBWYJExaoNUZg7v3hLotB7+P7KIcZO+qViVERETUW4VYsCWffbgA43EM9arETAZhE1CO4g1r9aG8HglZOej4NEUiIiKi0BBSwVbEyOmIqlyLLQfOqBKr/pERaGs11bW1oE297F1uxuOFhSh84mY1TkREROEqpIKttgOvY/dxNeJGfW09IkblqabDWKRek4aIumq3WTAiIiKiUBBeHeSPl6J4QzmQJftr5WHIx8Uo3nFIVfYmL+E++Uy8e19S40RERBSuwivYGpwjgqwxaCmVfbbKcXZUHvJyMhGhqomIiIhCTRgFW7FITU9A2/4tOGSX44ewWwRc9bY0pIXhFYlERETUN4RXZkuIiIxVr4TBKRDhF1p6XS951UH+haWYrEqIiIgoPIVWsKU1E8r+WFna7RwStL5Zxr20zuBQaTnqE7PUe8SQ1R9Vpa+rTFdvcgTNcpts38KUqXoJERERhafz4uPjv1avO4iNjcXZs2fVGEn5+fkoKipSY1006FmUXdmE/7vpIWxRRYabnyjEDTHv4elbVmC7KiMiIqLwE3bNiL3eLY+jsJCBFhERUW/BYOsccDwbcWKKKjF54T4UyNs+MNAiIiLqFdiMGKBubUYkIiKiXo+ZLSIiIqIgYrBFREREFEQMtoiIiIiCiMEWERERURAx2CIiIiIKIgZb1K2mTMtF0T1ZmK/GAxI/En+6Zy6KChJVQfeYXyDmKecrhj9Ns6nS7mTDslu7f72JiKh3CMlgK2LkbNNjeqwSJqlH9cghJxMRqpxCmLsganQWim4diSlqNJheLFyP/CfXo7hWFRAREfWgEAu2YpGaswDjcQz1qsRMBmETIquwZcNaFIthd2sapk9KVbUUMuzNOKJeOtnRHp3kPePVcAA/FEFRfmGdKggv7U2t6hUREZFTSN3UVAZTaS2vY/fxVEyYkwWUi4DquKqEmzJbJqbnRKFqQ6nb4CwYunxT08VlePCqvVjTmIOFmXqTVsvOR/HMsjXaa2Ahct54AOMi1WjrDqz53o1oEC/jl3+A2diPlsxJSMZhbCwEZhUMB6o34JFFS/T3y/nLMo0de1aOQWmZGj1XZGZrXjQOVkRiBLbjh1vtemZrYjOeev4Atom3yKa+vCT97e0VJfp7LGRTXS7GOloB61D8ZDle1F4n4ol7sjBMey3YKx3zNZPLmNnkZt5yXbKdWbcjZetx7z41Isim0bsznM2PrvW+TF7yMu4aD7z32x9hxduqkIiI+oyQymy1HZCBlhpxqw0tbeqlZD+Ds+iPiGB0wwmmlDlYGFeKR2YMxSOFhxGV+QNkqKr45T8Afi/KZd2MR7EHkzB7+UJVC/HeUTi9UpS3DsesmY1Ys3IHWlLG6tNnv4o7C+JEgKWmL2zEuCVljnmfa8e2VuJkSqLbpkPvTX0q0Gou196jD0agJeuyMFAEaHp5CfYiHXf73X9KBGqptc75ltVhWLapz5kIFBdltIrAzlhuYIEWERFRGHWQP4S6ugikjXI2GyZMykKCeh1WZLbKyESt2osaxCE+Wx9tWJZtykStQcWHdkTFmZ6hWF3qqK/ZpGe8DPFTRwE7n3VOv+o1LSgbtViNe/Vj/LakBCWuw7pf4lr1jq6rw77mdOSNVqP+Gp2OsbY6FLtrXlR1mxzZKjuWb6xEe5KPJkuHOtxrnu++WhxBJIbEq3FNIkYHus4m21f+CAUFzGoREfVVYXU1Yv2OctQnZjk6yCfWinGcRZtri1M4k9mpzUfxoBqMpkZ/JMTZEJX5gGPaBzebmiN9+iP+KzcXua7DvF/iLfWO7vDiO5UYmBrYVXtTBoiNcNsPTPFW5wfz1YrySkpHc6Qk+5Fp2S5V30Od+omIqPcIq2BLZrd2q87xWgf5tlj0t7eIcKu3WImblkwCdj6qmhGHYs3OwCJJ2f/LmNYYXlmlKr3qicyW0FCHg9HpWDZAjfth22kfHc9t0dYA6bJo9FMvfZH9sfKSZP8vo5mwvGPgts/ZfFncnI67GXAREVEAwizYMtE6xw/BsXd2wtyNqzdoOaE6y2e/itkBZLYq3pf9v+5AjmqSDEzPZLa0Zr5drRiR4nfKTW/as6Vjkbt7ZGnNfomY6aizYdnERLRXVKo+XX4wZcbmF7hktlwcaQo8jSo7yBcWFuLxW1QBERH1KaEVbA3OUU2Eel+shCy9udC435Zx/y1t0K5CfB2HelMTIpagbKcdyQWqGXBJHA4Hktlala06xRvNiHIInQ7yDiJAOmkzB07yakK9mU5ekdgvQ94Y1XwD0jrc+2Q5Tqpyo7lP75PlWqd3pHdeceh93tu2VmqB3N3qPTObxLhWo9Nv0moscy7ulp3l3Vzp6M32k43av0NH3az9S0REfUtI3fohHHT51g/U90xdipf/62o0bizAfS+oMiIi6jPCtxmRKORNxtIXClHIQIuIqE9jZitAzGwRERFRIJjZIiIiIgoiBltEREREQcRgi4iIiCiIGGwRERERBRGDLSIiIqIgYrBFREREFEQMtoiIiIiCKOTus5UwaQEmJKoRexW2lFqffSgf2TN9VIQaq8fuDaXi/z2nr99n61sPLMPPxkfg6F9/gV+vVYXKdU/+CjcMVSOCu/cQERH1NaGV2RqcgwkoR/GGtWIoRhXSMH1SqqoURP30UWdFgCXr12J3XQIm5GTCCL0omFJwy0u/wi2oxlFVYiaDsBvwNyzO/4U+/LUWQ69fjOtUPRERUV8VWsHW8VIU7zikRs6g/uM2IDJWBVOxSE1PQNv+3Y5MVv3+KrTZhiDB/EzjcLC4zPSg6KO4abEq16zETaY6ffgAOdmq2qX+zuULVXlwfeuBuRjw9i+w5NGTqsRq6IAI2E/XqjHhSDM6PkL7ZjxeWIjCJ/hAZiIi6jvCqM9WLKJsbThWd0aNp2JCTpoIxCIQFVapLREsXbUXj8wYqg+Fh5FcUIYMVZuxeg6SqzfodSt3oEWU1RSOQWmZrF2InDfmIGrno2r6DWjJfMAlWAuOfz663GuT4Jv7a2Ebvwg/XyDHUnDLLVfBdvQg3tRqiYiI+q7zk5KugKfhnLJlYvyoCNRXWvtsaRmunAXIm5MFlMumRKB/VKyqCwdL8MqiJeq1sGovahCHeC1ztRKjUkRw9b6qL3sLh1uBqEEqe5V9LYZjB15ftkYfF/Mq22lH8lUr1bh3P36mBCUlrsNr+OV09YauWLsKi/P/Blz/K6wqWoRv/XM1Ft+zRVUaXsJ9BQUouPclNU5ERNT7hWhmS89aYX8xdh9XRZoIpOXkIapS9dk6HouISOBsi5HtCg8Zq81NhHOQrMqBapwWwZUjeJLBVaQdh99WwdUVcYiKnISFpmbEhZn+t6H+8c5c5Oa6Dj/AL11jos5YsFgEWZNw+jeyz9bfcGb8Iqx6aS6+paqJiIj6qhAMtkSgNScLCXXl2HLAHESdQYsdaLMEYHrTYos19RXS4pd/gFkph7HRaEacsQE1qg5Yg4bT4p+UOXowtWQSsPNZ1YSotO7AGse0ajBnyrwIXmYrBbdMTYL93fV44S05vgW/FgHXUdtVuEFrViQiIuq7QizYcgZazo7yBr3DfMSo6UhVyZyIkWOQYD+G+o49sUNba6Ojk7/WR0u9RvaryLIEYkPxjKPJUJBNjpGTMLuTneKDmtkSbAOS1CthwQgMRRtOH1HjGtVB/oWlmKxKiIiIervzJk6c7PE+W2fPNvXofbas99Byqpd9s1Q2y/IeN/fhCrau32dLXk3oDLBadu5AS+YonF6pd4KXTYyzUlSl0rLzUVPQZZ1eqikcildWqZFgkc2E15uCKcV5L63p+HnRd0WAZWjDu79ZrjJdhslY+sJduNrWjvd++yOseFsVExER9WIhFWyFg6De1DT7Vdy5JA7lM7JRoYr0slE4rIKxcHfzE4W4IeY9PH3LCmxXZURERL1ZGN36oQ+QHeDVS0P81FGirBEN4R5o3fI4CgsZaBERUd/DzFaAgv24no7NiLIPlynTRURERGGFwVaA+vqzEYmIiCgwbEYkIiIiCiJmtgIkM1tvvsmH0BAREZF/mNkiIiIiCiJmtgJkZLb+9a9/qRIiIiIiz5jZIiIiIgoiBlvnmrxp6eYyZKhRnbxL/FE8+MariFcl3UE+l/HB1eoh125o9cZDrr28zy+Ly7p9/YmIiMJRyAVb8g7j8uaX2uDhGXr6e17G0qmqgLpFw7Ix2vMY1+wMt4dNArYbSzHyu9PUGBERUegIrWDrlsdxA/6CgoICMTyN93A17nriZlUp6Q8yHn3qPbSrkt5pCV6RD6L+3o1oUCVEREQUnkIr2HrhPhTc+5Ia2Y5t/xQhVcwQR3br5idmoPm3BbhvpyoIV7KJzWiuWzLJ8oge3015qonRGFyb6szzFsNNi1W5ibxLvbd6jyzz/gA52apcsax7wXBVGlwXf/fPmPhgKdKGAf0n3K+91oYbb1XvmIaBd5Yi+Wo9+6XX/xkDB6nqq5/FxDsfxsVqFLgVyeZ6wViGPjwLmyp30n8EFFp+GBAREenCqs/WS/f+CCveViPhSvbRKojDnpVDtSa7R1buQIuqknw15WWsnoOonY/q03bIfolA7Kq9zrrCw0gucOkPljIHWY1qenf1nriud2Ejxi0xTSsCsYWZjdhoWnZP+Oxv38euR3JQdQQ4u/sx7bU2vPq8eoduYG4pEk/r9VVH+iF5mhGM+SCCsasmNKBKzff93fFIswRnRERE3oVusDV1KRaO74ej23rXQ4szZk8Cdj6L0i48WDrqyms9dDxfglcWLVGvhVV7UYM4xJszUNUb8MyyNfprrX44RvmR3ZIPxLas96rXsKfVmHYhcmYOR01hJ5/hOP2XeK2kBCWuwzM/Vm/oBkcKceBvW7WX9qpqIOZyvwImW1oKTpbcASP0/exvb+Jk1JWIMmW+xM8A3Cebvh1ZWSIiIqcQDbZuxuP/dTXw7tO47wVVRJqKRY9iDyZhoWquc20GNDcRPrh5DpJVuXvVON2qXvqQEGdDVOYDpnk/gHGRqrKrtvwSP8jNRa7rcOcf1Ru67mSVKdP13h3Y9cxD+EyNejYN34zRs2LOZsQCDFS1RERE/gjBYEv2f7kBQ2v+gh+t7E05re6yBqXfU011K3cgqsAZcMk+U7NSDjub8mZsQI1e5UEKBkTacfojNepDi7n5Ug2vrFKVXdETma0uOFmimiYdw/dx8oSqJCIi8uH82tqP4Gnoec5Aq7c2ydQ32k3NgCtxk0sH+YCU1Vn6e2laG1GvXsr+Xd4yW/HLc5Dcuh8VfjRpVrx/GFGZd3ToFK9bg4bTQPJVqkO/1r8rgA7y3ZDZ+ux0O/qnTutcX6qoGDWd7ExvzlxtRcuhdgzMddcp3kx1kPdwqxIiIurbzouPj/f4uJ7Y2NgefVzP5CUv467x/dSY09GNBVpzovv6drz3257rON/1x/UsRM4bRhOcHXtWlmLAkrHYP0P2dzLXmVRvwCNaXyx5JaI1gJLZJkcfLJf6lp070JI5CqdXjtH6WsnM18JMU9jQugNrHB3sfS1bkFcjWoIomUUz+mmZly3KVzYi63bg9R67fYUMlO5HshG5HilUneT18m++k4Oa9/QqV/IqRXk1o3SypBDIvQ7/+qMzeyWvRrxqgum4a3kX71uaISdj6Qt34Wpbzx6LREQUHkIq2AoHfDYiuSNvtHtDzHt4+pbedUEHERF1XehejUgUDm55XHvaAQMtIiLyhJmtADGzRURERIFgsBUgI9giIiIi8gebEYmIiIiCiJmtAMnMVlFRkRojIiIi8o6ZLSIiIqIgYrBFREREFEQMtoiIiIiCiMHWOSLv5u7uQdIhb3QWiu7JxTL9eUMOU6bloqggUY2FsfiR+NM9WZivRjuQ23/rSExRo+dOIp5w8zl0l/kFc8XnrA9/mub9YUWhTG6Hc/2Du8+6lbvjTDs2xWfSG/7O+gIP35XUN4VcsJUwaQHy5qghJxMRqlwXi9QcU/2kVFVO4cB64nNlw7Jb5+KJ0Wr0HJl/TTpQUYkX1biVWMeJiTiy6wC2qRKvjJOjMYREkOafFwvXI//J9SiuVQXhSOz/mUl12LTVrgqCrbuO4QCPs7AWGn/3RMEWWsHW4BxMQDmKN6wVQzGqkIbppoAqYuR0DPm4WNWXoz4xC9NHxqra8NKwbAwemTEUr6xSBWGlFcd65oGHPSwRo72dnOMTMQKVKN6nxn1pOIAfioBFBi1a4NKcjruZlegxU9KSvQTOIczTcWYcT4V1qoBCX2/9rqRAhfStHyJGzsb0y49hS+lOtKkyM5kF04KzHYdUSfB1/dYP5gc2ywdR6w+J1sgHPV/ViD0DJmFcpKgr3I/hBZMQZX5gdParuHOJKNMmMJgfCH1uyGbEu2PECQJZyEvSy46Urce94oSh1WW4yWjVlmsnDpnxMqYxa68owQ9l4CPT8am1eKpJBCtqPo46jfx1nIuxjkXUofjJcutJVmaZ5smslXk6K2MbPJ3M5HrObHJO7zqu09clepe+7Wbu5u+6b4x95iC3PdsZoDm3WzaJpaO5rAYjstOhPSbbXomnnndmQ7zPW06fBfX87Q7TGtxvo+Bxvfzjbd0818l1TkJzRSTGivr2inIcTMkSn7sde9eVYLnlpKb2j6Xc9z6zHovO+fr6rPel+jiGBZ+fteJuWeb16njsTwaqW8U+EZ+H+Jsy/gbN87dul87/z8zlWFF/t0Y53BxXzjKXv03T/na3TpJlvVyOM9dtkvtpNSY79qunfdqBj+8U+VktwnZsisl1rKN13i77ROPuOPRMe55q8lH8peA+vKTKqPdin60etwSvzBiKR2ZsQI0qsUiZhAGbhmJjtQ3jCuJQLt8XOQoZ2bJyIXJunwTsfFTLij1SeFiUyYDt3AZaDklZ2pefzOI8VWHHsIl6s9m2rXqZbJKSX2hGpscIOvQmqxLsFd9z8gvNqLecCMS8tUBF1q2rBDImO/pCTJk2GWObxQnAmK9roOWXRORlAHvf8ZA1cNMkdaTJjn4xkWrMFxumpNhw5JBp/mKeizJaRWDo3GbLiUI70USKL3BnvfXkaMPY7Ghs0urKccSWjjyjOUZMe7d53mV1GJZt9B+RJ8AsDHR8FmLfI5CsmzjReF0v7/Sgw8N2e11vKRFj5XEgyvtlZGmBTnGtDSPSnEGMNGVaOobVVro58XneZ3K98qJFMKCW/ZT4oxo7T++/5+uz9nkM+9wuxUPTp/dmXbFNKc14SvxdtKu/Qe3vL1V9nmLZeWKe+rL1dZQBk7+f2fyCJOwz1lvuM7EMvdmvDvvE+jiWI8XbMFCWq89Tfg7YaEyrH2eLVFcC33/34jgTAZFRru8za3/KfhniWFLfC+bvHL94+U6R5LzdfZ9J8wtEoCWDTjVtuyg7UuZ/oEV9T+gGW7ZMjB8VgfpK91ktrckxsQ1V+3suq9UjWnegTDUttux8zRpEZV+L4ZF2HH57jT6+aq8I2GwYcIU+6suPnylBSYnr8Bp+OV29oatMX+DbqmrQbot2+eXXBfIXsZERaqjDQbsN0Zfpo5qkJM+d2iXVBOPxBDM6CcPsNdjm4ctSNkn1q621BHHbTreqV/qvbL0/WiSibXY0n9LLtYBJ67Mlft27bYJMxGi3/VVEQDQxUQSn2718gctf0kZgqZ/4Bg6Q62BMa2pC21fuDEpGp2OszXxCt2P5Rnmi9rEPLToGOP6RQa0IOsvcBcQ+1lsjttkIiMUx4b5J101g6+Bpn6n1MvWT2rZ1uwgE9M/Hr8/aI3+2S+fuOPOHc707BmrzZTDkmKcd26pFfbTYR9q4by8Wmj8r8z4Tde9YjxvXptttW8tNx6++bP9/oNThXnOWWSz4iNjnQ8wBqul7IeDvHF/fKR6/z2R3A7HPjeNLm9a5T/z10r0FKGBWq88I0WArFRNy0oD9xdh9XBWZiUBselYC6stfxyHr90rvJn7ZtYgv7uFTF+rji8ciGYex389+X3+8Mxe5ua7DD/DLLeoNYcb4cpOZs+JacbJUHdH1E2Eg9JOh5w7JHrJep5rRrp20xJevODGcdJxETP00xElV+/Urh13RuPse0y9zGQBqv9bddaCXJ3Lg5OnOH+Bep7U3ixNXZ4mToJYJyFWBpJerN11pmQ/vAUpXtlkjg8lA+tY5eFkvfz5rH3xvl4/saifJrJzzx4geiLZX13k41t1w/GDQB0vTnxZoGD8Y5LyBg1Wm7ZTN96Zpzc2o/pCBrXPZrs12sG6H9oOqM1ltJ/8CplY0i010ZPRkHzsRdFu2m8hFCAZbItCak4WEunJsOXBGlZnIQMtbINarVUP+wI7KfEC7bcSDBcNRU+h/E2LQM1s9zHzyMppZZDPHSREEBBRwaV+WzqaPDjxlvRrsOCl/7Yr6gU2V2AdxQpPBhKdAxt0vc1MwpnWgdwRc+hd6V1hPHDYMiVYvJdcMwGXReh8mf5k6/z9VESkCXT8DLrnP1EtPvK63H2QmJ6BgwsEls6ECXk2gn7UbPrfLR3a1s/SsnPFjRM+wrvaU4XUlg6Vs8UPE1MxnbcrUs1Va4KF17DevfyKeUP0kjWllc5y/tGZdR/OnHMq78APBP/4F+nYcaxb/JKkgVNtGbxloopALtpyBlttO76ZAy20g1tst/gHGYQfWaH2+9CGQqxnPdWZL6/eSkuih+UL/AnP8WvRC66PlMTjyEKSoX9jugrCu3u5hyAD91/yRpkiMvkYELWIF3L1X60fk5WSqZSAc1EnMpY+Kf1RzTUa6c1pz06EW9CVipmNfuGnmCoC5ic1JzPNW/eRu7Zckm6FsGDvLXd8aH+vtDw99nnzTm8fM/XL0z8uaIfP+WXs6hv3ZLt/HWeeo+ZqCpXw3F0J4Z20Wd+3UrjWxiah0floyTrpZf0cAIz6bRR0yWz7+7k3BrNZPSr32m5GV89Ef0ft3igt1jJn7HPrb/81MdpAvLHwZS6eqAurVLlT/hoSIkWOQIF8kij9oEXQZ6svXalmshFFp+n23RuUhb5RWJbShqjSMmhPlFYcFw9UIkLzkKMYtUVclqjKPVr2GPTMfwMLNR1WBrqYwPG4hIfvATEnJxd33pONuWeC4qkkn+4aMvkd+OerjlquSbGIaYzpxYnRebShP6uYrEQU5X7+//GT/CzsOvuPh/SrrtcljYJeIsSmVeGqr2D7xq36R+JUrgxaN/KI3XUllvhJLcr06Td8uZ71sHgXk/pqLPL3Iuk+86DitfqWUvs/qcK/Yf/IGn0UZWoHLPnO50ipJf59j2a7bZZm3bzILiYK5ps9TBJoiGJCd5L2vt296n6fOBY0d18v8efj4rBVPx7DP7fJ6nHn7PFSZR3Ys31UnPi8RcGgX2Sgux6JHDQewqTYdefPE9HJcTLe3VmawTOR7msV2Zcj9pco0YrzCjrsdy67DXjE+NkardPC8zyrFPLMcn4fc10eS9Ou4u4XH7xQftH0ittf0dyn5+7dpOHKqXZwA+uFbmZOBt7erUuqtQvrWD6Go67d+6AIZqM1sdN4GQtKCN5zzWz8ElTy5T2z27+QQIC3gcbkdg5lxeXkgX6J0rsigxPV2D+EheMeZ/mPEeisSvWxEdR8+rrvynSKz5PPkFa2m4EwrS8bBQI69Wx5H4aw4vPfbH2HF26qMei3e+iGMxA+KU6+cMq4aLn50N6JejVNgZMbBU6AlyWwHA61wITN24Xn5ffCOM1O/M4OWReuGCxH6Kjf9G7WMKvy9WOJmPF5YyECrj2FmK0DnNLMl77P1xgMYZ75y2nzD094qiJktol6vQ7Ov0Wzr0jzpyqWZv1fp4neKzERa+64F0AxJfRKDrQCd22CLiIiIwg2DrQAx2Orof+VNxoSUIWqMiKhv2rSvGr8r263GiJwYbAWIwRYREREFgh3kiYiIiIKIwRYRERFREDHYIiIiIgoiBltEREREQRRyHeQTJi3ABOOWMPYqbCndiTY1isE5yMvSHuij8/QMxSBiB3kiIiIKxAX9+/f/pXrdwaWXXorPP/9cjfUAEUzNiPoAxW9uwj8PfIyvr8jChLh2/LNOPXS67bAor1CDqB/1HYy5+GMcPfUvvb4HpKWl4eDBg2qMiIiIyLvQakY8XmrKVJ1B/cdtQGSs/vDpDs6grVW9JCIiIgpRYdxnKxWJiW04ZmS9iIiIiEJQ6AZbtkyMHxWB+kpTny0hYuRs5M1ZIIYsJNR9gEN8lioRERGFsBANtlIxIScN2F+M3cdVkdJ24HUUb1irDVtaxyAvJ9NDMyMRERHRuReCwZYItLSsVTm2HPDeRNhWdwxttij0V+NEREREoSbEgi1noOXPLR0SRqUhoq4a9WqciIiIKNSE1H22ZH+s6aM6NgrWl6/VmhM71PM+W0RERBTiQu6mpqGOwRYREREFIoxv/UBEREQU+hhsEREREQURgy0iIiKiIGKwRURERBREDLaIiIiIgojBFhEREVEQMdgiIiIiCiIGW0RERERBxGCLQsugZ1GWXyqGZ3GbKiIiIgpnIRdsJUxagLw5asjJRMeH90ixSM2R75mNVJsqol7gVvx+YgoO78pBdtEdeE6VEhERhbPQCrYG52ACylG8Ya0YilGFNEyflKoqnSJGTkdaaz0fQN3bRFyOeFTj/RNqnIiIqBcIrWDreKnpwdJnUP9xGxAZa81u2TIxfhRQtb9aFYSZxWV4cPVKxC//AA9uPqoNdy5fqCqlhch5Qy/XBvFeJ73upsVAxmrjPR8gJ1tVS3L+xrRisM7bPJ3rtHLecnwlbnLUlyFD1RIREVHnhFmfrVikXpMG7N+CQ3ZVFI5S5mBhXCkemTEUj6zcAWTe4Qh6MlY/gHGnN+h1Mx7FngFzOgRMyQVHkdX4qPaejdU2jJttBGQiUCqIw56Vclp9eGbZGlUHLcCbNWAH1qi6NTuBcUvMAZWY15IcnNamF8tuHY4sl2UTERFRYEI32NIyWBGor9yJNlWEwROQhiq8e+CMKghTrSLgWbREf132Fg632jDgCjmyEqNSDmOjUYc1KN10GFFXXot4VaKp3uAIoirePwwMSDTV2zB8qrsAaSWyM22o2XQjGlRJw7JntYBq1GJVINQUjkFpmXy1BhUf2hEVl6KV+/LjZ0pQUuI6vIZfTldv8EdEDPq3NeEjNUpERNQbhGiwlYoJOTKDVYzdx1WRLMvqj6p3TMFXLxI1SARI2YmIwnDMcjTjiaFguHqHU837RjAmrMrGI98zAqgleEXLlD3goRnQjtNBimT+eGcucnNdhx/gl1vUG7yJeBhF8grEIe8je9ND8GcSIiKicBGCwZYIquZkIaGuHFvMGazBKUhABNK0qxDlIN5jjLvpRB9uWk4YzX2HsVE18zkGRzDlh7Ib8Yyabs3OOBG4WZsJ9QyaIQUDItXLLupSZqvtIeQX5SD72FUom/kwAkmGERERhboQC7acgZazo7wiO89rVykaQznq0YaqUvHa9b1hJH75HRgXeRj7V4kRrUlxOGZZOsV3XsOJRvVKWgJ5TUHyzFcdTY7xy3OQ3LoDZXLZXdSlzJahrQlnI2JgiQeJiIjCXEgFWxEjxyBBvkjMct5rSwwTBmvVvUfkJCxUzYQLMxuxcUY2KrSKNSj9nt4p3tGMKAbXDvIeuVyJ+KDWWd6YN1CxaCg2nnZZdiBZMyIiIgrYefHx8V+r1x3Exsbi7Nmzaoyk/Px8FBUVqbFOkAHRzEasYZDTkey7NTMGb/KGpkRE1IuE7tWI1Pe0fSwC0Hhc7v6xAURERGGJwRaFkOdx+64GTJjJZyMSEVHvwWbEAHW5GZGIiIj6FGa2iIiIiIKIwVYPGjp0qHpFREREfQWDLSIiIqIgYrBFREREFEQMtoiIiIiCiMEW9SAblt06F0UFiWo8MFOm5aLonrl4YrQq6BaJeELMU8636J5cLDOeZdSdRmcFb95ERBTyQi7YSpjkfExPXk4mLPe3tGViuukxPtrQCx5C3edpwchc/GmaTRWowKqTQVlg6nDvk+uR/2Q5jqgSIiKi7hRawdbgHExAuXrQdDGqkIbprsGUvQpbzA+kDuOHUPdV7U2t6pWJ3Q6kJGKKGnVn29YSERStx737VEFYacUxPp+JiKhPCumbmkaMnI3plx/DltKdaJMFMrN1DfCuMX4OdOWmpvLWD0ePHlVjnbESN20ei/0rG5G1ZBKiZFHrDutzFuWzFwuGqxGgpnAoXlklX+nTnt4Zh3GZNrTs3IDDV87BuEg79qwcg9Iy+Z6FyHnjAVEmXwvVG/DIoiVqRBe//AMszIRpmm4gM1sTm7G3OR3Rh/RgSma27o6pRH5hnXiDbOrLwjDtzXbsXVeC5a6Bi5xHtjMT1l5Rgh9uFQGcFD8Sf5qXjn76GFBbruZrJpeRjmY389bWJcPIurkuXzaN5mKsIylXh+Iny/GiGiMiImKfrbAzHLOWxKF8xlA8MmMDaiInIXuxqpIB1VV7RbmsE0PhYSQXlCFD1cppx8WVauVRmXMwYNNQbKy2YfjUhVptxmoRaJ0WAZY2/aPYM2AO7lyu1/WEbe9UYmCqu6ZDH019WqAVKYIg+R59cARaMogSgdbJMqNOzCMpy9Jk6ZUI1PKw3THfpyqAsbNGOjJwU6ZNxthmEbypejl/BlpERGQWusGWLRPjR0WgvtIli2VLM/XbykGCKu47ZCYqG+KcLyzB/mogapAREC3BK+ZM1Kq9qEEc4rPVuJz2dVXfugNlWsbLsBKjUg5jo2P6NSjdJIKyK6+FuV93w7IxIhDrxqyWWUMdDkanB9iR3IZlExPRXrG9Y7ZLmDItHcPslSh2ND2KwK2sDv18NFk6NBzAvY7ATQSEVTVot0WrLJuSlIT56iUREZGrEA22UjEhJw3YX4zdx1WRZN9p6a+1ZX9/TOiTAZdnGauP4sHNxjAHyarcp+xERMmsmWNaMZiaI3uGHct3tWJEmp9ZJ00kosXbT552BkQdNNuxTb0MnLqC0rhi0dwcKch+ZMW1ichT9X5nzIiIqM8IwWBLBFpzspBQV44tB86oMvfa6o6ds75boUj2p5ols1NGM6JsZlR1/jFPqwZzf7CesK8WJzPS/cs6aVplLOWdiMbM85sywOiU5tv8glyMRSWeMpoJ11WiXdUZXix0NiGezMhlwEVERBYhFmw5Ay3fVxnGIvWaNETUVaNelZDQ2ujYHxmrA8hslb2Fw63DMWv1SlXgngzoHtz8AXIcTZPdrQ7FFZEYkaJGfbJjW7Udw7Kz3Dbl6c1+6chz3JsrEXkZNhzZdcD/bJcjM2bDslnWzJaVH4FfB5Ox9IVCFBa+jKVTVREREfUqIRVsRYwcozcJJmZZ7qU1YbBWrV2d6CzPw5CPi3nrB5OGZaVah/mFqhkwq3FHAJmtNSj9nt4p3tkMebRHO8gbZIAEmyk7pO7DVaRdkWjD2HnytfMmobIp7ykRoBlNeZbmvIYD+OG6SgzMNuqyMLCixHn7CB/zfvGdSrQnGe/JRXS1ObPl0sQo6mVneWfnfH9sx7Z/yjn2Q7SlIxgREfUWIX3rh1B0bm/9QL3SLY+jcFYc3vvtj7DibVVGRES9RuhejUjU692MxwsLGWgREfVyDLaIzpmXcF9BAQoKGGgREfVmDLaIiIiIgojBFhEREVEQMdgiIiIiCiIGW0RERERBxGCLiIiIKIgYbBEREREFEYMtIiIioiAKuTvIJ0xagAmJasRehS2lOzs8bNryHr+eo9h9eAd576578le4YWgb3v3NcrzwlirUTMfPi76LoWoMqMVf8lfhTTVGRETUW4VWZmtwDiZABE8b1oqhGFVIw/RJqapSikVqjgi0HO8RA5+NGCJkMPUrjD79Pjo+GTAFt7z0XeCvv8DifH34y9Ek3PDkdFVPRETUe4VWsHW81BQ8nUH9x21AZCwiVAkGT0Baa89mskLPStxkelD0g6tXqnJd/PIPLA+Sdn2Ptb4MGarcSc3fZb6+XPfkJJz+zS/w6x2qwCIJA2xtOH1EjQpHT7vmK4mIiHqnsOqzlZCUgLbWWEyYswB5apgwWFX2ERmrx2L/jKF4RBs2oCZlDm5arCqzX8XsTGDPSr1+Y7Uoa92BNYuW6PWLy7AwsxEb1fRrdsZh1huvIl6v7ZI373FtNjTbgn1HIzD+Z4txnRy9di5uGR+Bo/u3aLVERES9WegGW7ZMjB8VgfpKo89WLCIigYhRUagzmhDL65GQNRupNu0NfULFomxUqNfAEuwXAVXUoIXaWPzUUYhq3Y+KMm0UFe8fBiLjkKCPIuOq4agpdE7fsKwUNZGjkJGtCjRL8IoMxowArZu8ec8vsPivwA1Fv8Kqn6XgnzILtlZVEhER9WIhGmylYkJOGrC/GLuPqyKlvrwU9eo1ju9GlT0CUY52xj5gcZmpGfAoZqWocqHhRKMIrpzBkwyuUL1XBVcLET8ASC5wTvvg5jlI1uqCT3acXzW1Gb+Rfbb+2oTxP/sVVj5gWnkiIqJeKgSDLRFozclCQl05thw4o8qkM2hrBfpHxarxPij7VdxZILNTRjOiaio0fNSIFtgwbokRiB3GRpcMlXlafRiDUpUJC5pr5+JaeYXiC+vxTzm+dpUIuGphG/9dvVmRiIioFwuxYMsZaLnrBF9fW4+IURMczWJah3lbPepcsl+9mx2nP1IvF5dZMlsZsycBOx81BVLmJsc1qPjQjuQCd53izTrXQd63CAwYpl4K141KEpvSDMuNMG55HIWFhSh84mZVQEREFP5C6j5bESNnY/qojm2C9eVrHc2J1vfUY/cGU7NiDzjX99nKWG1qOmzdgT2nJ2F446N4ZtkaPfO1ZBKiVLXuMDaagi55NeLCTFMnN9mB/ns3okGN6sHWHCRXbwio39a3HliGn413/exM99tasBirrhcBlsH+Pn5zs8p0OdyMxwtvwFD7e3j6lhXYrkqJiIjCWcjd1DTUhfJNTWUglmUEXooWnCGwwOncmYylL9yFq5v+goJ7X1JlRERE4S2sbv1A3ugd4K1WYlQK0NJo7tgVmiYveRmFhQy0iIio92FmK0Ah/bgeN82ILTutmS4iIiLqWQy2AsRnIxIREVEg2IxIREREFEQMtoiIiIiCiMEWERERURAx2CIiIiIKIgZbREREREHEYIvCx+gsFN2Ti2Xxalxjw7Jb5+KJ0Wo0nMntu3UkpqhRV/ML5uJP00x3/z9XfKxn1yTiiXvmis9ZDq6fdThxOS6Dus+6l7vjbMq0XO0z6RV/Z32B2+9KOpdCLthKmLQAeXPUkJMJ5wNgYpGaY6pzDLORGgLnn95C3nH+zuUL1Vhv4SMgix+JP92Thflq9NwQ6zgxEUd2HcA2VWIh1nFmUh02bbWrAh+0L1sjaBFDQaKqCHV1uPfJ9ch/shxHVElYGp2OsahE8T41HmzddQwHepyFs5D4u6e+IrSCrcE5mIByFG9YK4ZiVCEN0yelqsozOFQqy01DuXwq4lm09YHvBTK04pjzQY69R3wiRng5OU9JSwYqKvGiGvdpX7kIWGTQIocS7I3OCo2sWB8xP9VL4BzCPB1n27aWaMfSvT0VPFI36KXflWEqpG9qqj10+vJj2FK6E22qzExmwdJai7HlwBlVEnzn/qam6kHRagyOB0YvRM4bD2D4h+Y7xncssz6I2o49K8egtMy13MT8QOrFZXiwYLj+WqgpHIpXVqkRWTezEWt+D8w27mLf4WHWnXvItXcya5WL6F3lQHYWhmlldSh+slw7YcgmkTzT868N7RUl+OHWSDwhftnq05jZsXddCZaLLyrZfLII27EpJtcxnyNl5pOOvvyxjl3nXLZBzuPuDDjm6Y5cz5lNcp3c/XKQTWvpaHZMb2yz68nP9X1OHefv73o7jwnHdsus2cRmFFcnI0/V6/vTue7W/e7cnxqZUZiXjn5qFLUiMCysUyMGz9vicb385G16j+sttzm1WQSt6WKfifKyGozIFttgr8RTz7sEVdr2RWOTeX92ep/5+qwrET3P+zEsef08HNztc1lmzN91OlmXhOaKSIwV29ReUY6DKVn6/nG8zzy9wdPy3ZD7LduZlbUcg9mwHrMdylyW7TjO3K2TZF0v63FirTP+nlZjsuM9/h6Hcr6ev1Pk5z0Z2Gj+XF3+Nl3/fjQd/34ptIRvny1bJtIS61HVg4FWKMhYPRb7ZwzFI9qwATUpc3DTYlmzBhUf2hF15bVwNtOnYECkHYffVsFX9qvIxrNq2qFYsxMYd/ur2vsblo3RyjZW64/4Md7jDIpEoHTVXmd54WEkF5RBxBBOkZOwcEkcymX9yh1oSclBjvjy6wnDxImveZ3K4tgTMVNlcV4sNMr0LzQj26Of5FSTlThhtWtfVka99UTQLyNX+2LV6srqxLKcTQ9Tpk3G2GZzFqkTX3g+mm6mTEvHsNpK0zrZcawZGDjAGTB4l4jRSXYcrHLO39d66yeaVtM+cTmR2NKRF1Op14l90i8j3bRPxEkkWgQharqnKoCx4sSh14sTnThRnHR8FuU4khRA1k3sq0Xe1ssHb9vlfb2FpHQt6CmutWFsth5MHbElY4pLv5j516S7z0J2ap/5+qx9H8M+t0vpeJxJvpp1EzFWbpO2PVmO/TMiTV/f+QUiYJBBjpyHto7y79DPQEseK6m1anvEYP7b21cr1kcc16auAVMGRIqAqtax3+cXJGGfMa06zvSuBH783YvjLE8ERMaytX02y9rnTn4v3K0+z6cq7Bg20f8+ed6+U2TANVb8jbj7PtOCsVny+HJOqweCDLRCXegGWyKYGj8qAvWVHrJao9KA/bshGxL7kopF2RB/98oS7BfBUdQgvY9Vw7JS1ESOQoYR4Cwei+TqUi1zpSm7Ea+YnpPY8PZ+tETGIUGNe7cEr5izUav2ogZxiLcEUzJTptav7C0cbrVhwBVahSLmYQnguo/zC9yObdV29IsRX7zdRZwsHBkI7Us+EkPMJ9ikpA4nLjO9CcbzCUY23fQznSSsbJiSYsORQ9bMz5EmI3CSv4RVf7R4Gwaamg7kSVbvsyVPeK4nUcHjeidq2ZcjZV6+wGVGx8hGWfaJmtbUhLZt63bthCFPjNoJXUzrbC4VJz55ok5JDKDzuPUk6z9v2+V9vTWm9W732KTbMbB16OQ+8+ez9syP7dK4P858Eyf6d9Q0ls9VkvtCrL8xz4Y6HBSb4v+PBHFsmDOeln0mgiQZ4KQaWS+5/nCui/BioflzrpOT+7/shgO41/TjZ1tVDdpt0dZsmOnzdFvvjY/vFI/fZ7K7gc10fGnT2hB9mT5KoStEg61UTMiRwVQxdh9XRWZaVqsNx+r6VlZLI5vrNh91DLPEF4yTDL5sGD5VD74yrhqOmvfNgY1sVnRO+6DLQ6t9kZ3nncs2NWUaWvejwgjssAal3zM1M/Yqzi83GUgV14oTmuqI7neGxkGeDK0nCQsPHa23nW7Vv4DFl290s5jWOInYm8WXr87oZ6P98m5Kt1wN53W9tRO5Hc2n1HjAfEzbLE4g6mXAxEnwh1omQHX8D+QKP5/b1ZVt1rnPDvnD87L9+ay982O7gtKhv1V+1M6AyDVQ8INsrtN/MMjB2vSnBTjGDwatz2MNtpn3u2xWdEzrvjuBZ3pg65i+Q7OdCLir65zHsTwuXbLDgfEzYGqw46R4r5E5lNHsMBlIduvnRsEQgsGWCLTmZCGhrtxjXyyZ1Yqo+wCH/P+b7R2yX8WdBSKAKlRNeWKQzX5mFe8fVk2JKzEq5TD2m4KdjNUPYBx2YI2aVmvqU3W+yD5ds8T8NhrTyiZMVdf3WE9eelOlHMpxMiM3sIBLflnaXU4SJrKjteVL3XCqGe3RNsyXHZoPVaI5JhFTLotGPw+BjLtf3h7XW/tC7wrXE0ckxKo6iRFzgKQ1/wTC1Pm/uDkdd/sbcPncLh/r7VNns0OSl2UH+Fl35Hu7PB5nXaI3gSJJBT0iYEHFdr8DUa35M8nczOfSlKllyvQMndax37z+sl9TdiLMXQeKa1WdH+YX5GrBp9H0ajSBBo+/gb4ewMpmSG2fatvIJsRwEGLBljPQKt5xSJW5UFmtqv0e6ns9O05/pF4uLnPJbAmyeU82DS4ei6idr5maHJXTddC/6xYi5/aOma36Rtd+XyatjY5m24zVbjJbPskO8kfx4OqVaryn6F/6ziYHF9pJ2LVZxT2tD4rH4Ej/InSlN+e5u+eN+PXcxds9DIlpFb9qxfaJTyMvNRLtTa2qxkr2I/LcVOm63rLJxdahj4p/9OYac/8Vc9OhHvSlI8+xrzs2cwXC2cRmIk+08kTUIQjztl3e19svnc4O+bdsr5+1x2PYj3n7cZx1ipqvuX+c+YIAv5iyd9rfnnqt05vYBg4QwWdKq5v1NwUwo7M6ZrZ8/d07glm9n5RrZssXIyvn695k3r9TXKhjzBEEiiGQPot07oRUsBUxcozefyhR/GGY7qU1YbBWLcQi9Zo+mtWSym5EebUN45aopryZjdjjktmSTYllO+MwqyDO2TFeqXhddlqfo5oBH8CADztmthqWPYs9mISFRnOhCoz0/mDO8qzGHWGV2ZL9N2QHWaNZwJp90vsNOZqmXAMj03RaR2PH1WcuTQ1iOtnp3O8TitasIk6GHr4svfblkicKEbSMhV7/4qFWDEuy4eRpfdnO/lpqvWFciSX5Xm+Z9dKyRqZ5+DppGFyn1TqkG/tMNresq8RAx77OwsCKEucJw9H0I0+ssqOwfO38PFy3yzJvP3jbLq/r7YeuZIe87zPvn7XO8zHsa7u8Hmc+Pg+vxGe9ydRUbQz+Zn63ba3EEbHdxnrPbBLjqs4g33MyI0scvy7rry3bWF8xTGzG3g6ZLS/77J1KtDv+7nMRXd3NmS2P3yk+7KvEXliPXzn4+7dJ505I3/ohFJ37Wz9QT5Ind+2KI3NH3W5iXD7uPjiTl6e7v/UBhSCZTXO93UNYCOJx5m6faGXJONiHj+sufafI4FcEjpbgTJa53gaDQk7oXo1I1MvJjIPnLJj41e3lCkYKMV3uIH2uBPE4k/3K1EuDlkXz6ypKcsdd/0aZUfX/Ygk6V5jZChAzW31LMDNbRL2d9WaqkuzDJYJSLcPluR+U6w1fe5OufafILgDmmxEL8hYUATR307nBYCtADLaIiIgoEAy2AsRgK7S8cFs+ovpdosaIiPqm35XtxqZ9Ha6YohDBYCtAXQm2iIiIqO9hB3kiIiKiIGKwRURERBREDLaIiIiIgojBVo+7Fb/PL0WZGH4/SBURERFRrxVyHeQTJi3ABOMRdvYqbCndiTY1Klnqhfrytdh9XI30gG7rIB/xMIpmxuDNojvwnCoiIiKi3ie0MluDczAB5SjesFYMxahCGqZPSlWV8tmJs031YiivR0JWjv48xXDTthUftsXj8gg1TkRERL1SaAVbx0tRvOOQGjmD+o/bgMhYGPFI/8gItLWeUWNCW4sl60VEREQUasKqz1Z9bT0iRuVhwmA5FovUa9IQUVeNeq2WiIiIKPSEbrBly8T4URGorzT12ZKZrw3lQNYC5M3Jw5CPi02ZsHCzFR/b++HKwdPUOBEREfVGIRpspWJCThqwv9ja+X1wjgiyxqClVPbZKsfZUXnIy8l0NDOGm+d25+BN2/0oy/8zVrDvFhERUa8UgsGWCLTmZCGhrhxbDpj6Z8lmw/QEtO3fgkPaw+APYbcIuOptaUjTmhXDzTSsmFmKq47lILvo+1jKzmdERES9UogFW85Ay1PzYERkrHolDE6BCL/QEraBSjuaGGQRERH1aiEVbEWMHKPfxiExC3lzZL8sfdA7xJ/BodJy1JvrsvqjqvR1lekiIiIiCj0hd1PTUNdtNzXVmhF/CuxiEyIREVFvFrpXI/Z2EdNwZUQD5K3EiIiIqPdisNXj1LMRZ44Hqgr5qB4iIqJejs2IAeq+ZkQiIiLqC5jZIiIiIgoiBltEREREQcRgi4iIiCiIGGwRERERBRGDLSIiIqIgYrBFREREFEQhd+uHhEkLMCFRjdirsKV0J8z3/fRVH2y89QMREREFIrQyW4NzMAHlKN6wVgzFqEIapk9KVZXy2YmzMSFSBFha/VrsbrXWExEREYWa0Aq2jpeieMchNXIG9fJZNpGxiNDGU5E2KgL1lc5MVv3+KrQlpugPryYiIiIKQWHWZ6sNLeY2Q/sZnEV/RNjUOBEREVGICd1gy5aJ8ZZM1iHU1UUgbZSz2TBhUhazWkRERBTSQjTYSsWEnDRgfzF2H1dFQv2OctQnZiFvzgJtSKwV4ziLNrt6AxEREVGICcFgSwRac7KQUFeOLQfOqDLDIexWneO1DvJtsehvbxHhFhEREVFoCrFgyxloOTvKe2DLxPScITj2Ts/e+oGIiIgoECF1ny15a4fpo/RrD83qy9dqzYnW+nrs3lAq/t+zeJ8tIiIiCkTI3dQ01DHYIiIiokCE2a0fiIiIiMILgy0iIiKiIGKwRURERBREDLaIiIiIgojBFhEREVEQMdgiIiIiCiIGW0RERERBxGCLiIiIKIgYbIWYGcsfwubNv9aH1TNUqYvseSj2Vu+BNu835iGwqYLjJ6t/jeLlw9WYPm5st7m8u00f8WeUTbhVjelkWdGIaWqskyIeRlF+Kcry/4wVHR+CQEREfVhoBVvyeYdzFiDPGHIy4Xreko/scdTPyUGCKu8tNi97GDNm/ByP7uzhJz4uvkMEOnfgJ2pU464sSP6w6Ofadr9erQqCYdCz+F9pDfjz7udVgW7LwTfRkHY/fj9IFQRsGlZMHA9UPYbsou9jKR/WSUREJqEVbNl3YsuGtShWw+7WNEyflKoqhcE5mD7qLHYb9XUJmOAmIOv1ytYhTwQmMxZtVgXk2634/cQUHN51B55TJU7P4/ZN7yJ+4rO4TZUEJgUxEe348PhWNU5EROQU0s2IZ1vNKYJYpKYnoG3/bsfDp+v3V6HNNgQJNlUQNobj0TeczWaBZI98N7f5P29jXs8tVgW+aJku57zN08kmSrk+5vWzzte6XrNTVLG/LMt+CI9mq3LBaJI0N8G6btP0Eddh+PFC3H5CFbhqewhvHk/BdV1tTiQiInIRwsFWLBIuj0B97SHHeJStDcfqzqjxVEzISUOE+C8qrFJbMui4DRNPv6k1m+nDs/iDqvXFe3Ob//OWAcrsARV4VLzntlWq0KsZeO6qKud8C2sxvMAayPXPvA05jc9p9bIZdPhMZ/+wn6y2rldAzYWyj1pBDHatNJbdhIlLOi77gbh33C5bNvPNGNIPh49Zmw9dPXesGv2HTMN0NU5ERNQdQi/YGpyj+mPlIQ1VqDquyh1ikZoj67OActmUKE60UbGqLgwsvg4TI2vxejCaAP2c9wwj0PreOljfmYTZjuyRGAqSVLm0GbeZ57uqCocRg8tNGSZUv4m8ZYe1l5vfPoyzkTG4Qo6IYCknpfPbPGPqcGDnOjxQpgpWvYldrUnIMGevWsX2qPlblq3Rm/mafPWlamvC2QjzdH6KuBzxaMDH7KtFRERuhF6wdbzU0WeruDIK0y2d4COQlpOHqErVZ+t4LCIigbMtRrYr9M0YFCMCgyZ8pMa7k1/zjszAxBSxzz7c7RJoSSIgUpknPYNUq8p15ibCzZuvQ/CuGbS6Ii5Cy1w5l32bCCpVpWLZHq1PmymjpwVDfmj7WIRM8bjc70zprfi9vAJxIvBMkbu+YERERCHeZwvHq1GP/ojQ+mSdQYtdnA/3F4sgS6sV9KbFljDKKGw+0aRedT+/5i0zQCsrABG8+N1XS5D9oWbL7JQjGHsTeg6rZ5zdqTdPmgf/mj8FLYjyQ8AZqudxe1EOsncBd+Z3tnM9ERH1diEdbEWMHIME+zHUiyBLBlv14iwYMWo6UlWHeGt9mJDNb5EZ+K9g3EvK33nLzI/W58ra0dwnU9bsJ6sDyGyVnRQhjLPZTw/c9Nf++MP7teifOS+wdbWoRlNbP8T4ylhFxKB/WyeyjgFnxIiIqC8JrWDL0V9LH6ZffgxbSnfCSDS0HXgdW/YDaVqfrY714WEzbpvxJhoszWJGZ2/nFXsPZIozd8p1er3j5qUz8JyaRgYrRtOa86pEb/N2sepZPLoTmLjEv5uIbl72jhbIPaDmm9NYEUBmS6yXFtzp08qO7Nb7iPnYLrGueqd4Y5vk4Pkqy462YvOxdgy/8mGvnd9vG5KCs8e2YosaJyIi6g7nxcfHf61edxAbG4uzZ8+qMZLy8/NRVFSkxih8yP5VBcCuHPe3f5B3gJ8Zgzc71fdKzvs6NG3iDU2JiKij0O6zRdRtnsftu6ox3O2NS0WwNHM8Gtze8NQffjZTEhFRn8Rgi/qOE3fg/1bF4/sdno14HeKrHvN8w1OftmLpLnkHej4bkYiIOmIzYoDYjEhERESBYGaLiIiIKIgYbPWgoUOHqldERETUVzDYIiIiIgoiBltEREREQcRgi4iIiCiIGGz1Ks47sW/eHOCjeLrVr/DFLyvx5SA16mDDslvnoqggUY13jynTclF0j5ivHDo779FZYvpcLHPzxOqvbqrBF2PVCBERUYBCK9iyZWK66XE9eTmZcHfLooRJsn624xmJZJCP6wniQ6Kz56HY52NyFuLLu+bg613P4AI/71ulBUu3jsQUNS65K/Nk29YS5D+5Hk9VBOchmedv3oGvr3cXPBIREfkWWsGWfSe2bFiLYjXsbk3D9EmpqlJKxQQRhCW2VoXZ8xD7jq9z7sS/sQMXlq5RJR21N7WqV6GmFcca1EuzE/Pwjb824t8/WAePN6UjIiLyIKSbEc+2WkOqhElj0FIqgrA6VdAnmZsKxeB4SLV/Zix/yDmtS5bqJ6v1hz+b3/PcYlmjlrkkA/2RhNmO6V2bKn+FLycC33htHs5TJVZ2LH9+PX64NfAMlKWpUAxPjFYVfknEE6Zp3TY17itH/pPleFGNdrB3A76BSfiSzYlERBSgEA62YpFweQTqaw+pcaB+x+s4FJyWorDxk9VpqNCaClVzYcp1KiDyw+I78EBmE15X0z+6Mwaz35gnQimn/pm34YG4d1R9G4bPlPWqeXJlBc6i1jH9jBkP44EyNaE0diy+aNmP8zv92BsPRmfh7oxWFD+5XmsuzC+rw7Bs9/2r3JlfkIR9xrQioDqSlBVgsCatwfn/tOOLK3+lxomIiPwTesHW4BzVZysPaahC1XFVTpo/LHoWf1CvZR+timogftBwNe7dT65KwuFC5/Sbl72Dw5HDMcOcnWqtwKOLNmsvN799GGcjY3CFNubb13FxwJk6D1ktH2zpuNuUfbo7w+iQZ8OyiYlor6h0Zp32laO41oYRaf512nux0JyxqsO+WmDggMA7/J3X2Ch+AySyKZGIiAISesHW8VJHn63iyihMn5ODBFVFwuI7HE18cpidosp9Go7LB4j/Fzin3bz5OlFqdfbD3SKEU8rWIW+GObjz7utOBDAO9ko85cg+dezsfvJ0F1Ka2pWGzkAuL0mVB6q+ERdExTHYIiKigIR0ny0cr0Y9+iOCVx3q5NWABTI7ZTTj/RyvV6s6P5mnddsU2AXndSUg8sGaibJhSLR66Uv8SPwpOxFHypyBXHGtqgtUQhy+bGnsXOaOiIj6rJAOtiJGjkGC/Rjq+3g/Las2nPlIvVx8RwCZrcPY/GEbhhf4unWDF2Un0YAkZHjoIxacZjY7tlXb0S8jHfNVCUanY6ytDpv87mhvR/Mp9XJ0VqczW11qJiUioj7rvPj4eI/nxtjYWJw9e1aN9QDZXyvL1Ghor8KW0p2O2zxEjJyN6aNc77zVhqrSnus4n5+fj6KiIjUWGPkg6qNHj6qxzpFXDDoCrNYK7DqdgZGNzyFv2WG9ibHANZJow66VzuyVvNLwgUzTPpR9tL63Tms6lPPOMebliWUZ1nnrNzOdA/w1GRfuVUV+kFca3p1Sg6eeP4BtHsq0cUc/Ljv2rivBcu02DfJGqbki+NIqnGrLkV+oX7Y6v8DUdGivxN7mdIxoKgnwqkh5/7Cl+Hp7YNtGREQUWsFWGDjXwVao+zqnEp99az8uftrT7R/C1NhN+HRyY+/bLiIiCrrQ7rNFYee80me0+1F9kbNQlfQCg9bh39fHebl/GBERkWcMtqibrcEFT2/AeRPv7DWPt/lqxiSc99d0vx8/REREZMZgi4LgF7jwl70nODn/FfbTIiKizmOwRURERBREDLZ6UG/vHE9EREQdMdgiIiIiCiIGW0RERERBxGCLiIiIKIgYbPW4W/H7/FKUieH3veTWCERERORZaN1B3paJ6TlpcDxMxuVxPWKNkJqThzTj0Sx15SjecUiN9Iyu3EHeIuJhFM2MwZtFd+A5VURERES9T2hltuw7sWXDWhSrYXdrGqZPSlWV8tmI0zHk42JVX476xCxMHxmrasNM21Z82BaPy10f9UhERES9Skg3I55tdea0pLYDr2PLgTNq7BDq6kQAFhmmwRYRERH1CSEcbMUi4fII1Nf2bDMhERERUXcKvWBrcA7y5iwQQx7SUIWq46rclXjfhMQ2VO0P12BsKz6298OVg6epcSIiIuqNQi/YOl7q6LNVXBmF6XNykKCqHGRH+qwE1Je/jkN2VRaGntudgzdt96Ms/89Ywb5bREREvVJI99nC8WrUoz8ijKsPJXXFIvYXY7enrFdYmIYVM0tx1bEcZBd9H0ut3dOIiIiolwjpYCti5Bgk2I+h3shemQItZ0f5cNaOJgZZREREvVpoBVuO/lr6MP3yY5b7bCWM0u/BFTEqz/S+2Ug1Z76IiIiIQkho3dQ0DHTbTU21ZsSfArvYhEhERNSbhXafrd4sYhqujGjAxwy0iIiIejUGWz1OPRtx5nigqpCP6iEiIurl2IwYoO5rRiQiIqK+gJktIiIioiBisEVEREQURAy2iIiIiIKIwRYRERFREDHYIiIiIgoiBltEREREQRRat35Qzz6Uj+TR2Kssj+vRHueTlaBGhLpyFO84pEZ6Bm/9QERERIEI6ftsJUxagAnwFFDFIjUnD0M+7tmHUjPYIiIiokCEdDPi2VZvz7I5g7ZW9ZKIiIgoRIVwsBWLhMsjUF/rqZkwFYmJbThW13NZLSIiIqJAhV6wJftlzVkghjykoQpVx1W5EjFytqrPQkLdBzhkVxVEREREISi0n42odYgHdm8oRb0qMpOB1/TLj1k70QcZ+2wRERFRIEL71g/Hq0WQ1R8RNjXuoq3uGNpsUeIdRERERKEppIOtiJFjkGA/hnoPTYUJo9IQUScDMiIiIqLQFFrNiK730XK5z5bWbDjKcRcu3meLiIiIQl5o99kKQQy2iIiIKBCh3WeLiIiIKMwx2CIiIiIKIgZbREREREHEYIuIiIgoiBhsEREREQURgy0iIiKiIGKwRURERBREDLaIiIiIgojBVkgZjkff+DWeW6xG+yzX/TADz23+NTZrw0N4NFsVd7tpWDGzFL8fpEbpnJg+4s8oGjFNjXVSxMMoyi9FWf6fscL00AkionMhtIItWyamz1mAPGPIyYT778lYpObI98xGqoeHVFN30oOf4uXD1bjkrixYNuO2GT/HjBlv4rAqCYbbJtyPCfZC3H5CFYSAjNVHcefyhWqs+/R/7DcY85p1uOL+VFUbfHL5npa35eCbaEi7vwtBrwiaJ44Hqh5DdtH3sdR43hcR0TkSWsGWfSe2bFiLYjXsbk3D9Ekdv5AjRk5HWms9H0BN3WfQs/j+4Gr8effzqqD3+2TP7/DBD37mGD56rGefM+rZ87h907uIn/gsblMlgUlBTEQ7Pjy+VY0TEZ1bIf1sRO3B05EfWB82LbNfOUNwrPQDROWMQUvp6zhkV3U9oHuejSizQrdhYqQaRS1en/Es/qDKYze9CRRcJ8bMdQbZpGbUCdVvYsaizfrrxXdg81VVeLTxGjyQqecEz+58DnnLnPmgn6z+NWanqBHF+R6X9XLMWy8f+aF5Xh3LZix/yLFcoA27Vj6MB8rka/neecDv30HsEj+3Szhc+HPctkqNaOR7rsEZx3wNntZb0utiN/0cFVcZ225eN0k2H96PmA9z3Ga14pd/gIWZRgr1MDbOyEaFfLm4DA8WwDkuuZZp48ZW2bFn5RiUquXK+c7GsyiPewCz1GdSUzgUr4htti7TpHoDHlm0RI0I03+J1+4dD+z6NX7w8Fuq0DeZWUo4/Tu3AdZF9z+CtNSPUHXry/jcU9nNd2NMbrJWJ7fr+LMP4vQ2fUy+NwmvoH7AT5Gi3nK65Gc4/pKazzg321VTgg/u/7sa0d02oRTX2R9D/sFAg6Zb8fv869C0iVktIgoNIdxnKxYJl0egvtZ8MohF6jVpwP4tPRpgdS8VGJwWAYHWNCYHc9Ah3lEgAwpZ/hx2tSYhx9RU95PVaahwTPcmDqdcZ+3jJcYfiHtHry+sRf/M6/ATVSWDsdkpMsgx5i3KRGBiBEs/WW1eL1E/4Dr/mwmz5+EHWKem/Tke3QlMvH2eCI8MEZi4xNN2yX1yHeJF0OdYtlw3P/mz3sMLfo2cRn3+r1eLdZntXDNETMOVEdV4313zoQiWFmY2iuBpKB4Rw5qdcZj1xquIl3Wr9qJGrPso0/6PHxQn9ulePdDKfhV3FsSJAEuf9pHCRoxbUoYM7Z26qMwHkNX4qJq3Hckz9Xk3LBujlW2sBlp26vXaYA60guTzf3yET2xXwDZFFQgXDbDhk0P/0AOtKT/CFbkxIsBSWbGSJgy+4270196pu3TcT7VgTtZX7bFjwOQf4SJR/vljD2pl1TUumTWXQEt67lg1+g+ZhulqnIgoXIVesDU4R/XZykMaqlB1XJVLgydoZe8eOKMKwtDi6zAxUgQ8jsxLR4cLjazLYWz+sA3945K0cukPi8yB2WZUiJNx/CBTYNFagUeNea+qEnOIweWqQ/lPrhLzqa5S0+vzxoCBKiCagQwZiDnW6zAe2CSCtSsnOAKm/pm3qU7qcjBlkqSydbjNlEHb/PZhnI2MwRVqXPK4XXKfiPDkt6bp/ed7vTWmoPIP79eatluIiEH/tiZ8pEbNMq4ajppCZ+aqYVkpaiJHIUPbp0tQJgOkq1ZqdcBCZFwJ7HldD4jip44Cdj7ryGRh1WvY02oNzmSm6plla7SXDW/vR0tkHBK0MT9t+SV+kJsbUFbLIAMic5+twTerim0vo77GhuhvG03430Fkcg3qVRbsom+LT3XPK45MFl4qwXF7MiKN6aWaEkfWTA/eYrVgKyDiMzkrPhvzMeSXiMtFwNqAj5nVIqIQEXrB1vFSR5+t4sooTJ+To04+qZiQ1R9V7+xEOH+HzhgUIwIi9yd2v8imQkfA07FJ0JuPGsWeS0lTma7hmHFlBM5+uFuEbEL2QHGCSsJs07w3FziDPEk2NxqZq47ZJ5mdMk27JMOS6QgaP9ZbOvy+Kbhd9SxmfG+dvt3CdJuWp3JjIeIHAMkFR/HgZmOYA6PxTNICpJSxerYq+1qxF/ajQgVXCXE2LXPlnPYBjDMHqOeYa58t2cxnOHugBpemflsPkG4eiQE1B2B0KJBZLmug9lMMDsaFKm0fi5ApHpf7fTWhbD4sRdlE4JmiO/CcKiUiOtdCuBlROF6NenHKjpBf5INTRNAVgTTtKkQ5ZDnH3XSiD1WbTzSpV52QPQ/FIpCQfZmMoOf1alXnB33ZRmBym5tsktHEaBpMQYk3WlOemN+jxnQrKxwn5+Dr/HpLW+wN6pV7sh+VoxlPG5z9rlD2Fg6rbJWWyfrwLREgOFmaANUg+2SFvJcO4LRqSuw/MhmnD1ib+VwDNddgrVsEnKF6HrcX5SB7F3Bnfmc71xMRdb+QDrYiRo5Bgv0Y6mX/LHPGSxvKRSDWhqpS8drcgT7Uyaa9yAz8V6dvmdCGM0ZaTOuDpV77NByPzrQGapaApGw3DrSKQGy1pfEtMKdPqvmJZd0eQGbroyacjRyOGUZzpwzc/M0Adcd6e2yuWoOKD+1ILrD2s7LS3xM1aCUyrmxEuWoSlCreP4yozDuQ04X7gtU3inlfea0IOjyQHeRLSvDaQ9eqgu7yd7TW2HDx0O8gMmYvTrlmvcbdhAGmPl3/f3v3AxXVeecN/Js2NV3DDCxQwoh/sCDvjvBWqQaLwaQByWYO7noMVd5jjslpNmpiTLd5t7W8anpyEnWJ291uN8ZUTdMTc+JZNMTjvnrGLWKahEqlWjSvyq5ChSAZQtHCQNzWbZP3ee597sy9w/BPuHDB76fnns59npk7dy7E+fJ7nnvvUN3oCIYrZ33pZ3i3X0OuiBER2ctZYSs0X0tf8qdfwXH/+B427E1eM+oo2izzn9aHJ7H3p3If/HJyd6l63eJrODnoypY+l0lOFA+/r1jeNiaxi/6H9Mnl5v7BTpD/8YE69KQZr12LhAtDqGyJz/UvckK9+lxyIrulYhcaOpVnKxqf37i46fD2W9P9Di50p+HBKBfSlBPVtUnxoaFAsRgT5BU5j6sztwTzO9TEeMPOQjUp3vTaqv6CW29tm3fgFBZitfH63cb8sOGLnLMVed2rnsOnMbmoCJONifGG13+oJsWHXztnv3WC/EBubH8DrZgHr/H67Q+onrC1U9PQc+UdHFfrRETjlaMv/eBEI3Pph7GgnwUpL4EQvpyC3ma9pMMtasoOba7PW5zr4wzyCvCL43H0pn4evPQDETmLs+ds0QiagYTIobnCHGSKtraPbvGgJX20Hm+1puEbOY+rBho7IiwtvhttJ282+DbiWvediOcwIhE5BCtbQzR+K1uCHI6LOFOv94VDb2X9X9yURoe8N+LTePkmLmZqolXG7kYMPkEtK1xENMYYtoZoXIctIiIiGnUcRiQiIiKyEcPWKJo5c6Z6RERERLcKhi0iIiIiGzFsEREREdmIYYuIiIjIRgxbNDIK38TTN3mV9IEVYFfo6vDGlePtsBp/+nYT/jhPrTrdlH3472/vQ5+nExMRkSM469IP7lzk+7wIXYswWG+9XU9kv9RSPar3RhzOpR/kBPnLly+rtQlKhq7SJFQXFFpvXTMiZOi6B1fLnsdG40bQI+jTVU24gXJ88Y3vqZaxl737MvLat+El0z0XzZy4z0REZOWsylawBsdNN5uu7fIif6H1fm1aADM9Z1zdhJqca94x3EhrwKRxFlo+98ZWfCGhZPxU44iIbkGOvqipK3M58mPPhgOVrGzdA/xqDG9O7YTKVvKWs1id61ZrQFPFTLyhrgI/UN9y7EB10kYsSdPbzP1yGM339kbMD93WpwGHTRWq/rYd0mdlK2LbjeV4YU2pWhmsvipbsl3epFrpqsO2h/ahSq2icCUOlWZH3Ci5GQcKduDH2mM5fLgJn72fittPaw0W1s9tOibrKvFsMSzHqFebtm7sWRCnyubAr/a9v59H5LEOiXbcRFD8/aJ23PHPK3GbajIsKt2Lb98N/PpfHsHWd1UjERGNKgfP2UqAZ7oLgWZWrsz0L+F28WU+Ey+oJRR4xBe7pa+iAanFZ+EzzXGKy92oDUvJ/j01QaQufhPJqi95y3rM7xBf5sbrI0LEQNvuT/ZuEbRC296GU4kleHrLatU7HPJm2g8iuWYXCgq+K5ZdOIlsbNxdEO5/Mhsw+iuaRVs3TpYZQUuYcj8+jWvA56IErcjPvacmCUveVsds52k0ie1nrdOeqUmekiQC0Wn9uMngWZwkApZxzNoxv9Q6n62vn0fb5jla2+FGoLNG79eWaAH19GncHpeFT6eodSIichTnha0UH5aWPCaWpfCiHvWtqt3g9iJf65eLDx7VfGsoQ2GuG00VkVUjaTV8i9PFF/P+cN/OQvFl7Ub6faZQ01gemv/T9u45dMYmWY9h2rwok9sHue0+lSErrQGHQ0FhD/zHGhA3++uhoHfT1j2IBbHN8G82bqbdgI2v1KEnzYsn5Kp2s+1unH9X9e+sF89wIWGWvqrxJOFPne29qkJS9tx0y/Fu2+xHU2wWsrWQWYpKGZDmlml98jhlzwZOHdA/Z/J9WSLk7QhVsrBzP051WcPZgD+PQWnAbZ1ufBblhe+XPYLiYla1iIjGkvPCVqs/PB/rgzgRrEyBKmJO1/FzMci5lQJX4TTEIYiOS2o9is6Pok+kHgxZTTncmI4l6qzCyMrTTW9b2+/wdrUlNLQ2Arquoc9DUvkx2kS4yrxPvd86r9iTZtSZhj8/S0pSjyKtRnIikFps2u+qEqSqXkkLSEZALfy62PY51Klw5Ulya5Wr8GvNQ7QjaQ9uuyo/x0hUComIaKQ5+9IPrY0IIAauKFNXpO6WK2M2d2tMVLagUz3sS9wU8xeuHhaGom6NGq4qKEenCArmwDW8bcu5Tsa21fLQwyIIjYDYeJgLVZgVb5qf1YyrXUBM7lr90hHFM9BQYRpCFG5rb1ePopPzqCz7XRCed4XKn6NBVau0StaFn1s+k2UIUC295rkN22p8liA/x80HbSIiso+jw5Yrcw48wSsIBFWDRQIy7vHC1SID2a2iFOca3Zj/ZHieVdge1F0IIi53RXgYcN0KzI9tQHUflw3oXyM6REjRDXPbKpAs2W0Mt/Xhmz9ARUUFKv7xUdUwCNqw4Az4thiVsnRsWzwDPTVH9UAlhxlRh23afC59WRsZdgLt+HxcUpTrVemfO7W4v+uGqWMzpQzZs9stx6PuTIM4ZusHPa8tmkC72PaAw63p+CwuiNui/IcgJ8jLY/qDb6oGIiIadc46G1HO18ozDQpGXGdLOzsxK3yVre5zh3D8/FW1NjqccDaivPaScfaaFHnGYfgstt5nv61O8ocnWVvOHIw8E1GIOPNtwG33OnvOfDZj7+3Lqo/l+lEybC2ZKT7Qv6H4715XjcK69VpFykpOcjfOSow4G7HxKArWGOciygn0a7EgYviuocIcuvSzET/9z634gr93eOz12bpOYI+lKleGVXJ4MdqZgpazEaXwMen/52EYxFmc/ZyN2OcxJSKiUePoSz84ES9qOs7IoLb4mvVSEFp4g+nSD4IMLH8FTHpuscPH1iP1f9kK3LcJe7/1VbQfLsZ3fqraiIhoVI2v7xWiISqYEq8ehT0xd0bvSfWnF2NSYzpurHpRNYwPn67ahP++Wh4laC3Cpp9WoIJBi4hozLGyNUSsbI03UYYRIy96GjJAlchp5L0RVwC3Rxs+JCIix2DYGiKGLSIiIhoKDiMSERER2YhhaxSxqkVERHTrYdgiIiIishHDFhEREZGNGLaIiIiIbMSwNeoexyvL/KgUyytTVBMRERFNWM669IM7F/k+L0I35Im4XY/Bs/Ax5ExTKy3VOHTiolqx33Au/WDheh4HF8fj6MH12KWaiIiIaOJx9HW2tFAFc5hKQIZvKbxdoxuwzEYsbOF+bF38FHDyG9gUmSaJiIhownD0MGJPV0QKSckZ06BFRERENFQODlsJ8Ex3IdAcDlaeGR50dyUgp+QxLFVLTorqJCIiInIg54WtFJ8KUkvhRT3qW1W7CF+uWMCVFYeW8tdwSC7VAXjyliPDrZ4yrryDD4N3YnbK/WqdiIiIJiLnha1Wvx6k5PJBHPJLfPCoLilQ7UdAPUZrLeqDLsSFZtSPL7tqfTjq3oDKZW9h6zj9DERERNQ/Z1/6obVRBKsYuLTK1VV0dwExcQla1/gnJ8j7MfeKD4UHOUmeiIhoonJ02HJlzoEneAWBoL4eaA7AlZUTrnTJCfPuAFpCQ43jzSe4xpBFREQ0oTkrbIXma+lL/vQr1utstfpx/FxMeIJ8HlBbbhpWJCIiInIYR19ny4l4nS0iIiIaCmfP2ZrIXPdjtqsNHzJoERERTWgMW6NO3Rtx8d1AfQVv1UNERDTBcRhxiEZuGJGIiIhuBaxsEREREdmIYYuIiIjIRgxbRERERDZi2CIiIiKyEcMWERERkY0YtoiIiIhs5KxLP7hzke/zwqVWEaw33a4nARm+pfBqN6U260a9/wAuqvsn2o2XfiAiIqKhcPR1tjwLH0MOqnHoxEXVEkHeS3GU74/IsEVERERD4ehhxJ6u/u9l45nhQfe5Wt6ImoiIiBzLwWErAZ7pLgSa+6hquXPhnRZA/fmrqoGIiIjIeZwXtuTQYMljYlkKL+pR36raI3iyvACrWkRERORwzgtbrX4cKn9NXz6IQ36JDx7VFaJVtbpxpYVVLSIiInI2Z1/6obURAcTAFXEGoqxquVrOjtoZiEREREQ3y9Fhy5U5B57gFQTMoUpVterP9TGXi4iIiMhBnBW2QvO19CV/+hXTdbakBGTcw6oWERERjR+Ovs6WE/E6W0RERDQUzp6zRURERDTOMWwRERER2Yhhi4iIiMhGDFtERERENmLYIiIiIrIRwxYRERGRjRi2iIiIiGzEsEVERERkI4at0bZuPaqq1uMJtWqrwpU4NFrvNZoiPlfBlu+LY/oP+rK7QLXa4XG8suwtbHWpVboJDyBl/wtIvFetjqkMJL76I6Q8qladzPU8Di5+HvlqtS9rc/yoXCaWnMdVCxE5gbPCljsX+abb9Sz15SLye82z0NQvlpwU1UFjqAC7RNDZtU6taqK12aNq8/MoKPguttWEb+w08u7H1sXFSK5/GZvsfJshWQ3f25exaqSP8b2PYJYlEMmA9CPM2f6AWp+gHn0Gc+TnNC+vPoJJqtt28v37er/u7+No8G78n/5C1JQd+EZKI9466ENh7auqkYicwFlhK1iD4+Wv4ZBaaru8yF+YoTrljamXIwfVof5D1QF48nzwqH4iu+T/xVPid+9XeOk/3lEtt46Y7UVIbDqCsxt+plomsOBp1K/4W5w1lsf34obqGmu7arej1l2MV6aohgj57mSg9Qx2qXUicg5HDyP2dFlLCDGxLnR3XVVrQnen6SbV45MxBHZoS7pqSce2t9WQWMSwmPbct1fCPFDWq00bplSvLc1GjGo2PLHbtO2q72NbYbg9vA8GfV+06pTcrtgX85Bd7+f3J+JzWT6HrIKtxxPa8GC0fmGAz9U/vcpmvN6y36EhSdNzIt8bj2O5F6g9+X0cVy1henXp2Sq17C6ztD+9ZbVal3q3JW85G35tVSWyVbv+3LPwFZZhVZT+7N1yfSPmxwKpxUZ/5PsBX//+fhw5sh/PDTT+1JdHn0FavAggkUHLUgXqXQWzDs1FaZspq2fRq0eTNrxg2nbvYT5rv3VIMmb7jzBrQ4blOdH2Re97Cilu1TwQ7fM+Y/2969Vm3ra+HyHyudsfsOxXqF+rJIq2olTAPQ9e1d/r/fAONl1oRPrsgYcTichZHBy2EuCZ7kKg+aJah3gcgCtrqRo6TEDGPV64WhoR0HrHHxlcNuZew4GC72Lp5gat7Ynda7Gg46g2LFZQsAsnEx8MhYOqdxvQE5uOAhWQZIApmO1Cz4VaVMlVGRyK43GyTL5WLGV1MN9GXL7f8sQ6bNO2LYfdgAWl+tynS+3diEmaoT+xL2kPYmPSL/RtVzQjJvfBQc8HK9jyIPCK2i/5uURs+JYlrM3A8tJ4+LX+o2iIzcYKY3hsgM/VPxnyHkRyzS713kfRlrs2YnhTvHfVPbiqbT/ivaUpc5HefQFVUZJ99m4ReDrK8ULBTLFsw6nEEhV49qDuQhBxs7+OZP2pQhoSY4NoeHePvrquEqtz23FYe+1M7KlJwpK33zQ93435pT50lKltd6UjT4WpujVGG9BUob9eLi9tVtseESI8FAGNkdUdGQ6K4tG6Q1V/jlxDynojGPwMXU1AYqZpyPHRTCSiCV2vq3XxuVKKEhDQqkcvoxXzMMMIHiKUeOdfQ6NRWTrShMQiU6AS7/0lvBGqPNWfAlIesYa1yfOfgjfxfdUfROIio1/O0SrC5FMvq9eL9w5qHQN7/Tw6kIpYU3CbdFe8OPjn1e9i5LaP4LrYD0vQSy0K7Zf8XJPnF+nH7L29uKTarJW1H/b+Pf/oDBpcs1HAeYNE44rzwlaKT83HWgov6lHfqtqlVj8OlVcDeXr/1A8P4dCJcBgbT6aHgtYO/Fi1yQpMdlozDqzRopPQgI3HRKiZnaNXWir3wd/oQuZ9KqQU5iAzthl+I6gtzwZq9mFjpbYaoQArcl1oOLZPD2ZC1eZ9ONk1A9kiWFR9dE21mqtcM5AQ242rl/R2dImgZuzbznqxd/GYHgp+ItYUh6tHVVUPipgTVrV5h2m/GlB1ITLcdYswZRyLKtQ1AslT9C30/7kGII8R6vAv6hjJbe+v6Ub6XGvtqqHiebV963tL2vBM8MMoVa0yZKU14PCaUrW+B/5jDaGA1bbZj6bYLGQbx2jdPKQ2+uFXnyN7broISoVi73S9ni80VcxRz1fhLSlNax+snz+/AkVFK/Bc750fgAhE60XSOtL7C3/S12YBp95Ax3uq4fUjIrSEg0jP4dO4npoZqsrEZKbi+qkjpu0ERVAztnsRwYtBTM74mghEIrAsinju6z9EY5Mbf/41FcZEMGndHv5v/sYvL+G6O8E6z0kGFlWJs/Q/WoQUnEaz6fW9WCpLYgnNU/sZfiuDWyhEZsAtdqn1sKr43fs1/Lll25HPF0z7pYe3eHxxyCcKNOJa952IjxK2ZrnvRE9Q/PISkeM4L2xpgUrNyfogDvklpjlZWhCbg06/7K9GT9bSqJPonW8GFojgg8Z6U9ASCu8SX9KyymIKLcXWatOPz4TDV4EMXTVHrdvolyk4Rbp0DT2Jd4ntisCHZrSFgtA1fDjIkNNQoSpPRnVKtWvMQ4Ri2Sg//2iYFY+Y2Gxs7Pe9m1G3Uz0UfrwmXGmU5JdYVIXTECci5ZLQMJ9Yis0RsxTnGt1Iv0+vRmnh6owRzFYjOdE6BPhsVQlSVe/YE4HoyGlMLoocyhJhK9GtVY9CgSRyOO69X+J3ofD1AGJTmxDoJ+Dc+Dgc9KXrH/f3B5R+BmHovdfPw2TVY7h+8ZfhSpxWNYpSIepL5Jwt0/CpFtyMEKmFq0sIGoFzZgImRwQ17/zBjlEOxTv4MCj+GHDfr9blfMK3tDMQ517xYdktOKeQaDxw9JwttMohwhi4tH+zEpDxFQ+6zx2H+ENYuIhaEbgCbi+84+6MxGYckGEkLTxEGCb7zKFFLA+Fq1FaRUkbSpRDiMD5dy2RZgAuJMxSDzWycqUeVn6Mtth4zFrnRXL7UdTBiydk+Ou6Jr5ShqsAu0pldcoYyrP7zMEIsiJnPp5yCVUPB3Yp+Il6FE1DaBgwtDz0MNpUb90Zo9KlV8HOmUKdZB4C1BejkuUAl/ei+VQ80qKcIXc9NFwWXlpDw4R6tUqr6sghxNBQW3TacNy1tlBAmnyXaa6TCFdfFN2GmO0i2MEUiHacxnXVZztTiNSqe+ZQJ0UGNbmM+EkF92O6+PewLRgOVcf/4xsoPOjDmal+HPyLcAgjIudwdNhyZc6BJ3gFAdO8CldsgnokpKRBxC90jstZ8lVYW1YHmOcPVdbifNcMLO/3WlFyGAxY8ORKZHb8wjK0ps27MoYcVcAJVyX04bH0xeHJ3wVb7kG6CCL7TQFg+hQ9wF1qj0f28njEdHwcDnrD1PaRCoaFK/GtIVS2+v9cA9DCaeT8sKE5HhTRyT2996Tkyp+joSsdS0KT4qPYeRpNsUnwrJuHuJr9oSFDY1gwtdg8KX6o9qCtA0id2/f7D3eC/I3tz6Lx2jx4TZd96Dkv5xut6vdaWTe2v4+O1EWYtSg+PNQW1QP40nw3Os7L56ghRWMukySH/twRlbFQMMtA4iO9K1t9unwV192z4Fb7rQW3IRWf1P7d9QDcGdes+ySHBd2muWc3I2L/oktDvOsTXIvyb578oyDGPbRhZiIaHc4KW6H5WvqSP/0Kjvtr1BmHV3HRX43AtLzwc/JiUO8/oCpd41DlPiytaNbnOmkBqwEbH9InxRtDXnKJrH7pE+VdaDtjjUHaHCzx1a0PmckJ39ahPDk8dqAjPKSmzRkLVc2acVUEvQWzr6FKBDj5HslpM9DT3qz1Do+aJ2XM6SqNx/khVLb6/1zhsxy14cE0dexCgVWEWjUpXmtXy5Cu/6VNSr4by3udcr8H/of0SfHhocDIMwJLUSknvhcnhSfGK22b5+iT4k2vfdYyQX5gdWvK0ZQWfv/IsxFHQs+GIyI4FYXPGnz9h2pSvGk4r9eZc3KivFsEIdNQW4icD2a8Ts4LC1fFZLirl9U0Y7vaRPzwMKA+H0zsi9b/FO64OITK1nuyUif+mVHv7el4GY1Nqs8QOWcroqonQ+R1EQZTrkVW636GVjUpPvRasUSeSdmviP3rfUyFfk7WICLnui05Ofkz9biXhIQE9PQMerbDLWHZsmU4ePCgWhsjcv6TduaeeXI92UnOi/k/Uy/g749Fu/wDRSMvwyADzaX+JqTTEMgL625A/AUfnvxINZlov6Puo7ygKZEDOXvOFkWRjm1PyvlPQ5kYT8N1/D9eRi3uxtOcEzM4jz6DtAEmxtPQrM3ZgJxgRdSgJfU53E1EY45ha9wwhsv063CZz5aj0fAONh2rQJv3Kd4bsT/ahT5/1Gv4j4bJ9TwedP8Kf99f1eqj9XhL3tKH90YkchwOIw6RI4YRiYiIaNxgZYuIiIjIRgxbo2jmzJnqEREREd0qGLaIiIiIbMSwRURERGQjhi0iIiIiGzFs0Sh6EVP3NmHuy/t63WuPiG498sK3xtX2Zw3nVkdEDuesSz+4c5Hv8yJ0GaNgvel2PTrPwseQM02tROm323Au/SAnyF++fFmtjUNTnkfm38Sj5YX1uLk7JMmwVYLE7hO48NRK6018bbUaiS9vwhd/kYor+1TTraDwTTxdmoTqgkLTPRkHazV8b29E4rGZeCPi5tljbl0lnl3cjj2mG36PtUkbXoA34xLqH98b+r0Ot/0S7lej34dR3tD70nYgUfbLG2wbr5fXKytKRYdxKyO5vuiqZfsh6rlWTWhcMUrXObv3Ecxan4BAlPeTYSotYtf0z2y92K0j7zbQ3zEnGiJnVbaCNThe/hoOqaW2y4v8heG/dlyZy5ETKwJWH/3kdN/DlUdScWZUgxbRWLuIjsf/FmdXiOWIvBmjDEL6uh4uUnGHO4jrSAhVfGMy43F9sH/RyHtV9tq2cy4oK8OVtn+Wz0x0a3H0RU1luMqPPYtDJ+R/nBnIKckDqkXIatX79UpYHOrL/QioJrs5obJ1x1++hbk5d6o14OMjPjT9Wn88UF86XkZL4gZ4v6y3mfvlvdfuenoDUuPUKhpRr1WxHkfqs8W4S7WGfYKmn3wDH/dx+xCzSc98gNnZ6k/7D8txZvP39McaWfGah85d7fCsXQht783Vr5XHMHf2aVy46gtt45O6rbj0Q3lj595VK+29Evzae8RsaUL6dL3dLPx6m8kqTLFxI/EgTpXNgb9SPi7DqqoSoMJcOYps06tL82O1TvHjKMcLa0rVinzuPJwra0de6UJoP7KuE6rao28nstZhff++Ze++jCVpasWks2YbXtqsjpnlc4mvePPnMCpPrwDLjX3rte+R+2fat76OmVapU9uzaMDhQVfv/he2rfWF3/uKHyuP/KtaEbzPY9+9M9SKCArnfozHf1Gj1vrWf2XLVBnRqlDicFjC0ANI2Z+JP5yKxx0fP4vW18X6dvHjRFG42jOYKkvUbev7MQNvIJD4VKjKFKqYiX9XE19dBex9H3esL0Ki1muuisl9W4Q/7HgWHeqG4uEqVKroM15jFkSrev5gK1Z9Ps9StQtv13zMUua7RaA7gt9lFCFFhNbwc+RnM1UUm47g7Iaf6Y/ldjPPo75jEbzi9VKo4qZV6uZhstZqFlktfBQ/qPhrzGz6NxT/nbqTOlEfHDxnKwGe6S4Ems3/8XWj0zxmGLwqfvFj4IpSnp+o9DDVJkKQDyfVEgpLX91h7TvSiLuK3sJdU1S/EJOzAdM6tmv9Z2o/wV33PI87VN8df/kUUq9VhLZ7MjRc+Cqa5PpPfiWOtwxgRv/ggpZ044dfwZlHUnGhrq8/19ORvjYJAVn5eqQcHa6FSFqpuqTpJXqAkv27TohE8DQS71F9/ejZLLe3FVfE703HUflYX0YlaMlwUJwkwsJMvFAglop2zC+tRLbWWYpzjUDq3DJtTVM4TQSJBpxToSV7twhaHSKkyNcWbMOpxBI8vWW13qlJxxJtmFD2l6MpdiEK18n2Urwh28pOoFMLIur9CwYOWlLdGvV+XXqI0l87Mxy0ZFiaezrU/kJFA1KLjc+liH1Zbeyb3I80H3yFelf2bhG0ZPgy+kRbU4UpUPV1zCofxkvq/bRgKR9ry+CHSR8umo3zux7FSm3xo2mqD9u8qlMGsXu/hDNvG/2PDipojZTf//ISJmc+IL7DM4HzKhSMkMnzn9LCjKws1Z8KInHRI6Z5k26krJeBSq88NTalIm272I8B/Qytslq14zSum6p1Z1eEg9mwyNCj3fZJbffINbGfz4h/8Q0i7CW+r1X0Js8vwh3vy31348+/po92xGwXQeuaCFjaPr2M1vgi67yw1CJ45eu1bevb0Lb93l5cUm0Inka99nq5OKdaSOOP88JWig9LSx4Ty1J4UY96o4qFi2hpccGbFf6PxbMwDx71+NbwODw5d+LjI9HmTN0vglMaemorwn2/Xo/639yJxP9punnybypw/t/f0R7+4f9dQE+c+GtaW1O+PFf80zsWgriya7H6x+x76PwQ+LO7TMFCVrqMatgv3sHvut34YrgAYZu/eekIjhyJXPbjuUHc7Tf5viygZkc44OzcLwJMOrK0QCRCzQEZQuaFQor+/P0qOJQhK00EpVA1aA/8xxoQN/vrSFYt8pidKjOChh7e4qaYw5hdRJgL7Zew87T4qk1CsgpTOtO+Vf4cDV1uJM6SK/JziXB1Rr1e6wvv90DHbLjePPJ9vKkeA/+K81eApPhctS5NRkaGeX0I3PPgVZO95WJUTAZ0b7JeRXnvl/hdfCZSRNbqGulCSdORUNXohgh1193hIUup40g4IPWcFyEjPnnETmKRQc84JnJJeVR1DGDS18QvzKk3wsHt9SNoDaYiNvT6IFoPq1AqQtFvLcfsAcSmigBoVLLkUO77IlBlfC38uWSQMvpfP48OxOOL9+qrg/M6vlNczKoWDYrzwlarPzRn69AHccgv8YUCVeBENQLT8lQYewzTmsW6+HruHuzchvFuynTciU/wX/3MCv7kt3qQuhl/+PdviHCWBu+zfiwQS+ZfmkKaA1nCmE1+8nQRiooilxV47rh6Qj88SW7E5W7Es1WX1WIaEpS0oGEEidXIng00vKuqR1qVKx1LQq8Vi2nYbqzJocbw54oyZNl1DnWhKpoIig8Zw4yN6BDhKlTRK/w60mODoc894DEbLjlMuPb10FI0VbVr/hUb3z4LZD2h+p/Hw6pnUCxVEL2CNDQXEbwYj0Sc1/7ouNExhv+wRYSx4Yics6UPXw5sUqI7IqiZhgQHogXYVKSZQl7vkwiIRo+DhxGF1kYRpszDhBdRawQxOUG+OwExwc5bp7T70YciavXvzi+ZA9L9+LN49XCQgm8aQ4QV+CRng6MD1399bP9Q4HAqW5Kc5xQablNLeI7WHtRdCOrBQ4YOmAOKZB4CVIsDzsBL3nIWS2TVLbRf5ZBTswdnD9o6xP+llehhqnShtZIl9H/MhuFL/xuv3jsDTe+FhwmPXFF9ht/+Ex5XfS+f+xKKhhq4blbwqjYX68b2Z8PzioTJiWMUENT+jLXIoDaUsKbPsbK+9izPLKQx4uiw5cqcA0/wCgLR/sDTJsdPxZVfjO6lH8bWq7j2mzuRWhyeZxX2DjovfoKYnOLwMOBXi5Ea14gWNWw4NI34LzmZxkwLe2mI/6paHyOTnnkaU10N6DRdxiFU5Vp5LDwRP2QPfv87IHH2i2p98IZT2ao704C43PWhuUrRtL17Dp2J05B9XxY6j5mClKp6LdltmtM1VJUt6BQRrs8huPs2YW9FBSp+ugmLVFOYHoosc8rMutpDJ6Voc7DU4wEVvok8S1AzzwUb3DHDpXZ0xmYhu7/n9Ok6OmXYk7zPR1S2rH5x7bfq0a3kAaQUpeL6xV+aQokbd6jbusrJ9pGXcsB7beKomof3RoYczpw8fxUShzS0p8gh2eBg55714fJVXHfPgrvP95cT5Pv674fIyllhKzRfS1/yp1+xXEdLnp0Y6tfOQjyAi7fKEKIiK0/11+7GXDXUJ5dUFX7kMOCZ2uTQMOCComQ0/WSw18SSZyKGt7ng2Q3aZHljfpfuVTRpk+6N51gn3/dNnjHYhLl7m/QgNL1Eezx3yxDCj2shZsvXaNtoR8MjxvyuPejYJyfMb9K3eY/oizIJv2dzOTqM9xXLrGdGYW7TzkI1wdsYEpNLxETyyodR3bEQS3LbQxPjdXLoTZ8UH37t5YgJ8gMpxRva5HXj9Wf7DzER6taUo8moQJneu22zX5uMv1q157WfGHxlS37exojhUbGEPtcgj9mBGpieE9Hfl9/+E965MhlzH1LDiNmdOGOubEUMMe7TJsub53jZZGZClDPfooiYEzbnVTXJXZ5ZFxomM4bOzBPJB5ZYZGy3CJMt18H6GVqPNIX65YTyxl4/bOtz5ux/wRKQIudshSepyzMK9TYZ4IznhfrlJS20SfHh1w7+c8nLbeiT4sOvNb/3ILy3F82nxNdS6P0j3/s3ItCJ/3P/D9x7n95C1BdHX/rBiW7pi5qOFXnpBxGiRvdCqGSLaBda1dqy0DCIy1LQSNMvjyDP5Bv88BwZHv3HCvx1/K/xz9/civdVG1E0zp6zRUQTy6ykXtfJkmcgxqEdbQxaNF588weoqGDQosFj2CKi0bOzEIcjhhFX57YP4aKkRA7w0++gWF72gUGLBonDiEPEYUQiIiIaCla2iIiIiGzEsEVERERkI4YtIiIiIhsxbBERERHZiGGLiIiIyEYMWzQy5IUpQ6fzD/KK3oNWgF1V/4Aqbfk+tt3UbVoGYzX+9O0m/HGeWjXRb7w8tCuwj2fmG00P7ar1g/Ei/vjcMXyq1oiIJjrHhi3PQv22PDkpqkGx3LKnxAePaqcxVvkwXpL3uis7gchbKg5fFdYWfBcFBUfRoFrs8OmqTfjvq+W4/bRqcAAZekY+7Aysbo1+38LDjaphRH0Pnz+ZhBvf3oc+rztDRDSBODNspfiQExvofQNq0Z6f1YPa8tdwSCy1LR7k+HLhUt1EN23eMdxIa8CkN76nGqz08MHbyYyU2/xfwaSrC/FH3+gHSSKi0ebAsJWBnDwPAh/URlRIEpDxFQ+6z9UioFoC5+rR7Z4Kj1s13CKSt5wNDfHIZdU61SEM1CerJOYhInO/HEbzvR3uixwO7G/bA4vY9u4y1T4SzMOMYnl7pWgxKVyJQ+Z+bVmPJ1S3Nny4KB23/9/Fvf+D6Hd4VH4mObRYhlXRnrOuUvuc5uNmrlJp7ebjoL2X/nrjNUvSgLjcjaHXD+646cfaWhGLbIv4ebz9JpJVz4Dk57I8X35+6xCr9Xcl+rDy56pOAAtKog4nLirdi4qKvdjEG/wS0QTguLDlWZgHT0s1altVQ0gC4tzduNJyVa2LUObzwiX+F3cLlbbkl5h+exN9mEcub+xUneJL0NJX0YDUYuuXoPzizmvfpvXvqQkidXH4SzN5y3rM7ygPbfcF8y1UBrHt/mTv3mja9jacSiwZoeGxdGx7+0Ek1+xCgTbUuAsnxVf7xt1G3BL9T4qveqO/olm0deNk2Q78WH8CMOV+fBrXgM9FGz4ccHjUjfmlPnSUqc/VlY488+dKK8HqJL/+ucU2kLt+UMesbfMc7TVyGK+zRv95acuaUvWM/uxB3YUg4mZ/3RSI0pAYG0TDu3u0teQtK4BX1DblfmMhlo/Iz0OI+F3ZU5OEJdHC3Efv4HOd6fg0yhw5IqKJxFlhy50L77QAak9cVA3RJCDDJ+dr5QHVcigRiIlLUH0TXRkKc91oqoh2H7nV8C1OF1/M+8N92n3o3Ei/z/Ql2liOlzbrX7ht755DZ2ySdd5b2rwoVYhBbrtPZchKa8DhUFDYA/+xhogwcJPWPYgFsc3wbzZmczVg4yt16Enz6pWrwhxkxnbj/Luqf2e9eIYLCbP0VY0nCX/qbMdtanWomiqM4UUVcpLStHZN1wnsMT535c/R0OVGovm9bdK22Y+m2CxkG8Fu3TykNvpDw6BtmwtNQ6JR9nsYsuemW35He+1LyB7cJv52+iyp9+/Q+2WPoLj4EWx9VzUQEY1jDgpbIkTd40VPtT80TNibC17fUsR9oOZstSbAFQv0dBrVrgmucBriEETHJbUeRedHepC6GbKaYr5JcGTl6aa3re239ebDzxanq84R0HUNfR6Syo/RJn5vMu9T77fOK/akGXVGNVD4LClJPRodcVNGqILUr1KcM4VhLQCdMVXFLMOj8mbQIzUWvxrJiUBqselnXVWCVNUb6baOIP6UOIK/C0REDuScsOXOwFTx770nzzjTcCm8xro2Cf4qOoNA97lDpiFGfWixs1utTnSVLQOe6Wf9Ite/+IbCOAvthYJydOZutASu4W27wTL0qS0PPSyC0AiIjYelWDQrHjHqIUSwutoFxOSu1edqFc9AQ4VpCFG4rb1dPRodwwnEQ1F3xqge6pXFc6GAWYZVpQsB0/CkHFIeSU0VET/rPk4u+CzRjc932HmOKRHR2HNO2ArW4Lg6y1BfDqFe/PsfqBaP/TXoFmEr8GE3XFn5yFB/hLsy58ATvNL7rMUJS69WzH8y2mRmNRSUu8I0QXsF5sc2oFoNGw5NIzpESNENc9va8Fk6lgw0ufubP0BFRQUq/vFR1TAI2rDgDPi2GNWRdGxbPAM9NUf1QCWHGVGHbdp8Ln1Za6pqaQLt+Hxcku2XIdDmxIljFg49QuI09bPUA1Cc9jgs0B459ypCf8ds52k0yWHidfMQZx4CVkKhr/BNLB9qZSs0/Cwn2psrV/rvSmpx9EnxVqvxWYIMu71/h/QJ8hX4wTdVAxHROHZbcnJyn98xCQkJ6OnpUWujTc7N0ocMzZPl5XW28rPUjPhgPY5rQWz0LFu2DAcPHlRrQzNz5kxcvnxZrd08eTahPEvNIKsIxiR5fQK98cUZxKmycEVB65OTtY05RHIoqTQJ1dpEePmluVGEAb1L01humZA94LZ7fWHLapYxd6f39uXEb2P+mEYGhyUzxQf6NxT/3euqUVi3XqtIWclJ7s9jo/b+8mzEB0XMUhqPomBNlVqRE+jXYoH5cwkNFebQJS9mugmf/udWfMFv/eLv/3PpnynxWMTxN46xPGvPMlxqPh6S+ZiI41lxDunFxs/DEHHcIn4mfR4zRd9/WH5WkvVzNeBUTRLmh3435NmFvYf+zD8v8+9gU0U5UCxPEujn90HOXYusZE7Zh/9ek4TPPxflLNABPhcR0Xji4LDlTE4IWzQEMqgtvoZtD+2DEb/08AYcKDANJ847ht//FTAp2hf/zZJha3F775BBmk9XNeFPHb0Drua+Tdj7ra+i/XAxvvNT1UZENE45aII80cgrmBKvHoU9MXdG70n1pxdjUmM6bqx6UTWQnT7zfYAbCSdwe6+gtQibflqBCgYtIppAGLZoQqvavE+/7pbpgqbLE+uslS7lc29sxRcSSqLeG5FG0ov404J2TPrnlVEut/E+tn6zGMXFDFpENHFwGHGIOIxIREREQ8HKFhEREZGNGLZGEataREREtx6GLSIiIiIbMWwRERER2Yhhi4iIiMhGDFuj7nG8ssyPSrG8MkU1ERER0YTl2LDlWajfkDonRTWY6H3LQ/dIHF9exZMHfSg89iskL9iBtaqViIiIJiZnhq0UH3JiA1FuMJ2BHBHApnXVj+r9EG3R/Q4udCdjurrNIxEREU1MDgxbIlDleRD4oBadqsXgWTgHnf7XUNuiGoiIiIgcznFhy7MwD56WatS2qgaTwIkDuNir2kVERETkXM4KW+5ceKcFUHviomqYyN7Bh8E7MTvlfrVOREREE5GDwlYCMu7xoqfaj4Bqmeh21fpw1L0BlcvewlbO3SIiIpqQnBO23BmY6gY8efpZiEtLlsJrrPtyMfGyyP3YutiPuVd8KDz4DWwa9zP+iYiIKBrnhK1gDY6Xv4ZDoeUQ6oNAoFo89teM/7MPo/oE1xiyiIiIJjTHTZDvjytzuV718nnhEv/z+sbz9baIiIjoVnBbcnLyZ+pxLwkJCejp6VFrJC1btgwHDx5Ua8MhhxGfAk5yCJGIiGgiG1eVrQnFdT9mu9rwIYMWERHRhMawNerUvREX3w3UV2CXaiUiIqKJicOIQzRyw4hERER0K2Bli4iIiMhGrGwRERER2YiVLSIiIiIbMWwRERER2Yhhi4iIiMhGDFs3YfVzv0XT0WY0lX+C1aqNiIiIKBrHTpD3LHwMOdP0eyPWtqpGJCDDp9+gWtNSjUMnLqqV0ffizmb42qfiK899XrUQERERWTmzspXiQ05sAIGgWldcmfmY+uEhdaPqagSm5SE/M0H1jr7vnY2DO+mPao2IiIioNweGrQzk5HkQ+KAWnarF0H3+AI6fv6rWLqKlRQSw2LELW0REREQDcVzY8izMg6el2jR0SERERDR+OStsuXPhnRZA7WDmYcmhxmndqD83dnO20HA7gl/+PV5Uq0RERESRHBS2EpBxjxc91X4EVEufRCjLl0ON1QdwMWJe16iquhNf+Yfb4ZNnJu78g2okIiIiCnPO2YgyQPm8cKlVi2A9jvtr0C0fq+fh3CHT/K0xsrYLTfm3Y2vJndijmoiIiIjMHHxvRP0yD3EfmC794KSgJcmwNeeLSF13h2ogIiIisnLmpR/64MnSK1+urKVYWvKYWpYjw7juFhEREZHDOLiyNQ6wskVEREQDGFeVLad5cU4ngu23qzUiIiKi3hi2boJxb8SSL8fBz1v1EBERUT84jEhERERkI1a2iIiIiGzEsEVERERkI4YtIiIiIhsxbBERERHZiGGLiIiIyEYMW0REREQ2cuylHzwLH0PONCBQbbo3YooPS/M8akVoqcahExfVChEREZHzODNsyVD1FRG0IIKV+UbUFvqNqqd+6JCbUhMRERFF4cBhxAzk5HkQ+KAWnaoluqvo7lIPiYiIiBzKcWHLszAPnpbqPqpZZhmYNq0bV1pY1SIiIiLnclbYcufCOy2A2n7mYbkyl2NpyWNikaHsLC4GVQcRERGRAzkobCUg4x4veqr9CKiWaLrPH8Ch8te05XjXHCz15cKl+oiIiIicxjkT5N25yPd5owenYD2O+2vQrVZDtNfEob68/4BGRERENFYce+kH42zDuD7PRlSXhwAv/0BERETONa7ClpyvlZ9lqn3xOltERETkcA4OW0RERETjH2/XQ0RERGQjhi0iIiIiGzFsEREREdmIYYuIiIjIRgxbRERERDZi2CIiIiKyEcMWERERkY0YtoiIiIhsxLBFREREZCOGLSIiIiIbMWwRERER2Yhhi4iIiMhGDFtERERENmLYIiIiIrIRwxYRERGRjRi2iIiIiGzEsEVERERkI4YtIiIiIhsxbBERERHZiGGLiIiIyEYMW0REREQ2YtgiIiIishHDFhEREZGNGLaIiIiIbMSwRURERGQjhi0iIiIiGzFsEREREdmIYYuIiIjIRgxbRERERDZi2CIiIiKyEcMWERERkY0YtoiIiIhsxLBFREREZCOGLSIiIiIbMWwRERER2Yhhi4iIiMhGDFtEREREtgH+P+pyI29DqkEmAAAAAElFTkSuQmCC;" parent="1" vertex="1">
                    <mxGeometry x="56" y="33" width="603" height="763" as="geometry"/>
                </mxCell>
                <mxCell id="24" value="" style="shape=image;verticalLabelPosition=bottom;labelBackgroundColor=default;verticalAlign=top;aspect=fixed;imageAspect=0;image=data:image/png,iVBORw0KGgoAAAANSUhEUgAAAs8AAAKNCAYAAADf4obQAAAAAXNSR0IArs4c6QAAAARnQU1BAACxjwv8YQUAAAAJcEhZcwAADsMAAA7DAcdvqGQAAABhaVRYdFNuaXBNZXRhZGF0YQAAAAAAeyJjbGlwUG9pbnRzIjpbeyJ4IjowLCJ5IjowfSx7IngiOjcxOSwieSI6MH0seyJ4Ijo3MTksInkiOjY1M30seyJ4IjowLCJ5Ijo2NTN9XX3SEI7CAAD/OElEQVR4Xuz9C3wV5b0v/n9sba1NWCEXcgEiuWBiuESJcg2XIqLkgOHQwGErrbAU+j+7VTetHMuvqHsfkf6oR1uq7u7zKugSW/WwIeUQ4AeKSLnfFGy4xCAkwQAhAXIjqVpr/T/PzDNrzbrPSlYuK/m8fY3MPJO5rlmzvvPMd565YdCgQV+DiKgDROd9H/fiXfzpWIsq6VgJCQn4+uuvUV9fr/0bDrfddhuqq6vVEBH1dNOnT0dmZibWr1+PmpoaVUrhNxxznrgNH7+4HidUSaT4hvqXiCjsWo79qdMCZ+nq1au4du1a2AJnSc7rxhtvVENE1JPFx8cjJSUF7733HgPnjjb8Ntxy/uOIC5wl1jwTEQWQlpaG69ev4/PPP1clRETUZklTsPAHdyAGTfjoj2uws1aVRxAGz0REAcTFxSEmJgZ1dXWqhIiIejOmbRARBWDkT/ft21eVEBFRb8bgmYgoiEuXLuFb3/oWkpOTER0dzRxoIqJejGkbREQWyRQOm82Gm266CTfccIMqJSKi3oTBMxERERGRRUzbICIiIiKyiMEzEREREZFFDJ6JiIiIiCxi8ExEREREZNENQ4cO5QODREREREQW3JCcnBxS8Czf+37t2jU1RNT15DF56v51aoioZxi6eS7PtURE3RCDZ4p48phsaWlRQ0Q9g3wZC8+1RETdD3OeiYiIiIgsYvBMRERERGQRg2ciIiIiIosYPBMRERERWcTgmYiIiIjIIgbPREREREQWMXgmIiIiIrKIwTMRERERkUUMnomIiIiILOqS4Pnrb39X9bn3ExERERF1Z533eu5vfBNfDB6Pv46Yhehd/45v1X2iFX+ZeCtaJv8Y3z2+ETed3Qf84x9aOZFVbXk99+1RN+B3md9WQ4H95NyX+KiVxyV1Lr6em4ioe+qUmue/5n0f1x75A5r+yy+Ar750Bs6S7L/hq7+Lcctw7eE3tL8N7i48vGIJ7h+gBv0ZcD+WrHhY/DWRu4a/qx4Lrn1p7fpy0dulqNr5KzXk3692VqH07UVqiNrvV3ivqhRvPaIGwyr0eacWzsRk1e/lnpmYmab6iYgoInVK8Nw65of4Kipe64868rb2r9l3P/hP7d+vovvhr6Pnaf3Uhe56GCuW3I8UNeimh1yQ1P9dD4hP/vVrPHruS5/dKTFOqv8qpJsz1CEW4a3SKrz3v9RgKB55C6VV74kwuDM8hGef/i1+u3GZdwB9zzL86fnf4ql/e0gVEBFRJOqU4PkbX+i31G+8VoVvf3pM6/8yORt/jx+k9X+76qg2Trrh8+vav0QdqeUrcbEmYmL5BTje+g9k3nwDRkS7d/2+BcgYu1X8LZE1b8D+/6zG2UGL8Nu3H8VQVYrcR/HW84sw+PxqPLngDVVIRESRqFNynuvn/Qf+3i8DMVufw02f7NXKmqf+DPj6H7C9t0ob/iJrkpbW8a26s4h96ydamX8ybeN7uPK7F7D5ohiUtaE/HoNYfSTObVyG1z4QPVp5P/x5IzBrVqY+8uxGLHPIkZKczyzoYxpwyJifG/PfeM7btcyGg6/ghS01Wv9d9hX43pVDqB87Rp9OWyZc8zGtQ8qMJXi035+xEbMwa7BW5FqGIudnjBNjsXHZa9BG+9g+83pI5mld49T+21iO7FlqG9Q6aesz1tgqj3WRNdLGfhSM+blN47Z/O0dbcp6ljTnfhsxkLir7G9YM/hZyvut9LVn3pdi3ZV+oocBk2sayxG1Im/JzbVimZ8w1dlfzAazIfRCrRa8sL6hbh5ND52KcTRuJA8tz8eCrsl/NZ6w2QnwA65zzM3P7G495O5eJs1iXdg+0qWXt69OJOHkwEeO06fRl7rrHmI95HWSqQgHq1p/EsDnjoK+iaxkabX5qnNB8cAVyH9DHem+faT0kt2ld44z9tw5z1TYY6yTXZy6cXwHPdQm0vv/rPVTNcU6pr+d7k0PfF85hi7RaZhEsl7+AB/5fYNnrSzBMBM7/MmsFdqk/CYY5z0RE3VPn1Dz/rRXfbLiIm87u14ZlCxtf3Ha31n19401amQyqv9lcB7Sh5jllRD+U/24Zli0T3cZzyJxlTivIxKzh4kdRjlv2Cg7Fz8KSGTIhIQX3L5klIig13TL/gbPzb353CFeMchE41zunfQXltz2Kh025DLFj+6FUG7cR5wbPwooVuW7D5r+FGM49oeYllhE3y5XPLQPTWfGH8Io2rehkoOyWUmHaPjEtxs5zn1aE5b7XMRZjvge8qY1zrVPNlhe0fYgGfZnmIB4fvKYto0EL4JfpgbgIqB+9rdy1fp0cOLeHzHvud+MNWv/Cs18iv/QLt07WTNf/va0PCv4Kd4owMC0tTXQrcADj8Jgpz9k2tgD4rRwnuvV1GPe0SisQwd6yoSexQptOdP4CZ9PfrDvlKp/bTwSNxrTrgbmlb8G11MEYhpe1cSsOQiyzCo+Zh//F/Lc2jLsPeFnNa92VcVjmzOcWAaUIfuvWq+WI7Ts5dJlbSoV5+9adG4y5btMOw8nlalrPdcycizuP6eNc6/Rz3CP3YbMIteUy3QJng3l91+GsbRzmyvX5H/cgbfkBEQ7LID3NGeCHti/a4L0V+P6CF3Ayewm2/kkEzjKIDiFwJiKi7qtTgmd83oKoD9ZpNc3SZ0Pvw9ff/JYWOH8u+jVi3HePvK0F2qGq2fKaK/D9oFSEdmYi0HMGdDXY/OdziL3tLhF81qDmGhCX7DOzV3dXLjLPbnQFkBc3Y7PoT5nxPfdyNd/M4a6IuOHgNr12WPy/9Kz3sNtyPZbx57OxyB4hx9+FgrHAobc3iyUoH2zDIWTjLufDkqbtu/gByhti0U+btZr2XWPGNfjg4wbTchtM8/WxTlbVXEFDbD8Ee3azO5J5z98UsfM/p9yIf73lRvx75re17p8Svomob0IbV/+l+uOQiYDPGfiuxq5TIvIzaT74sqsm83+sE4HhYNwpg72P69BsS3TVsnpZhMlDgQO/dQWQP39A9v8Kc8XnbS7X5itCxMnOh93OYpsKHle/d1ILKN2G3Zbb7L6Mt0QAmnmnFuAversAg8+twz3/Qx8nt+/Bd85icJ4rq9i8fT8/Jg6ufqlaMKpPu8207R+KQNe0XNN8vdcpEPP6/hwfipNA4sBA4W8o+4KIiMilU4LnGxs+xXfK3lND0JqlS1x1n9bd/JcSVQp85/S7Wg116GQN8Qqs0DpXioVPMthTvR849NpYOZ1eG+0uJTkODVd8r49XuZxvfIrvh+xCdPGKsYZSPWrcFiWDfiNA9qRfELjEYsyPjf2yQkutiO3nO8x1X2YIRLD/gqwN15YRWQ8SGi1ubLn2FWr+BtwRdYPWxdx4AxJUjXRDO/KdZU1wVVWV1jlTLHxajWr9lgbw6oPIlbWx2nS+HnIbjERbHap9phB4lsv52pB4mxpsj1erxdxdmutEQGwmg34VIHuR41SvJnOuc79UaekYiUj11ZqFxzJDcbbO/WKl08m0DZmqUf4Cpn9fr4F+e6OPhwiJiCjidErw/N2j/wn8I3gUcsM//o7vyhrqkKj8XSNtQ6YgqDE+pfRD7DURZGoDNdj8gpzGO+3C4C/Y9Cp3m2/7DOgXi/rLxpzikOK2KBGgxzfgiqUF6ekV+n5RXUekVch0Djlvr5SS7s1ocSP2Wzfgtdqv8NCZv+EHontV9MfeqI0SAXZIjwQ4Gfm7WmqClgoQKJhbhNR+zaj7WA3KVAM5nVfahcFPsOlV7jHf9ngkFYnNdTBCZluiR73sbYmwXal21lQHIvOOjf2idyHmE3d35nznB17BqdJX8KBM4ZAPETKAJiKKeJ2T86xa25AaC59F3eJ33LrG+/9NjZV/G2LaxoAUEV6aamdlqoXq1WXie85aZRFoz8rEuROeAaQphcPUFFvN8XI0mPOTxbj7Rb9XuQgX7/+er/laNPh7rjar73oYswafQ6k2K5lOEYsxD5gC0rsKMAbl+CBoBb2cNhOz7D6uCEIVqOk6swhL4TDab34h/Vv4t1u+qT0wePt3b8DyQTfi+XT9BSpW23j2NDjRZqqdlakW7jXPtrFznbXKi95+DONwErs8A0hTCoerbWiZkmBzy8n91dt6XrBnOf7XXN/ztUTM60HnGuKtfxkHnNqlBcdaWkPmXFOOsxh/32CcPeadn+1JTouxj4WhTeZ2NF3XoR6C4//VW9X4Fxk4q1LIAPpJvRWO519nU3VERJGsc3KeDd+8Ef+I7a8GXP4Rlwrc0MZVubgZbx6MU2kDohsu61vNzolQc55KXZiFuIOvqPxi+cCgmkZ08sE6cysVGpmSoD3Ap/7ux9kyzvYuX/Eo+v3Z4+G6UJwtBx5Q85oVh0O/U61pCB84lmHjtTF4VK3niu9dwSsvmHKgA5BpKfIBSX0dZWfhxTKSlletL9OrNl7LyRZBuRinpbrIwNqYv9g/5aZ17+4+/eJr/E3ExlHi0Jsc8038PwNvxP8Y+C1MtH1DK/viH8B58Tdt8fMp61A3dplKTXgMiVc8c57rcKdKXVg2tg7rjIfgZOsQRkqD9mCdqZUK5edT1AN86u/mJuo1vp7lVffVebRKEYpmHKi7U63LMoy7ss71sJ1MLVl+AIlz1HLE+MR30kw50AFoaSnyAUljWtFZeLGMTEHR8qrlMn3WxgcglrlNPrQoltXxL6d5A88s/xffrWrIhwif/Bc8929sqo6IKJJ13uu5Dd/4Bj4bPl17cQq+/hpRB9/Azae29drXchtN1UVSKxXdTVubqpO+dQMwQkTKY/vcgPEigJbJRQebvsLB61/jWOs/tHaee582Ns9GYcWm6oiIuqfOrXmWRJB88182I+51O+JFd/OJrb02cKauJ7MyjrT8A7+t+QpzPv4b/kl0sl+W9c7AmYiIiALp/OBZkbnNN/ztr2qIiIiIiKj76/y0DaIwa0/aBlF3xbQNIqLuqctqnomIiIiIIg2DZyIiIiIiixg8ExERERFZxOCZiIiIiMgiBs9ERERERBYxeCYiIiIisojBMxERERGRRW1q55mou2E7z9TTyHaeiYio+2lT8MxAhYiIiIh6I6ZtEBERERFZxOCZiIiIiMgiBs9ERERERBZ1m5znpIG34JaMW5HYfyC+/vpr1F26gOqKT1B7sVr9BRERERFR1+ry4Plb374Jk/7LTAwfOVYbbrx2Vfu3b3yC9u9fDu3Dnm2b8Pe//10bJiIi/26PugG/y/y2GgrsJ+e+xEet/1BDROGUim8OX4K8BTNxS5wYrD+Lo68/g09PHNBHE0Wwb0ZHR/+b6rfku9/9Lv72t7+pofa58cYb8eA//wypGbfi8K53sX39H3Hkzzvw0cG9OPnBIXz19y8xYuxEDB4yHKePHcE//sGTvBXTFz+PH+Zcxa6PLquS7mg6Fj8/HfE7DuETVdJdxU34/+Ff/msyPj38CZpUWWfq6uX7FodJi/4FswZ8ikNnus9atUVI+zfvYTz700n4bpDjdoT9Wfzse9/FjkPtO7rb8tnf9I0bMDvhm2oosD/UfYXmr9SAP528zeTSkefywPNuz/dbBs3LcdfPf4XRY6JwZfuL2PPb1aj+zmTkzVuE2783A601Z9FUZ/Wu8gg8/K8/xojru3C8Rv5uLMKY7+wQ66VGd3NyPy8a821+L3qYLs15Hj+tELbYWLzx0q9w6P138NfWFiQkpWjdX1uuY/+O/08bFxMXj/x7Z6ipiDpX/d5tOIHRWPj4dNyiyjpTVy/ft3rsfvcEMHIhFt/ffdaqLbrn/tW1Zd3q/67fTDz516/x6LkvfXanxDip/quQbjxSB5DB1bP2EWooFDKofF58/9RgWLXl+y2D5t8ib+V7+K//PQ9/e+8Z/N+fTMBftr2Br748gOaN92D7Tx7Ejn3AkMfeQtGLf0L8t9Sklm3FqiefxKrNarCr3L8Yz//rw+ITCG7rqifx5Kqtaoh6ii4LnmW6xoixE/Dnrf9XS9UYmjcK//yL5/DDx5/Uun9etgK33Z6HhqtXtL+5Q/ytnIao832KrS+twWEZxDx6XxcEWF29fD/Oix+yVw9rP7CP3tvdws5QdNP9qwl93Vq+AmRMLE/ux1v/gcybb8CIaPeunwhaZIzdGqzWmXqvUL7f31qCHC1oHgccXuEKmtVoJxlEv7Maxw5X48u4PNz50ENqBFFk6bKc5/TsIZjxwAK88j9/rgXFi37+b/j2Te7B8eef/RVrfvU/8fe/f4lH//VXKPnjqzh/tlyN9UdejT+A26L0oc/L3sYzjv5Y/Pyt+OTJVeK6VSev9m89p1/Byv7RTR+jPuc29G/9GG//z9cA+7N4IOc7+h9f2u28cpS3Jp3l+Bwf/59n8NoxNeiLvOX5T7fBmOLSXnXVrJXbcHgvMGlCf22cvq7HtX5JrtckfZSYbjcwQW2DnPZ+YKNYT/2v5TbPAjbr66Jvj5qXv+VraROj0VxWj9ty+nst20mtZ1VZnPg7ORd9m4/fbuwH1z5wW65GLcM03uf2yL80jYP6DI4b+8j0uWn7P+aw9nn4nEb06uuxG1W3TFLHgflzUuu0twppE9R+MU0b2C2479GFyMd+rHnlHRHW+GZeL2O/6uvkfoyJUrEuk2Bsguuz8Sf05XfKfhl0Hx5dkA8cXINX3vW9VsbnthuTTMeAaXv9HqeCeZxYp92fpolQcqPzOHP7Tpq+q+7zvITdpuPINwv71+OYdD8fuJYR2vaGad1MNuZ8GzLJrajsb1gz+FvI+a53PUndl8Cssi/UUACduc2yRk+dD73m7Vymj+NWncckbZlwzce8DoG/A5L7d9Lr3O+2fYGmNY0z9p/XuR5uv1W+9on/9fVYT+27WotJIe8LP+d9Mwvf76hHSjF9/E248K4IjDe9gM//qkaYxSzCLY/8CHcM74e/nduFs3+9E4Ovv4ztq1erP3Axf96fl8ntHw3990193nIfDBDbldfsdo6S22T8rpu5HT8e50TjWHXf/2o55vOhOhbcj0XXPnWbl9d5V9/PQY8hP98RfboqfBxzmzgOLuFJUU5dq8tqnm/JvBW1Fz/VWtZIHniLV+Asfefm7yJxQKqz9Y3UjMFqjD964Jz26dvi4HpSdOJLp8YE850cmwjkxDTygBcn8AduqcLb2jxMt1xkeU69OKBV+f8RX6x/Wiy+Zv6NuF0Env9H/f3eS+g/wfz3/TEp8xM1r4+BnFl4OE8fI78sk8RXTN+OJ/FJpulEGYLAy/8ObovRlx/4BNofaSJYkX/3dhlw2z89j1nm4fv121dbz13Cd24Z4bqVdf+t6H/psHZiCLw903Grc9zb+Bi3YZa8jXnsOKpa++NW521JMe9bgI/3yM/DzzTKd3LkydbYbvFj4vY5ie0W+3mjWpfdTbfhgcWBPkXDp3jnlTUifMnHwh9PQaIqNfPcTvN+dTvGxNrIHz+IE6/2t+Lzb1Z/51/w5XfJfjn/Dl55fT8wdiEevcf3Wmn6T9J+2IztjZvwrOt493uciv30T2muceJHarTph0v7Tpq+q/JHSb8F7jGdR1Dim5X9ayaOR/GD5lz2JfF9Nu8vv9vb8evW8Heg3403aP0Lz36J/NIv3DpZM13/97Y8Q9KB26wFznCeX98uU9+IoOdd13lMP3aex/PGedXrnBfoOyB/PyYhTgS22jjRuY4nxbR95nOfMa3r++y5jr7O9cfx2v+U+1APpv0dB+b13X1JbOtEOVeZviC+360ixJLLdAaQoe0LSyx8v78pIonWE9tRc8tDmL6qHFN+9lvYYlL1cenPIvupUhStWiLOTR9iz9MTsP05O+qua6O9eXynN4pLZdcFhsnmT3ApKg0j1DlEO/f1v4RPfAXO5nOEiv+1c3WMCHJV+ZPy4sYtFcN8PtyNS+Kzlykyxx3PaPtSC5DFOD1QD3zedeP3GPL4jniuT/80dRwwcO4Ouix4vuEbpgda9HO8T9/4hr6KMoD+5reCJEjljRBB3sfY6AxYtuK1YFfViry6dZ64Ljbj8yibR7AqTo55/cWJynSCO/YaDosfDz24Ewf+8+JEpTojD+24Y5XrqlJ+2VWvTlxZGoG5Fih+B7YBcmA6JuUYQaJu6yrx5VX9oQi8fHHVa1qGPJkY6++ez3UJh9V+PP6XKjGVx7Cxr7STmWu/Tc8U++ucnH+w7RE/BMZ+ED8Bxz/93K0/LkGtifb5VuG4tj3+ptF9XrbRtN27xY+MOQgX273Z+LERc9rzMT7vf6tYyxDcaArgTI5frQdikkz7zsXtGNMuLHa7akjEsfSax0k/ID/L7+r9cmOgzCqP7T0sAoG02/U95e84HWEf7bwA04jpNpYZ26S+k6LMuc7yAi5GHoGX0Oz8PrWB3/1rJoKfVe7LduN3ezt+3WTe8zfFefWfU27Ev95yI/4989ta908J30SUOPXKcfVfqj8OScdts3a+MJ1fjzteE/3BzruS6TymHTuew3FIcgZYAb4D908SIY/590P/DsBcIWDaPrdzn5p2t3Pb5fncvFx/5/rgzOur7W8/5xddaPsiVIG+319dP4nKX+WiePEKlH+eh++9uBeFL5WjaNlcJNZvw/afZGPnr/87Gi8EelDQ+zt93LFRu0jwthWfiOPLuR/vl+fUT1zHiUZVuJjPa+K4kpUX2m+SqVw7FsQvjCsYN58P5bLg+i3yEvi868bPMeR1rpOflzkOMY+jLtdlwfOVSxfQL2Wg1n/tco3PljT+8dVXuFpbo/Un9h8gprmo9fs1wIbvNNW6vgxtJb64z8irPi2QNF+pf45mj1W41GQEd7ImQF0xis75AyKmdgXVgWqPj6PW7aHmetSG5YtidfnyJCWuqI1tcNZkhEKeYFwXE+61AIG3xxy4m2+JyZOL8eM14nZx5f2pODHpo/xO481z33o4VivWzgr91vmkGw9jzUtbUadK3Wxehbc/TcMDcr0CPFAyIiEOnzd5BB5BWVi+0On7Rd7WfWQSbjy2Bqu2+lsrb/K74+L/OA22n7TaNWNaeXtaCy5krZ5MDdLLrT1UZW3/upG1peZlB+Da3o5fN1nzLG259hVq/gbcEXWD1sXceAMSVI10Q1vznTtkm0cgKcb7/KoLdN5tL4/vgOfvh/wOmAMYM8/vR9Rt+vde62Q6hr8AOcj3LhBZsaN6O02o3++/voELv5uAkn/ehKt96nDo8Wzs/d3P0eqZyuG3QRh/x4E3eTHRP1P+QsugO86tgkbXH7Yof789nuXyc/F/UeN+vvJm/bxr4nkM9Z/knId+HmzfxQ51nC4LnutqLmqpGvJBwdaW69i5aT3+9rnr4JT9Ozauw2etLRh21xgtL7r2koWmbQJelYdABEHet068v1j9Y76D+qv+wkwZEMj8LCOoDqX22ONLk5ckSkLVnuW3jaypiZMnM69aAP/bI086Mg/MCNzfdtYsCrKWqUnWBug1CFV/0fd1wGm8BPphFuS6tDYH2Teu4OV/r9oaMOfUuAjRgugAaQ96DalV1pbf6fvF+GE9+r/FBWOwTFx3ru9O4OPUcz/J6Vw+x8fO6VTnvPAzLmhl0OZKEfHN+ufrJINImXNpLFfeyg3A/VzRsetmtLgR+60b8FrtV3jozN/wA9G9Kvpjb9RGiQA7pMdddB26zf4Cl1DPu6Hw+A54/n5YOjcol1zpWkbnqkSJUO34fuNLee75Av/wCJqNNI6pd32Bs+955zt7f94yAFa9nmTtrLw75nZX0pO/ANSzPMj5MIDQzrv+6ek75mPIlA9N3UqXBc9XL19CxcenMPn+72tN0cl2nf9jxTL84eXn8cZvf6X1nz5+FDGx8Zj0X/4rzp4+gWu1Qdq61G5zmHONpuNhrV/eMjTd5hM/AJOsxi3OFA79VoxbzljewxjtI8fKSQsQTVe3MqBUvYHpt6P03Dbd9InGQwSCVhviur00wj4LPnPC2rz8dpC3JGNuxeJMcy1A4O2RP4Su2kUZJLtftW89V4+0iZOQ1uS6bRVsmu/kTHJ+Ttr+cTuxmtdlBB6+/za3Gm1vbQishEApHNrtOpVDpxHH0sN+ayCtL79T90uoP6z9R7sCJu07qL47AY5TfT+ZptO+c6pf+06acwb9CZYy0LbPV949MNdUyrQDN/62103HrNu1L/XA+IX0b+Hfbvmm9sDg7d+9AcsH3Yjn0/UXqBh/E4qwb7MMxrXKCe/z6wj7w6K/DefdIPx+B7x+P/TzVOBzgyKnNX+f20E+YNa2puvCLITvd/N7B/D56GWY9vP/jb4D9VxnT0bQ/F9lGkft/8XWx0fibKUa6aQ+b/EZG3tAS2dQ/d7U3c6JNrfPybUP1W+P6RwxXRxXI3yU66k3/gLwwIKdd63Q7rKannui7q3LgmeZw7ztP/+IluYmzPvJE9qLUGTqxtXLNbhWd1nrHzw0Fz94dIn4m0a8s+FNNWUgsmZjN+pzHnDe9rBptRPHRdClHp6Q5ZmfaA9p+CVP6MatEy2BX8+3kzWKb5fFqXQOOc69JQgvx2R+punvM+XPhjVbV72Nj2Nct3BuPeeeI7xbPbgnx83CYd85Ye1YftvJk1+cOJm4n4QCbY/Mf3Z9ZrNg87w9Jn6Y6vv3R72WP60LNs3nZc24VS1Le9jILQ3lc3zcdKua9gHc1rQ74AOTcfcUYrTF4MV86057+Mlf+otMDdIeqFJ/K44z+KnxCGX5nbdf4jDl/tGh1UhdEj8O96vtnSAurtT3KuBxKveT9lCXGieCk8OmWh35ndQebDSmFZ0ewJjTQPSHiP3VAoayf820XEzzMe357fK3vZ2wbp9+8TX+JmLjKHGGnxzzTfw/A2/E/xj4LUy0fUMr++IfwHnxN6HqyG32PL8+cIt+HIR83g3C/3fA8/fDYmsUGjGt+fssO+2iIDgtr1pbZqgP85l+1ywuy7oQv9+V/x1/fvwZnLw+FBOf2auCaD2A/IY5aJa5zzKNY/UzvlvkEDy/035/3xQtdaN/nPOupCfZzrJ5fpNi9Is/z3LPljsC0vKj9Wnl+Sbob5gVnuc62Vl6kJ26Qrd6PfcXn3+mtfn8zW/eCFvfWHz7O99B6eH92LOtBF9+GZ63GkYscSXu3jxd9yUDSNkah7UfHSvkD697U4OBmJsG8makCPS+22FduV+ctzVFENhecjvk0+oRf0u8g33rBrHfRaQ8ts8NGC8CaJnifLDpKxy8/jWOtf5Da+e5twn8HaCw+O5DGLhgEfLuSMV3tGf8v0Dd0f+Lo6/7yHsmilBdVvNs+PJvX+C9//ufePs/VuHo7p1oqr+m1Twf/vMOUfYb7CzZwMAZVlILugv5FHO9szWOcJC37eLMLVVQ7+U3FYA8yayMIy3/wG9rvsKcj/+GfxKd7JdlvTFwpk5iPDC42I6Sf/0XbPxJNv7s64FBogjW5cGz4fKF8zi6Zye2/p+1+P/WvYEP9r4vykK5UdmzyBoS560bC6kF3YG+zpMAc7NS7SFr28X2yzY6zc1HUS+ijgHnd8EtFYCIuq2/7sLnn27ClwyaqQfq8rQNIiIiIqJI0W1qnomIiIiIujsGz0REREREFjF4JiIiIiKyiMEzEREREZFFDJ6JiIiIiCxi8ExEREREZBGD5y4xGUmPbUOaxzvsb7pvA0Y/7V3eoaa+icd2VuJprdsR5le8ts/EydOx8WfjsUD0Lyh6ABsXDsVEfVQESMWLP+v8dY7sfUZERNT99ZjgOWXcw5g5dw6ybKqArNkxDy9PScfylQfQqIpISB6KP6oglIiIiMjQA4LnLIya+zBSm8pwXZV0vSxMs8/GmAQ1aNEX78zG4eUFqDqmCnq5PVebgOYGVIj+ivpmoKEZe/RREaAaT/z6bcxac6pT1znwPovHmDmhH5dERETkEvFvGEwZNwd9Tq7HGYzF3QUDcWGb6BcxQ5dJGIPZ9+cAp0uw4fA1VSgtRNrTRUhSQ1LtViNQNo9rRdWrs1F7SRsA8l7B6OlA2fJH4dwsX2UBLULBn36Bu2LUIM5iy5SpcHvhtUzfWJqIfZ7lntM2HcDq78/DZTWIH+/A00WD1QDQePCXePmp1WoISH7uL1g01nU7oKo4HX/4nRpoNxueWjgddzpnX41Nv96H17V+mTYxHhlav9Bcit84A1k5bhBOvNWAex7MRZTbeI/pnJrx4Vtb8ZzacJke8dMRxoIDjDu/D7OKq/V+afh4bMw6j9/U5zr/pvX4Vvxgl+uTdJ+3eZv0VIx76rfi95jg/JuKHW/jiRNab3DZ02Afl4KaAw5sL1dlREREZFnPeT23rRsEz34DE5nj/CQSzjyPU+/scg7fvN+zllkG0dPwmTl4VoE1nIG2nht9R8J2HH5zjV4QkAp+r67D8h8tVWU++Amek5/bgRG7p2LbDjmkz2vwaSNAXokf7izA1ZW3q/Ee/Abk4aAC5waP4FSjj7vtnBGUev6tESAbgak+DHMQKtM2HozFe6bA1UmMezGnGk+ogFcLdjOrTMG5TiuPK/UOnqemuoJqbRiuANlj2HPeMnieOUj0qOn9LTsgvxd4REREFAwfGAyT+NGzReAcjbLNPmr08oqQhqM4qwXOoVqDmiOtSMpZqIYno28WULXLSuAs/Pi/4a6Ys9gSKHAO4PJTRuAsrcbx083om5iphiUbBk9apPp9GYxhP1a9bubjheJiFHt2jmWYoP4ioOG5uNMmgl+vwFlQ495z1uY247ktpWgdNMiUwyxri43AuBonzgNJCUZtbxCXTzkDZ2lPWRVabbE+aqv9kLXcxnqLBVcgBgOT9cEFWamo2OEK2PfsKkWFLQ0T1XiNafqQly1dPYQNjv1oGVII+73iYCIiIiLLGDyHRTxuvaWP6g+/L06cRkvGHSJMFfpPRgJOo9FZMx1Ycv9EoKkONWo4ZG6tcVS6pWAAS/GHlQeAsb/w3VqHfBix+CzSitT0f3oTrhhwLZYUFaHIs7OvwF71F4FMTIgRQaSe2+tToHHtJmuyH8BG2ZqG7IzUj3azYWAskDHVNG8fKSSt56pdtcwikP+Br9pxqwbkMgeaiIgoBAyew+IaDq13wHGgBTn32zEtWxWHy6VduNqYibg84KbhQ4Azu/CFGhXM5Ut1qq8tVuKHS8cBB3+J5bJFDtGtPuiRE2O01qGNS8QMzwD6d1Od0265Og6LnAF0+2qetQfjAvGsje0XG6YAV6ZOTMedKMVv5AOBsnurFK1qXDjIHGZtvs7OlU8dFjJtw56P6NMlcDg24NBVVU5ERERBMXgOp/LtcGwuQ/Q4O2aPjleFwuV6tPQdgr799UHbvCeR1lfvt2YXGs+0IqrfQvTNuozqUNI/fvchqmLGYc5zgVIrAmu8pB4AnPom5rjVPLsLFqjX1JkD7/bVPGvpDrZc/Giyj/XRUiFScY9znA1PjU5F6/FS6zW0l5tRK+YxfLga9uRsxULMe0a4ap7FPM81I2NqBzaRp/KdWw44mO9MRETUBhH/wGCfoXNw9zDPlInrKOvSVjdkU3W5aNzsqtXTHvIbpYdYLUeeR3XCk4grUw8Baq1nmPOIJY9WN4wWOSqKLT4oaCYf7JuLNDVkbm3DszUMnb/xZ/HBwUTclbhNf/jQo6UNGfx9YHp40HvePlr5aBfPljECtLbh1uqFHJeLBlMLGUYrFuZWL5wP92lMLWpoDxO6AuYKEZQnjTAeLlQPJ3ruUvMDgqMbPFr+cF8X99Y2BFNLIT7X0zLZVN1kcS3G2mYiIqK26jmtbRARERERdTCmbRARERERWcTgmYiIiIjIIgbPREREREQWMXgmIiIiIrKIwXMYzJo1S/URERERUU/G4JmIiIiIyCIGz0REREREFjF4JiIiIiKyiMFztzcZSY9tQ1qeGuxW5uOF4mIUa90bWDZJFXeiCUvf0Jb/gl0VdKL5L3bddlPbZd1rfn2+fHPnBiSpV+cTEREF0wOC53hkFTyMmXNVNy5Llfcy/Z/F0Ke3YfS8harACj34dQ88fZX5sxZLiopQVFSCSlVC1DYTsMzRCRdBCWOQO6AGpYevqQJrbPPEd4tBNhERCREfPPcZejcGfroJm9a9Jrp9qEkdj7uHGrVKkSl+9GzY77V+EXDTfRswugi4WqEK3MRjzJzZGJOgBnuYvSsfEsF7EZY4VEEnWvuEvHB4CCt2qwLqFtxrlt3FZw4ETh/FGTUcnKyZ3oa4q0fRokrcZE8L6btKRESR74bk5OSvVb8l8fHxaGnx+TPSLaSMexijsA+bDlj/eWwv2VTdxo0b1VD7yB/+/AE12O/Yrn7gZdrGk7h5fzEwvQhJWtk5lC1/FM2yV9Y4T/4Up95co9WO5aAYh0W/G/kDPy4FNQcc2F6uyjSylrkQ2GIOPj3L9OF0bZzQfAyr7CuwVw3q5N9MQcNL3oGkTKtYPDJKDbXimI+/8UVOtwjlqBuZJ5ZdiZItQOEMsRZVJSh6Yq34C/N6WZ+vTk47HCdeasCUx/OgrZ15uyYtwxuPx2Jn0QkMN5bhNV5NJ9etaAnkGmnsL6B4WAOOxeUhzybWa0s5smeIvzVPL/9GbovGY93luIkNWPU6sMhYhnObg2nndgX4rLXPMbvc9Lc+ygJtl8b3/DNeLEZhmiozaT26Cg+t1JfmfhyJve52zBrkhWKh+A6UoWT9IXjXLWdhmj0XjZs34NBVVaQFx9Pw2dbTSJg+EtGyqPEoPnr5GXwhem3zNuDmXbNRC/E9e2QIrr4q+i/JPzIEWyYREfU0zHnuNuSPsAicY8SPsDNwdkmaLn7gXy3A4eXPo6oxE6n3TdZHXHpGC5wDKt8Ox+YyRI/zXyPnm7yVXohEEcTI2t2iolU4hjwsfnG+Gh+ECNZmYrWatgirjgJ5C5aJuVoTNTJbBORimc3pKJQB5UvH0Jo2XIRgUntTRsQ8tUDStV2LlprXTIzXLgjUMmx5mGmkFOxegYfkdHJ9VJGbtDzE7ilCSVUU8mbIZcjpszFR5kbLAHZGoggs9X1StKUOeY+/oLZJEctabKybts1TQsirbut2Bf6s9x4sR6uxDZoJmJgdhdbyPa7APOB26YGza/6iU0G3XoMvP2c9KDbGG4GzDMoXj6wTFylq3JZKpM/wzDWXgbEIYpv2w+EniI0fnYuUi6WmwNkQhbTpcaheLr9fxajtOxIp6hmD5jc9g2VP13BovQP7m3JQaJ8m1oKIiHq6nhU8DyjAqNTrKDvZebXO4RH8h792q/EjvguNZ1oRnZCplVt29RA2OPajZUih123m9BnGQ3+yM9UM2mciz1aJnUYQI0KdFa+bA9ggRJC5xDmtEYDFIkMNB1W101lzWbnHVeMZHrJm1Kgx3os95a2I6ue+ZpVbjJrTtThRBSQmWQz7m49hk6oVbT26yVUrLUwYmw0cXe2qkXVs0i4Ohrvl+prWbfcelDdHIdbyTmvjdgX7rMVnuVNcDGSPVftg0kRkm/4+2HZNWDoF6WK/rDYdD9aIoH5iuvt+dCzRLkyc65IwBrPt+Yg+XQLHu/6++/G49ZY+qDnva3wrql5Vd3KwBvUVIpzupy5OLTrzrgMlp6ORb++5KVJERKTrOcGzbSzuHp+Cmn3rcUb/FYwc2RlIUb2dYkCu2w+8ubbPqya3uQE+U6kt0R8CcwbmzlSHbipuoKlWvBInTGkBsnbUWRPaDhn9ohA1crHpYmWxCFrVSENzOfYYQagMYu3tzOm2ul1BPuu1JysRlT1Rm5ceLLsC2mDbJcej/kKbL4Dqav1PKfOY+6h+v7JHaqkVR93SljpCH+Tksf6ZiKgn6xnBswycC3KAk5tw5KIqiyQyrcJRgrKYfNjnjEGHPO5orp1zmHM+g/CsKc6ItRwAz39RBFA4hlVGYO4vzaG7aEdwFwqZy+u6WNG7Dn3g0ep2BfusHSdU+olM2RCH7UH3uQbaroor7fvk3Wv9J2BgnOoVrh3eII5p33dVDFmDUnD90086LCdZPqtQOKQF+x2OALXfRETUE0R+8GwKnN8/FcmP63Rg7qQMnO/PQcsBBzaE0kSXDJaQjinOnFkft9CDcQZuYtoF3bTmedIyLBoZhcqTlreqzbTa25GLOqdt6FC2y9JnvRabtLz1Rciud6XUSMG2S0vZSSsM0BTdXlyoB9KHeSYEqdSTkTNdqUJeKSbSGWz3dwHaxubprNIe8vXzrAIREfU8ER88pwzL0W7Z9hk209XW89w5yPK8FR4hnLmTlpu/0pvSGi26HFltmFGk9bvae47HmMkDcWGzZ0sbVsiH8kpQ57wdvxh59SVuD3Lp5TJPOgp5j8t+14Nca0tkzmyhc9rY8jDWPAdZdnDGNKJ7PA91Pltv8E22/GBMFyWWXqith8dDf/44lqiH6dSyQ5nWkrZuV5DPWtHz1qNQ5xmQB9su+ZDlS8eQaM6vd7g/PLr2iRJUOo+XYryhAnnZHOGqo4lqP4tOezDR1MKJk+sCdLLpwVgtreNiRZsCW60ZSPl9ekS2xBGFtEc82nvOnoZ8+H9WgYiIep4e11RdVwhnU3XUGWTLD76b1otsnbBdslUNrTUPX8Frd+SreToiIqK26zkPDBJRB9NTb8wPCnZ/Mp2DgTMREYUPg2ciCsJoNcV3KgcREVFvwrSNMGDaBhEREVHvwJpnIiIiIiKLGDwTEREREVnE4JmIiIiIyCIGz0REREREFjF4JiIiIiKyiMFztzcZSY9tQ1qeGuwwRnNkrje7uZEvx9De8BbKW/zaZ/6L6o1y/tapm3K+gdDjDXo6+SITfZv8v6raOvlq6NnOt+nJt02a3n5HREREYRf5wfOAAtNruUU3zuprrXuQvFf0VwhrXduCpwlLFyEPx7CqqMhHO77GyzFWoaio897Kt/aJIrG8IpRUqYIIIV8nra13fR4WeQX98jXYYru0V1W387XcCWOQO6AGpYetvxjaNs84TkT32LO4SZUTERGRNZEfPF/chk3rXlPdJpTFjMfdQ42auMgUP3o27PdavQhYiLTpQNnyAhwW3UdHgLRHXoFNjRVzw5g5szEmQQ36kdEvCq3le+D79RcZiLW1ovwgX44RirUnKxHVL0MNedi9B+XNiRgYpBbfvWbZXXzmQOD0UZxRw0GJi6wcFGvHyeHlz6MKI3HHvIVqpJA9LYTjjoiIqHfqYWkb13C9SfVGKBksFQ5pwf53PUMieUveqDU0B8drULX8UTSroS9OnEYLknGzs/b5Gg6VtiDnfjumZauizmB/wWfagpbS8KJR3+pKFdE6Z7lVHtMXm2tyXekRWmdaF7kObyxdpsaLaeS6yn7z8o0yreu8VBUXedFjR35MGXb5rFnOwsghwIVzPsYlP4uhvmqXjz2Kw2+uUQO70HimFYi7xTW+/Ki4+MyHfc4YsXQiIiLypYcFz1lITb2OC9XWb2N3H65gqcSx3as2MWn6NHz2qqoxbMxE6n2T1RgLyrfDsbkM0eP812KGXUUDWm2x8FPvqpn/ov66Z5niUFS0CsfiCkPIbZaBs3l62S3BWue4QiRqaSZq3sjDYlNwHDUyGw0vifLmdBRObMCql46hNW24HnzL/O4ZiTj2kprvljrkPd7OFIuQZGGavRA5TfvhWH9IXP54ix+di5SLpTh0VRU4RSFtehyqtdrlYtT2HYkUy/ny4kJrvQP7m3JQaJ8m1oKIiIg89Yjguc/QOSrneTxSqv+CM0Y1bMQIHizVbp2N2kuyT68xjE7I1MrdTUZS0UhEV2xXf2ty9RA2OPajZUihj1vzEzAwDqir9ZOWMWkgElGHC6HkOu++IKZQTLXQWnrIlQrRNx/D0ypR8oQe7gJ7sWJPJaKyJzpriAOyz0SezTy9iRq305m7Leb9uik4lqp2OnO3K/escEtXmTA2Gzi62pXb7dikBdnDQ33AT15AmJfpZi8u1Eche6zH1iaMwWx7PqJPl8DhdffBEI9bb+mDmvO+xrei6lXjTsQa1ItdHdXPx4VW/2cxeFQUavc/gy9UkeHMuw6UnI5Gvj14ug8REVFv0yOC5+un1jvznt9vuh0zC8aijxoXEbIzkKJ628M270mk4Sg+ct6a92NArjMo0lu0WAS8XoQlDr3MRaU+LABWO2t1rapAg8rpnT9MBKj1rlpoLUjXAvJ0FDpTI0Q3I139RXATkhKB5gaxFD8CjQtCBvhRIxe71qt4sQjG1chQ7F6Bh15qwBQ5Dx8pKfKByJ395HJcaSEyjznosZs9Ejkow9FyNRyyhUh7ZCRw5HlUHVNFPvVBTh7rn4mIiMx6WNqGCKSrL+C6rS+i1XBEkGkVjpJ25ZvKVhRyMs6h7GXvmkSNuUbTscF5u19v0WI1sMBX02mqZYjXgUVu+cRW6DWrsRnzMTyuAZtOAsPtsoa7FQ3OqLYSJc6UC9XZ3WuB/dlb66zX9s0zZSQjFlGq14pWZ8qHq/O+uAhC1rhrFx5ieq8acj1fe/hJOW9XCybXDm8Qn4+/OwS6rEEpuP7pJz7vUAQnc+eLkFRRjFPv7FJl7px59w5HgNpvIiKi3qnHBc8pw3LQp/ocatRw5Gh7vqkzcDY9OOhGBs7356DlgAMbfD58JgNdIDHJT8KEloIRvGUIn5IGiouDPdhb0YDEYTMRa1PpH1prE+koDPkhQcVxApU2X03BCXIc0jHFOU4EqhPTRUC8yVLtudZKxshF4XlIsP5CgIsB84WE2Rls93cx1Ybm6VxcgbPrwUF3MnD2l3dPREREPSB4duU7690o7MOmA5H7s+/MN7XaZFj/Z5GqVbFmIsfZGofonE2QxWPM5IG4sNmB7W2+zd82FVdakS4fzJNN3MlgOS4d6c50ir1YYdcfEnSlR5hfhuJqLaMwTT7gp6dRuMbLWvES1LmlVxi1457j9AcLvduv9sOxRD0kaMzXPO/O4rqYmmx6yFNL67hY0abA9qb7piFJ9mQUuY4T0TlfwJM9Dfnwn3dPREREwA3Jyclfq35L4uPj0dLSooZImjVrFjZu3KiGIpPMfZ5yZZWfAFMGslPQ8FLnvSClR5BpG8NO+EjZkGTahsw1D2WfygdLc9G42ZV2Q0RERJ2rx6VtUNvIWmK/L/TQHv6T+ctqkCyZPyxdtSziw6SJyDZSWCyT6RwMnImIiLoSg2fS7F252plC4d3Wst7UW+IMmb7QFS8MiSzai2DEfixMMzeXZ1DpKI/L151by8EmIiKi7oNpG2HQE9I2iIiIiCg41jwTEREREVnE4JmIiIiIyCIGz0REREREFjF4JiIiIiKyiMEzEREREZFFDJ57APl6buNtcUPvm6xKiYiIiCjcelDwHI+sAvmK7jnIsqmiXqL5zQIcXl6AMj/v4yAiIiKi8OgxwXOfoXcjp6kGNWo4ksWPng37vVlqqL3iMWbObIxJUINERERE1GY9I3i2jcXIYUDZyXOqIHJl3WtH4ZAW7H/3jCqZjKTHtiEtTw0KN923AaPnLVRDwVzDodIW5Nxvx7RsVUREREREbdIDgud4ZOXnACffx5lmVRSRZA2xHfkxZShxbIcROodF+XY4Npchepwds0fHq0IiIiIiClXkB88DRiEHZTh66poqiERZmGYvRE7TfjjWH0KHbMnVQ9jg2I+WIYVhTAkhIiIi6l0iPHjOwqjx0SjbfxDXVUlEys5AiurtFANymQNNRERE1AaRHTwPyBRBZx/kaK1syG68a3hcBNWuyrQKRwnKYvJhnzMGHZJYkTAGs+35iD5dIpa1AYeuqnIiIiIisiyyg+eL27Bp3Wumbh9qcB1l20T/gbBmDXeCazi03oH9TTkotE+DZ+gf1U+135z3Cu4YFaX3WyUD5/tz0HLAgQ2HIzm9hYiIiKhr9YAHBnuWM+86UHI6GvnOvORdqC0+Cox6Un8RSn49yo60qnHSQqSpF6TkZADR6u9cL0uJx5jJA3FhswPby1UREREREbXJDcnJyV+rfkvi4+PR0tKihkiaNWsWNm7cqIaIiIiIqKdizTMRERERkUUMnomIiIiILGLwTERERERkEYNnIiIiIiKLGDx3sfT0dNVHRERERN0dg2ciIiIiIosYPBMRERERWcTgmYiIiIjIIgbPPZ7rDYSjn96ApP6q2INtXuDxAU19E4/9fqUa6AlseGrhA9hYlCr6U/Hizx7AHyfb9FFS8lD8UZRt1LrxWKCKI5u+zW7b2SH0/anvu85YXjD6+rw4XA2Gavh4sR3T8VQyMHHy9B50PBARkT+RHzzbxuLuuQ9jprkbZ7zamoA1qFpegMPLi1GrSsJGBs1/ehPJO6rRaB7WRrbfiN9X4umd7t0Pf6xGdqXLp/CDX7+NWW+VwvyidMu04LvtQdaCou4QdLbNgqLxyDi/D7Pk/hPdD3Y1qzFBtHOfERERhUvPqHluLsP7617DJqM7cEaN6IUSxmC2fRpCvXxoflMG2LNRe0kVWLFjHl7+D2DOzrlIy5yLp5cmYt/35+GyGh0OjQd/ieVT0p3dH36nRnSoZlxoAFrrm0R/ExpEfFd71WKQRwHYMDAWqDhTrYZ7gCsN4gKqCRfEQb/nqjhemhtQoUZJ8aNnY/boeDVEREQ9wQ3Jyclfq35L4uPj0dLSooa6AVnznA8c3XYQ11VRZ5s1axY2btyohkIjm6qrrKxUQ+2UPQ32cSmoOeDA9nJV5iTTN6bhs1c9AuT+z2LoIyMRrQ2cQ9nyR0XoGAJZ27x0HPrK/qYDWG0KnpOf+wvm4BXsS/wFZmTqZVXF5gB4JX4oA281pGvGBytvx7Ydes3z+Lpf4uWnVqtx7uT8F4111cCa521Mux6POv/GfdlhIGtDH4zFe7/eh9dVkU6mQEzHncaqyZrWYhkwyhSB8cjQS02a8eFbW/FckKsOmRbw0xE+apyd85c8luE2TpBpBlNlOoqu9fhWVfurr/Nt54xhYz7V2OS1fb55rl/FjrfxxAk1oNHnCa/yQKztM/dle+5Pj8/DbZs81kn7THMR1VyK36w5hT2iKPh2BZKFafZ8pFzcD8e7vfiinoioB2HwHAbdIXiWNVyFQ4CyzRtw6KoqdOMneDZoQXQcqkMJnmXg/M/A+u9XY+rvgT+sT1XDegBtBLey9lgGwNrwkJPOAFsGuDOwDst/tNQZhDf6CIB9Bs8/3oGni4AtU6biuHM40S3w1gL2c/r8PZcdFn6CZ5lWMRNG0OoZlAp+g25r5PzvqTfNz0SmRaDYT2CoDeeiwWegbl7PGG26JGdgbYEWlMMVlGrDMXoQCxWQan9oZj0wD7jPxLgXc6rxhFpXLdjNrHIPfuNK3S8inEz76Iq+nrXm4Lidn5UuHmPmFCIHZShZfwjXVCkREUWmnpG2Ycsx5T0XIEUV9xZZ99pF4NyC/Q5/gXMHkWkbMhidmqrXPBvD2khFBK9G8Ht590k0xiSqz2clhongtuojEThLO/6Ms01A3/6L9GGl79hfmHKe/4ICEaABi1Bwz2ARlP+nHjhLv5uKLedsGDzJNL2sCZeBueC27EnL8EZxMYo9uxfna3/bPqkYPkgEhc5ArRnPHa5GVGYqJqqSjvS6M3CWqnHiPJCUYK6ttuG2HPOwJz2YDClwloH36FS0Hi91LfvEPmw6r5Zl5IiLAFSmNMiaWz3nuT0BqYmYvxE4S3vKqtBqi3WvrR40KHC+dIKPwNlJfKZtfaBQcw2H1juwvykHhW1IqSIiou4l8oPn5oNu+c7vn4zGqF4VQGchY4Dq7SoyaFZBqnXnIFNE0+5QrXRM/R4GxzTj7G73Wmb3nGe9VtnQeMl3Ooeh8fSfXYG8XEejlnr3CjxUVIQiz+6JtdqftkuyDUki2JppalHCnCbR4bTWH1zLnjlIlWuq8cRbpcAI2SqEHO/9AF7UiFwRdDbj4zKrgbNL1+WFy1pz1zZv9Kjl3rNrqwjkXZ+Jr4ctM8R2R8mLDc/AWQb+O6qRMVXNe+HQdl4EpSCXOdBERBGtZ9Q8m1yvvtBl6Rtd4wy2OxwoOR2NfPtsjElQxd3ealyWteTyQUNZq7x0HHDwFbfgOBj3WupFSLa67R1a8yzJdASjdlV1KoWgQ8kUAxGou2p23xZBoxpncNYCv43fHI8RAaV7AC1zoH8jrjDufDD0li08a7jlw4GdYUHRdNyJUvxGbZevVlBeLzb2yT7UiosHzwBa7jMtwPYVHJ9wtQ6yqSEXPw05gJZpG3bkx5ShRHxXNxxm4gYRUSTrYcFzPLLyc9Cn+hxqVElvce3wBjgOtCDnfjumZavC7mzqmxifeRZbTC1p+Mxt9mk1jp9uRt+x/w0jVAl+/N9wV8xZ7LMyj46seb5cjY+bRRCmtRHtx+Vm1LYjFaCivjlAGkgzGq6o3uHjPWqe3WmtQ/jgrKm1HCQ2Y885sU4jcl0B9/Bc3GmrxnuWUz+CCLbPGsQ6aD02PDXDV361QW89xZfXi7fiQ4jgOMBnJ/d9aFS+c9N+OJjvTETUI0T8A4N9hs7B3cP6qCHg+slNeP9U5/5EdZvWNiTZVN39fVHq2A7t2f68VzB6umrqwqkVVerBwZvu24A7RnmGGm1odcMH7SG9xG36A4GS9lBgIvap9AnnQ30mxsOFUsAHBgX31jZcrXRIwaZtD8/WF3Tmh9/0h+9crTuYW7VQ3Fq9sNbahovH/E0tamgPKxoBc3MpPmzIxW3Gw4Vuy5TMy9Xn6Xqw0ViG9XUL3OKF5PkAY4j87TPtoT5XwFxxvBRJI4yH/Lw/C1+tk7g/VOlqZaTC67MO4SFHQT7IOxm7WNtMRNSDRH5rG91AtwqeI4VHIK3RyobhrCkIJiIiIupOelzOM0WIWxP1FjpMkicNE2V1uMzAmYiIiLopBs/UNbSm5QZjhrMZukosGlvnareZiIiIqBti2kYYMG2DiIiIqHdgzTMRERERkUUMniOcrLkmIiIios7B4JmIiIiIyCIGz0REREREFjF4JiIiIiKyiMEzKROwzFGM4uJivLF0giozmbQMb4hxxcVvYNkkVdaFJix9A8WOZWKt22b+i/q2Fr84X5WYzccL2rYW4wW7KiIiIiISekzwnDLuYcycq7pxWaqUrJqwdBHycAyriorw0Mq9qtQgAusFecDRVSgqeggrdqtiK+wvtCvI7ShrnygS27IKx+IKfQTIa7FE7Ieil44hccYLIpQmIiIi0vWA4DkeWQUPYxT2YdO61/TuwBk1jqzK6BeF1vI98AybdRmItbWi/KDvsZFrL/aUtyIxyU9ov3sPypsTMbAb1LQTERFR9xD5wfOAUchpEoEzA+buxUjzmJEO2PKwWKVBFBeba3JdqSJa51VD7Uqf8D3exUjDYJoFERERdaSID55TBqXgelM8RhkpG6IbNUCNpK6zewUekqkPWyqBZj0dpEjrlmCt+pMJS2cCrxvlq3AMeVhkyree/2IhErVUEfU39hU+a8Zl4FwYpy9jiUMVEhEREXWACA+e49EnBugzrC+qjZSNfTVIGT8HWTb1J2TBBAyMA+pq/aRlTBqIRNThQii5zhbsXbnElD+tp1BE9ctQw7qo7IkB86UnGoGzn8A6mL21dQGWsRcX6qOQPTbQGhAREVFv0iMeGKzZtw01qh8Xj6CsuQ/69lHDFJCe7rBIqwH2rrVVaRMLgNWmGuOwcbbgoXeLR0apEbq1T+i10UbKh1dKhi0PeWkIkKttgWMJivbEasvw1cqIfLBwZ7/FYvndo5URIiIi6loRHjxfw/UmILpvvBqmUOmtTqwGFvjKF1atTrwOLHLLVQ4HEZg/brTgoadlrDraqsYZ9mKFXaVsaC1feKyjTAcR5Ri5uM25zlqTd8NOaMvw2cqIoxjDT8p1CLGVESIiIuqRIr7mueZ8DfoMG4UUNaw9QGirQfVFNUwWyPQEBGh14gLq0MZWJyoa0GrLxkQ/0zpTRSYtwyKPmmc32jr4IHOrt1QifUbba4Zbr1SoPl9a0RBoNBEREfUqkZ+2cXEb3j8Z7XpgcDxwZJ0pjYO6lghuVx8F8h430jOMGuy12HS0VQS9qvzxWJS71Tx7tLRRrD886POBQMcSrFLL8PmCFyIiIqIwuSE5Oflr1W9JfHw8Wlpa1BBJs2bNwsaNG9VQaNLT01FZWamGQtfe6Q0y93nKlVU+UhckGchOQcNLPS91QaZtLMJqP9st0zZkPjhTNoiIiEjXIx4YpParuOLd0oVLBRqaoxDrb3TEmoCJ2VEBWhmZiGxb+FsZISIiosjF4Jk0e1eu1l5VLVMkvFMf9mLF6/oDez2l1Qm9lZHF2ivJN/lrZUR7oHFT+FsZISIioojFtI0w6AlpG0REREQUHGueiYiIiIgsYvAc4VjrTERERNR5GDwTEREREVnE4JmIiIiIyCIGz0REREREFjF47m0SxmC2fRqy1CD6P4uhT2/DaK17BTZV7G4h0uT4x57FTaqEiIiIqDeK8OA5HlkF6rXcbt0cZPmOAnu9rLwc4PRRnFHDuPQMTi0vwOFXj4INEBIREREFFuHB8zWc2fYaNq0zdftqRHkLrjfrf9HreNYsu8lCxoAalB6+poatWoMqGWC//Ay+UCW6eIyZMxtjEtQgERERUQ/X49I2Ugal4PrJI5AhdK+TPQ32+3PQcmC7q2bZJH50LlIuVvgc589N921QKR2im7dQlRqu4VBpC3Lut2NatioiIiIi6sF6VvBsG4uc1BqUnQq1ZjXyxY+eDfu4aJRtdmB7uSp0k4WRQ4CyY6GEzsAX78zG4eUF+OhIqyrxUL4djs1liB5nx+zR8aqQiIiIqGfqUcFzyrAcoBfWOmfda0fhkBbsd2zAoauq0FN2BlJaLuATf+Pb4+ohbHDsR8uQQtjv9Z0wQkRERNQT9JzgWat1vo4L1b2t1lnmMatev+IxJjcFNaWH0OF7Z0Auc6CJiIiox+oxwbOsde5T/Rec6XUPCp7BdocDJaejkW/38/Bewq0YGF2DCp/pHGGgPaSYj+jTJXAEqv0mIiIiinA9I3hWtc5lJ0PL5+1Jrh3eAMcB3w/veTVPF04ycNYeUnRgQ8iteBARERFFlh4QPMcjK7+31jp7cD68Z26qTqZ1XMeFc74DW2drGo+MRDQykeP2spTJSHpMb2njjlFRQEaRR6sb8RgzeSAu+H1IkYiIiKhnuSE5Oflr1W9JfHw8Wlr4Og2zWbNmYePGjWooNOnp6aisrFRD4Sdb4SiMKYXj3d5bK09EREQULj2qtQ3ypqVzMHAmIiIiCgsGz0REREREFjF4JiIiIiKyiMEzEREREZFFDJ67WEc+LEhERERE4cXgmYiIiIjIIgbPREREREQWMXgmIiIiIrKIwXMEyrrXjtmj49VQMAuRpr01UHYbkNRfFRMRERFRyHpE8Jwy7mHMnOvqRg1QI3qihDHIHVCD0sO+X7ftbQ2qlhfg8PJi1KoSIiIiImqbiA+e+wydg1HYh03rXtO7fTVIGV+AFDU+EslXatvvzVJD7uIzBwKnjyJ87wzMwjT7NPF/IiIiIgom4oPn6Jg+uN5kqoW93ojrqjcSyZSMwiEt2O/zldpZGDkEuHDOXOss0zLc0zFs87Zh6H2T1VAwZ3D0dDTy7bMxJkEVEREREZFPER8815yvQZ9hM1WqRjyy8nPQp/ocarSxkSQeY+bYkR9ThhLHdp81y/Gjc5FysRSHrqqCMLl2eAMcB1qQc78d07JVIRERERF5ifyc54vbsGndPmC8zHeeiYGfbsKmA+FLaugcMnWiEDlN++FYfwi+s5njcestfcTFQgdtW/l2ODaXIXpcKA8jEhEREfUukR88DygQQfPtaNwmc573oWXYTMwsGIs+anREyM4InqOdPRI5KMPRcjXcgfoMGckcaCIiIiIfIjx4jkdWbgqun3wfZ5rl8BkcEQF0jS0HOZHU4oas9XWUoCwmH/Y5Y8RWecsaJLbz00/81EqHQfY02O/PQcsBh1gX32kjRERERL1d5Nc8C31iTOHmgEyIMBONEffU4DUcWu/A/qYcFHq2fhG0eboo3Jys99103wbkZOj9lsnAeVw0yjY7sL0TaraJiIiIItUNycnJX6t+S+Lj49HS0qKGuoMsjJo73pT2cB1l29armujOMWvWLGzcuFENtZ9sqq4wphQO1eKG57CXvFcwenqm3l9RjDIUIfXq8zj1zi73cU6tqHp1NmovyX6Zb52BCtY2ExEREQXVA4Lnrhfu4NmdDG5z0bh5Q9hb2SAiIiKi0PSItI2e7Qy2Oxg4ExEREXUHDJ6JiIiIiCxi8ExEREREZBGDZyIiIiIiixg8ExERERFZxOCZiIiIiMgiBs9ERERERBYxeCYiIiIisojBc7c3GUmPbUNanhrsaPJV3XPGwPTCcyIiIiJSekTwnDLuYcycq7qCseijyilU8RiTm4Ka0kO4pkqIiIiIyCXig+c+Q+dgVEwZ3l/3GjaJ7khTDu4el6XGRqb40bNhv7cLtiHhVgxEGY6Wq2FJ1kR3xboQERERdUMRHjxnIWdYH9SUHsR1VVJzsgzXUzORooYjTda9dhQOacH+d8+oEsNCpD29DaO17hXYVKk5rcM2zxi/AUn91egQZOXlAJ9+4l7rXH4UZTH5TOUgIiIiEnpA2sZ1NBqRs9R8DS2IRh9XdBkh4jFmjh35MWUocWyHZ+icNH0aPnu1AIeXP4+qxkyk3jdZjdElTd+G1KvPi/EFKKuIQtrkhWqMRQljkDugBqWHPRM2ruHQegf2N+Wg0D5NXK4QERER9V4RHjyfQXV1H+QMc4V0KePGR2Ctcxam2QuR07QfjvW+841rt85G7SXZtwuNZ1oRnZCplTtVFOPUO7u03uayc0DcLbhJG7ImPnMg+lys8AraDWfedaDkdDTy7bMxJkEVEhEREfUyEV/zXHNgH2pSxzsfGEw9L4bRguvN6g8iQXZGuwP+2rI1qk849igOv/wMvlCDwWVh5BCg7Ji/0NlMXKzksf6ZiIiIeqcekLZxBkfUw4LaA4PX4xHd3CjC5whSvh0OR0nX5RbL4L3lAj65qoZ9cOZiOxxweOVjExEREfUOPSB4NrGNxd0FA3Fhv+sBwsjRVbnFwZunk4Gzv1xsIiIiot4k4oNn2VSdq43nvihbtx5nIillw4Mzt7izmoeTzdNF16DC3DydWfY05MN/LjYRERFRb3JDcnLy16rfkvj4eLS0RFRSRIebNWsWNm7cqIYii6xVzm0qwQavVjaIiIiIyFPPStugkMmabgbORERERNYweCYiIiIisojBMxERERGRRQyeiYiIiIgsYvBMRERERGQRg2ciIiIiIosYPBMRERERWcTgmYiIiIjIIgbP3d5kJD22DWl5arDDTMAyRzGKi4vxxtIJqsxk0jK8IcYVF7+BZZNUmUUTlr4hpnsB89VweMzHC9r6tG2ddPo8fG5vj6d/3i/Y1aAV8hhwLBNTtkGQ42f+i+qzfDEMR0n2NNjnjEG8NtBZ3x8iIuotIiZ4Nl7DPWqAKjBxe0X33AKkqPJeI+8VjH56m+o2IKm/Kg/BhKWLkIdjWFVUhIdW7lWlBhFoLRDRx9FVKCp6CCt2q+L2sL/gHVD7KvNrLZaIdS0qKkGlKiHJWlA8/8XFyKsvwRKHKjAzAl3PQHn3Cuysz8PitgS4YtqH5Oe1pQ55C7wD8LVPyM9yFY7FFYYW0HuJx5jcFNSUhvA6+TB8f4iIqPeIgOA5HlkFD2MkLqBGlbgZUIC7h7XgyLrXsEl0R6pTMKpgLPqo0ZEofvRs2O/NUkPBLETadKBseQEOi+6jI0DaI6/ApsZqwcSc2RiToAb9yOgXhdbyPfAMm3UZiLW1ovyg77GWNDegQvV2N3W17diuSCQuUgrTKlHyxFpVYKZfKNVV+b4kWftEOwNcxwlU2mLFEeXLXuwpb0ViUuC67YDfj4RbMRBlOFquhoMKz/eHiIh6j24fPPcZejf6lr6G90/5qkcSgXVuCq6fPOIMrGtOluG6bSBSXL9+ESXrXjsKh7Rg/7tnVIlB/Mg7a8fMP+5rULX8UTSroS9OnEYLknGzs/bsGg6VtiDnfjumZauiTrZ35UMosq/wE5gH4LzV35Zb+q40FK3zmW6g1177rH0NRNaQy/mZ189t3TyWbR4npxXDeiqLPt4zbcQ8zrsm3v926akPi5EnDo70Ga6/cZ+/mH5iOiq3LBFb7824A7HppCrwshcr9lQifaKv/dnx/H8/dFl5OcCnn/iodY7c7w8REXUv3T54vn5qPY5cVANe4tHXdh0Xqo2fyiyMKshBH/Ff34irepY1XHbkx5ShxLEdnqFB0vRp+OxVWTv2PKoaM5F632Q1xoLy7XBsLkP0ODtmj9YzQbu/+Xjh8TzUbZG381V6Rlqh5fzkCUtnAq8b064S4WAeFoUzt9mWh8WPx2KnnP9Lx9CaNsWZy2ukRDiXHeex3mI7FvfbqY8X02LkIlcesAiuF4+sQ4k2bRFWHU1EoSlADrRdztQHEQlWOvebRxrOpInItlXihJ90jUUjgWOvB7nQ0WqPszGxTXnmbRX4+6FJGIPcATUoPewdOve+7w8REXWUHvLAoJ7aMXPueGCfTN0AovtG0o9cFqbZC5HTtB+O9b5zNWu3zkbtJdm3C41nWhGdkKmVu5uMpKKRiK7Yrv7W5OohbHDsR8uQQh+3vCdgYFyA9IVJA5GIOlwIR66zm3QUGjWospuRrsplkDgF6c3HsMkZ5K3Fki2ViMqeaKnGc+/KJabcbD0dIKqf72SBtmnFsZdU7e3uPShvjkKsNvv5GO6WEqHX1Lqtt9iuVcZ4t2nF1MPca4X3rtzpFqi2e7syYhHlJ4VmfqHMa19tIae9Ag2mdQ6NnDYdw/2kfeytrfPxGQf/fkjxmQPR52KFz8C6Y78/RETUm/SA4LkPcgpmaqkdWs7zxXj0iQFaGv39xHZD2RlhecjRNu9JpOEoPnpzjSrxY0CuM4dTv9W/SKvN9E5fUC1aLABWF/m+zd8+IshUtaNaJ4JjN/UXAteABuKR8rF4ZJQaESbN5dhjCmJX2NX+0y40/F8U+KPn+eoXMeaUi+LiQjE3k3Zu14SkRNXnQeZBxx3Daq+HRX3Ziwv1xjqHSu6rVWiYKNffx8OhjiUo2hOLxWLbnLX1lr4fWRg5BCg75judw4q2fH+IiKj3ifDg+Roam4HrJzeZUjv0VI7G62owEsjbwo4SlMXkm5rYCo1t3jbkZJxD2cvP4AtV5iZhDGbb8xF9ukQsawMOXdWL9Vv9q4EFvlpoUC1avA4sCntTcxbEDXSrgfQb+HnRUz701kH0wHzV0VY1rjN4XBTILkjOt7nW35xyoXdGCyft3y5Zs+uLrPHWUlGMwFwG/GrY+7gIcqciIHlBpl+sFfm4INPyvYed0LbNmW5i5fshA+yWC/hEHdehauv3h4iIep+ID55rPr2OPsPuRpZ6AqjP0NuR0nwBNcYTQBHjGg6td2B/Uw4K7dMQyo1h5w+/6cEnN/KH//4ctBxwYIOPfNCgNYm7L6AOiRjYiTmuew+Wo1UEbzOdgdt8zBwZhco91h88dAZ3Wi5v6DXPRtvDIbUsoaVhpKPQ4sON2gN6zhxkPQ0jfUbgC5XA26V/lunD/MyhokHsV+/WLvSLKFMn7wLI9BLR731HQm99paHNzacETgFqveJrxoG+H21ons6k/d8fIiLqTbp/8DygQLXfPF67dZsyXm/P2WjvWT5Q+P5JIEfLeX4Yd99yAe9vO4hIqng2O/OuAyWno5FvNa+y/7NI1SKhTOQ4WxMQ3byF2mgtsJg8EBc2O7DdcvNd3YBsF/ilY0h0pjAUIvHoKlcgJ1utUOXpiELe47LfeAHHWmw6KoNQNe3jsSjvtJpnPS1BPiSor5/euT0waKrh1R8ONOc4P6Q/JGia1tWihrXtWvuE/nClMb3bslVwP8VcFir7cKS7pa10Hp/fD9k8XXQNKtpyfPfU7w8REXWYG5KTk79W/ZbEx8ejpaVFDZE0a9YsbNy4UQ1FJlnLOuXKKh8vSJHkrfYpaHgpTC9I6c1k0D+xAava0nRfuMh1mAG3oN062VTeYsTuaUMTfxp5LA3HCT/Llmkbi7Daz3Hom2y+LrephLXCRETUKXrAA4MUDhVXArXa0J7WFajbcSxBSZX11BKzgG8mtEKrtfb3wpwJmJgdFXIutayNZuBMRESdhcEzafauXO1MNfBuS3kvVrxupFAYqREUydr0psBJyzAlztTMXiiMVkJmpPvMW3e+4EW+oKWtgTkREVEnYNpGGPSEtA0iIiIiCo41z0REREREFjF4JiIiIiKyiMEzEREREZFFDJ6JiIiIiCxi8ExEREREZBGD597OaEJM6wK/Fpqo/eRLVvTjzbtJRMH55sjecCzKF8bo+8Jnk4HO72YYmoeUrxgP8bX/RETkW8Q0Vddn6BzcPawPava9hiMXVaFJyriHMSr1Osq2rceZZlXYSXpEU3Xyh/rxWOxs01vnyEy2WVyYpgaEyi1tfRtfqPS3/+XZ1CBacaybvRVSvkFwcXa5nzcsymCyEAh1f2lvTExXA0JVCYra0hZ1G4Tlsw723QvDWyn5FkYiovCJgJrneGQVPIyRuIAaVeIuC6PmPozUpjJcVyWRLn70bNjvtV5HJP9+9uh4NURdbe0TRSgqUt1L8uUynfVimb1YYTcte0sd8h7vXjW4Gf2i0Fq+x3cQOGkgElGJE6EGn44lrm0u0l/+4rNWuwOE5bPevQflzYkY6G86xwlU2mIR8AWfAWuWs5AxoAaloQTO2dNCOgcREfUm3T547jP0bvQtfQ3vn/J94k8Zdzsat72GI9WqIMLJGqLCIS3Y/+4ZVTIZSY9tQFL/hUh7ehtGa90rcFYuCtcOl6JlSGEH/di5brNrnWOZKLFO1jQ6pxWd6/a0Pl/z7Wrtb9Uro2X/G0uXqdvaIgA0buebXyntvMXvOW8rXLfMZecVbHnMu83B2O4LqFO9odD2RYj72ktFA1pVrzUen7XX67vd91m7169D7MWFetUbEn3bQjuGPLTxs243Gejen4OWA9thnDXM4kfnIuVihdu4m+7bgKH3TYZtnnFO2Ya0PDVSKj+Ksph82OeMAS/LiYjcfWPQoFsRStfZrp9a7zNNw1BzoPPTNDpGPMbMsSM/pgwlDs8fwSikPTINn71agMPLC1BWkYmceQvVOOkMtjtKOuTHbsLSmcDrplo95GGR1UBy0jIsGlmHEmetYGi3tKNGZqPhJbHM5nQUytvWLx1Da9pwVZMqgp1hJ5zzLdpSifQZVmtZZZBYiMSjq9T0JagbudgUOIl5z0jEsZdc6/3QyjbeMLcPR3pzOfZ0QerEhLHZiKo6YTkNZ/6Li5FXX6K22bsGd/6L5n0munakEXSc+Rie1oryg12wZl3wWWt3qcZFo2yzA9vLVaGbLIwcApQd8w6ro0c9idSrz2vnlMNbzyFpuvmi/BoOrXdgf1MOCpkrTUTkhg8MdgtZmGYvRE7TfjjWHxI/W95qt85G7SW9v7nsHBB3C27SB5WO+bHbu3KJKWd2L/aUtyKqX8AbyB7SMbyttXlVO53LrtzjGaitxRJzXqu8tY0At77NJk1EtrgMWO0MiNdi09FWpA8zh95RyB7b1npVUw3ujHQf696RXLXDi0cCx0osh84i6KxEiXOf7sWKPZWIyp7oVrvsORyaCRgYB9TV+tkbGbGIam5AhRoMhesORyHSTcdNxwvHZy1rywMdbxVoEBeQnt8j510qxwYcuqoKPWVnIKXlAj7xNb6iGKfe2aX3H/sItUjGzf31QcOZdx0oOR2NfPtsjElQhUREvRyD5+5A/sCpXsv6xnkEz2YpyA1XDrRbaxwyIItSIyzYvQIPaTXCavow3+aXD2sZ66UFTao8KBmk2fKw2Dmt53aJwPylY8DIxWp8qHnD5tzjVWiYaDHtw7SvtfUxraP1tBGx7kbNcNFOxD5uMRVByzdOR6FantaZH8IT1j6h33kw1imUFAf9s1qk3cXwuvtgbLe8k9DG2uy9Kx9S21yEVVemWD7WXMeQfvw4j1XLn3kbP2sPMnd6Zz95vPnKmZbL0OftWi+Zx6z1BBCPMbkpqCn1fUHuLQo3J6teL32Qk8f6ZyIiicFzd1C+HY5Q0y4a6/GF6tWZ0z4cYXqqfj5eeDwPMN2qX3U0tCxa88NcJfUi8ApTAC1rGgtlTamat0y9qFTjLGk+hlXOaVVnrsmWgb8qX3U0UQSVoQbQhhBq692WKfazaR3bljayFieqgMQkq3vcvD9V5xbMmgJF7eE46wG0/mDdamCBj2mM7T45PCwXWHsPlqM12AN2iuuBP/34ka1l6MNtaXWmLXdmJL32evhJuVxfraPIuwn6hYdrvWSqVpBa4YRbMTC6BhU+0zl8acVnl1Wv4qrddsDhfA6DiKh3Y/DcbVhNu1iItOmZaDmzyxQ8y8A5cNpHezhvs2s5zCHUPHuouOIdeDsDO/sLodVqS6Zb/DIf13LNs9Z6gfXc7b217XkMbD5miu2qPBl6KNZu4vOaYjX/V2vxIR2FXg8J+tGmh+P0h/n8BvPyAUeLQW8g8wvzQsr1Dp/2fNataAiYr1KHCz5SUa4d3gDHgRbk3G/HtGxVqGTl5QCnj/p8iNCTbV4RkhpPo1GlhkkycPb9DAYRUe92w+jRE0Jq57mlpb5z23keUICZ472TGoz2no32n911bnvP4W7nWT4EVBhTqmp6ZGsbTyKtrz5OajnyvCtXUZB/Pxm72lTbLGtwvYNWWQOp13C5j6/EsaOJyOu301I7ut7zds1XI2/XPy4CHdnffAwl5dkoVPPWptX6KyDbLo7dU4QlFeb2cGVtnCtgbj16DHXaA4ZW2zV2n15yttErW9pwS1kIpb1kWYtobmvZNN8QaNvvtz1kfzy3KdR2nr3XvfXoKlXr7b2/XOOsk2kSU674mU47HkJva9zrOGtTO8/69oXWxnR4Pmt9PrJm2d9nJddtOE4E2i+yqbr7+6LUGejK5yhy0bjZdz60bG3jjlGmfdZ4FB+9/Izrgly24DGogrXNREQ+dP/gOQJ07EtS9OD55v0FqDqmiogiVEcEz5EvDMGzB/cLcG9a8JywHYffXKNKiIjIKqZtEFGnkak7fnOCtVQQiy2m9CSy9Reb77QMjdYEXmitkGjpHKw1JiLqEAyeiajT7F25Wms/WrZo4d0qxVos0d6KGEprF5FM1iiLbdUeyt3kXassa+Ll+E5v7pCIiAJh2kYYdGzaBhERERF1F6x5JiIiIiKyiMEzEREREZFFDJ6JiIiIiCxi8ExEREREZBGDZyIiIiIiixg8U0Dy7W2yWTGts/rq5kgi3yaobZ/vptHkSz16zLYbTZ8Vv4FlPtpSdn7WjmWw9uLyzmWs3wt2VdAh5AtL2r4Mebx4N8HXtQIfw/r2yvHdbb19U837+TkOwnoMy7c22qchSw0SERkiJniWr+GeOfdhjBqgCpzikVXwsDZO68bxVOei/zC6/yj6KvNv78qHUFRUhFVHW1VJTyJ+iGUbuluKxDb6eHubCKwL0+QrxcX4kF/33A3tXoGH5LbItpQXeAcXxmddUp+HRRERSFFQQY7hCUsXIQ/HsEqMD/VV611jLZbIbXnpGBJneF/whvMYzsrLAU4fVa87JyJyiYDgWQ+OR+ICalSJWZ+hd2Pgp5uwad1rotuHmtTxuHtovBobmeSrde33Wr8IkH8/e3Rkb3OXmDQQiajECYca9jAhKRGoOmH5lcgRw3EClbZY+HnPH9aerPT/FsAuZARGS/x8XuQt2DGc0S8KreV7Iu8FLLv3oLzZ/9soLR3DAWuWs5AxoAalh6+pYQuyp4V03iaiyNXtg2cZHPctfQ3vn/J9Ert+ar1p3BlUV4tpYiI3kMy6147CIS3Y73y17mQkPbYBSf0XIu3pbRitda/ApsZK1w6XomVIYZtP3M7bulrn+5a+X860B70L7Xa365ax3nnUJDnTDFTnvO3c/hr1jiPXQ+5D1+1lr+3yu8/kNC9gmbr1/MbS+Wr/mD8Tj33WLdJJ2vd5yFvtbyxdpvaX2FfG/nFum3lfhnh8aoLtM/P8FyPP/OUS3FKXvJbvPu/CNFVsldux4L1t7svu6JSVEAT53rufU/TOdSx0g2NYBrr356DlwHafNcvxo3ORcrHCbdxN923A0PsmwzbPOA9vQ1qeGimVH0VZTD7sc8aAVRlEPVu3D55lcHzkohro0eIxZo4d+TFlKHF4ntCjkPbINHz2agEOLy9AWUUmcuYtVOOkM9juKGnTiVv+OBfG6bdt9fQMIO9x3/m/3kTQMeyENp3WbalEuo9bqf5ot4zrS1zTu6VOiHk/noc6LaVCdiWoTCtUP8B7sae8FVHZE8XPsDJpIrJtrSg/2B3q0KLEPpyChpfkeq/CseZ0THEGDsH2WTry+u3UyqNGFiJ2TxFKqqKQPVaffv6LIrhz7jMx7zhjn3Sl9n8eUSOzxf7S91XhxAaseukYWtOGq/2ibtXLY0AbDk3gfSYDuUIkHl3lGt+sRkniAm4mVqtx6vthSnlxn7f8rNQIK+TF4YxEHNOOE9FpryY3HQti/KKRdXrKheq6R617kGNYBNbOVBFjf1aVONNCuvoY1u7sjYtG2WYHtperQjdZGDkEKDvmHVZHj3oSqVef187Dh7eeQ9J0c0XGNRxa78D+phwUMleaqEfrWQ8MDijAqNTrKDvpqy6hO8vCNHshcpr2w7H+kDgFe6vdOhu1l/T+5rJzQNwtuEkfVPyfuKNGLjbVAJlr1uZj5sgoVO5Z4bxtu3flai2AGW6phksENeY8SpkOAP+3Un1yBkjuJiydgvTmY9jkDBbEsmRAqQK0vSt3otKWjYlqWRPGZiOqaidW7NaHLcmIRVRzAyrUoCftlvYVf2MDq9zykFoXFVg6byEH22etOFaixrttvzQfw2VQ4px+L1bsce0T6yrQEOgzrmgwBa7WtPvzMP2t+XhsvyD7zD5Ty/ld7S/fd/cKLDGN23uwHK1GyosIbqe4zTs0ch/h6GrXPnJs8vHds/pd9C3wMTwBA+OAutpQ93bgY3j+sHRTqoh+/CNuoDpGw3UM78WFetdFpRc/x7Dzzp5jAw5dVYWesjOQ0nIBn/gaX1GMU+/s0vuPfYRaJOPm/vqg4cy7DpScjka+fTbGJKhCIupRek7wbBuLu8enoGbfepwx1xxFAnmyVr2W9Y3zCJ7NUpBryoFuddaqmWqCnFrR0Lb4UON+e7ZQ/NRbJ3NYS6rSUaim96p9qr8QIIhaixPOGtkJmCjiEGfQGYyRDiJrz+zegZpxq3z4yY55iKrN+0zL0XbtL62bEcoeN4iAxb4KDRPlPHzcKZAPFr7UgCly/pZvqbfj8+hI7d5nHikGj+chSo1pLxnY+r+wFeTnoNXqqvEhtCAR7BjWj8FFwOttq80OdAxXXBHBsjNwlceCKa86bMewOOKeKMLOfnL/+Ujl8XkMyzxm1etXPMbkit+RUt+VGN6icHOy6vXSBzl5rH8m6om+cf78Jwil65Zk4FyQA5zcFJkpHuXb4Qg17aKxHl+oXp057cOBDZYfdIlCrNtzNRmI9cj59EdL+XDenpVd6LfV5Q+gMW2dCCTcAmhnbZVOe/jJRHsoSNZYyRQBlGOP1VpOo9WJk8N9BiTGg2knhlnL2Q1F+/eZeVrV+bgACEzm+OqBk79WRooXAKvlvEOoVW3z59Hh2r7PtBQD1RqFNp1MJ1HjwsH9wlbv3IJZxxJnuWxBYrHFADrYMax/71YDC0LPow52DO+trRP/NwJkff+51+yH4xjWL2rkxUFRkXGXx8TnMSzT24LUCifcioHRNajwmc7hSys+u6x6FVfttgMO57MrRNSTRH7Nsylw9vdQYWSwmi+3EGnTM9FyZpcpeJaBc+C0D99kbaH4mZvo+kH2TpcIwpT2MP/F0Gqe3clUAtUr6LfH8zDT+cPunWKi3eYWP82LFmSjri23+uWt3QCtTsgatA5pdaKt+0xrYUAEJWF5wKoOFwIFtwFr/f1o7+fREYLtM+0YcKWbaMGy58Wjc1+IgG2BqeZ59wWxF11pFXpQqfdboV1sjFxk+QFIrUY3RIGPYZn6ACQmteEC0e8xLPbRRKP5Rx+BcViP4SB3zfwcw9cOb4DjQAty7rdjWrYqVEJpns42rwhJjafRqNLpJBk4+35uhYh6ku4fPA8oUG04j9dSG1LG6+05G+09pwzLQR/xb59hM11tPc+dgyyLtafdjTNfzqPljKTpxhPeRYg68rwr706IHz0ZAz8taVMth6yB0mq01C3UxfIBJeePneuW9WIRuCKtUL/Nqn749DxX17RTrhwLoRbV43a4rKGqdz1UpN92lW25GuP1h7rcbzGrfGJbnd/m5rqb9u0zPd1CPmDl2m/hrx1vuw76PJwtO8ggTT6MKfuttroRZJ+J42y19pCsXj7lyiq3h/7WlsgHF41pFyO23FzzrOfhG2kVi/vtDK09dFmrrD0k6FovcxqNkXphdO7fza4T+BjWc5idqSZG56wx7ybHsLzbt7kM0ePMFRUyreM6LpwLUP2QUeRsaSMn7ig+evkZVyVG9jTkI9QKDCKKRDckJyd/rfotiY+PR0tLixoiadasWdi4caMaCjfZVN2TuHl/AaqOqSJykgGGDFra9BITmfv8eCx2+kpdENo1725Npm0Mxwk/260FqzIfvA3b3XP3WWQK9nnI3GV5wRC+3H55USwuMvaY00/0suzycC9Hph75SNmQ2nAMy1Y4CmNK/VZCyKbq7kjYjsNvrlElRNRb9azWNqh30ZryaseDadptd/+tg2i5mx551z2CfTjSA7QyIltLaFMrI+39PCjsgh3D4U9N8vHMhNZsYVta9QhAm6f/1KO2HMNaOgdzlInIAtY8hwFrnjuZVmOs557K3Mp2tX0ra6i0p/3lQ0zeNbGyZk7LY60qifza1CD7TaullOk5fvaFX+H8PCjsAh/Deq2wzPOWDy+GpWbY+Z1yCd9xIe+a6DnWvta3zcewBax5JiIDg+cw6NjgmYiIiIi6C6ZtEBERERFZxOCZiIiIiMgiBs9ERERERBYxeCYiIiIisojBMxERERGRRQyeuz3ZVN02pOWpwY6WPQ32OWMQrwaJiIiIyCViguc+Q+e4vZbbyfn6btWNc3+tNYUiHmNyU1BTytfLEhEREfkSAcFzPLIKHsZIXECNKnFzcRs2rXtNdZtQFjMedw+N7HpT+ZpY+71dcBGQcCsGogxHy9WwJGuiu2JdiIiIiLqhbh889xl6N/qWvob3T1mpC72G602qN0Jl3WtH4ZAW7Pd6TexCpD29DaO17hW43oDrSuuwzTPGb0BSfzU6BFl5OcCnn7jXOpcfFRck+UzlICIiIhK6ffB8/dR6HLmoBoLKQmrqdVyojsSkg3iMmWNHfkwZShzb4Rk6J02fhs9eLcDh5c+jqjETqfdNVmN0SdO3IfXq82J8AcoqopA2eaEaY1HCGOQOqEHpYc99dw2H1juwvykHhfZpYg8TERER9V494oFBIx965tzxSKn+C840qxERIwvT7IXIadoPx3rf+ca1W2ej9pLs24XGM62ITsjUyp0qinHqnV1ab3PZOSDuFtykDVkTnzkQfS5WeAXthjPvOlByOhr59tkYk6AKiYiIiHqZHhE8y9ppI+/5/abbMbNgLPqocREhOwMpqretasvWqD7h2KM4/PIz+EINBpeFkUOAsmP+QmezPsjJY/0zERER9U49Ing2u159AddtfRGthiNC+XY4HCVdl1ssg/eWC/jkqhr2wZmL7XDA4ZWPTURERNQ79LjgOWVYDvpUn/PdMke31lW5xcGbp5OBs79cbCIiIqLepPsHz852nMdrqQ0p4/X2nI32nl35zqoc+7DpQOSGeM7c4s5qHk42Txddgwpz83Rm2dOQD/+52ERERES9yQ3Jyclfq35L4uPj0dLSooZImjVrFjZu3KiGIousVc5tKsEGr1Y2iIiIiMhTj0vboNDImm4GzkRERETWMHgmIiIiIrKIwTMRERERkUUMnomIiIiILGLwTERERERkEYNnIiIiIiKLGDwTEREREVnE4JmIiIiIyCIGzxFjIdKe3obRjz2Lm1RJZxnx+0o8vVN1f3oTyaq8w019E48Zy935FxRMVeVWDB+PjT+bjqfEyk6cPF30j8cCNYq6H/NntKDoAWxcOBQT9VHtlvzcX1zH7+9XqtIwCXKcdeR2ERFR14iY4Nl4DbfxWm5v8cgqkK/onoMsmyqisGk8+Essn5KO5d+fh8uqrMPtmIeX5TKnrEOVKqKuZMNTCx/Ai8PVYIS4/NTt2rG7+mCzKvG0CAV/qsQPf6wGiYiIAoiA4FkPikfiAmpUiS99ht6NnKaagH8TKeJHz4b93iw1ZFiDquUFOPzyM/hClVAAVxrQiiZcEJH+nqtNQHMDKtQo6n7Mn1FFvQhyG5qxRx/VvQU5zgJvVzzGzJmNMQlqkIiIIsINycnJX6t+S+Lj49HS0qKGOp6scc5pXI8jF7Mwau54YN9rol+NNNjG4u6Cgbiw7S/oW3A7Gretxxl/lUwdYNasWdi4caMaap+se+3IH1CD/Y7tOKPKbrpvA+4YFaUPVBTj8Jtr9H5BjhuM02gdNRJJOIeyrUDO9Ey3v3Ob3uAxn0Bk2sb4ul/i5adWqxKTH+/A00WD1YBeQ+38Oznunjqs/g9gztJx6CvLzq3D8h8t1UZrAk3vtBI/3FmAqytvx7YdqqhdUvHizwbhxFsNuOfBXGh7prkUv1lzyhXYyNvxU1PVQDM+fGsrnjOq3OW40Q34zRbgR8b05/dhVnG1NlqvoZ2OO513QKqx6df78LoakrfyfzrCdXukYsfbeOKE3i/H/Qh78V7cdMwcpJeZxwcnt208MtSQa730dbrt3Fb8YJfx5fAs81hv0z6RKQfG+pi1HjfNz22feax30H3WPjI1Y9FY54rjAx/HivY3idvcjj95bM8QXxdPvo/DDpA9DfZxKag54MD2clVGRETdWreveb5+SgbOasCneGTl5wAn3+/UgDn8ZC2UCJxjylBiCpylL96ZjcPLC/DRkVZV4i561BB89urzqGrMRE5+PT569ShaMu4QoZDQ/1kMHgVUvVqgzaNMVoE1HsVHFgPnwERQW5QoAhWZWqF3XgFHzDgsWpqIfXL8ygNozCxw5S5rgXOQ6TtMKmY+GIv3fv02Zv16Kz5ELn40WQVfyUPxx6kxImCW40S3owl3PuiRM23LxU+N6d8qReugXC3vVZo4eQLubBCBoTZv2bkCZxlE/nREkwimjXlXI2OqnjNriBoxHffUb9XG/+Z4MzJGW8+TXVAkLgpMy60YNF6lWTRjz7lmRGWmmuYVg1hbMz4u0784EyfnAluMad33yevFqkz8qQyK9b952xSIi6A967yzXN8u6/usXaa+ial4xXkMrT4I3PXP1nLzj/9ITvNLfNAkviPFXXAclm+HY3MZosfZMXt0vCokIqLuLPIfGBwwCjkow9FT11RBJMrCNHshcpr2w7H+EELekortqL2k99bud0/ruGn4EEQ3nkajGt9cdg7oGxfGhw5tGDxpker3RdYCTsVx2bvjzzjbZEPCrXJgEQruGYzGg6+0qTZ5wtI3UFxc7NW9YFd/EJSsTTaCWhVYxsVoQxNz0kRUtddV03yiVASNqRjulutrmv5yNT5utiG2nzZCN2iQe+CoseGp0aloPV7qCqZP7MOm8zbclmPUmgrn9zmD0j1lVWi1xbpqkoN4vdgUqKMaJ84DSQn6vPfsKkWFLQ0Tjahy+CBknC91bueeXftc2+yxT4KrxhPmWmSx4AoRnA90i2CD7LO22jEPfzAFu5d3n0RjTCJS1HB7tP84s+DqIWxw7EfLkEIf6VpERNTdRHjwnIVR46NRtv8grquSiJSdEZYfel++uCKiob5D0Le/PmzLkSkdH4kwJhyW4g8rDwBjf6FaM9iBEWqMU9NJHHcGx6ux7fvp+MPvZH8mEkRc1nipbTV8e1c+hKKiIq9uiUP9QVvE2rRa2Yw4m1b7u/FnD6jOnIKhNFdhjynQfG6NK0Vhz66tIiBOxUw1/R+NGm2l9mp49r5PMj3Cud6eqRYymHYF6guyUlFxxhTwyhp307Tm1BIrtNYknNObUkcMAfZZ++gP/Dlb1DBShMKgQ46zQAbkMgeaiKibi+zgeUCmCDr7IEdrZUN2413D4yKoBkfeunWUoCwmH/Y5YxDWm7eX69GCKKQ9sg2jn96GnIxzKAtLyobibBFD3i5PxAxfAbRP5yCfpWqrDqkRND3MJXN5nSkIqgsl0NPTHGS3D7UiEDcH0EZNsM6GgbGqt720dBMREJvSKjadV+OU10WwrKdupGL4IBFMO7cpFS8+mAuYtlumjFglc7Vnivk501Fkyoga19FG/P4XuAsHsFodh1p6kBrXXp1S85wwBrPt+Yg+XSLOAxtw6KoqJyKibimyg+eL27Bp3Wumbh9qcB1l20T/AXPWcCS4hkPrHdjflINC+zSEK/S3TR4JHHley3fWu0fDVOvs7fKlOtVnxWocP92MtCKrwba7sNYIiqDzRyNszlpYLcAcMSE8+bhokjG5olIhRuS6UjqG5+JOWzXec+YOW2DUEPtsM7gZDVdU7/Dx3g/5yXQKmQYyfBCSzOkjirNWXO0Td8240ABkZLkeCnRjamliQZGPmueOdLVaNaG4CAX/HGrN82pcFgFr2h3ebUB3eM2zDJzvz0HLAQc2HI7k1DMiot6j+wfPAwpMtcpAyni9ltl/e8+R7cy7DpScjka+M/dxMpIe02uNtRYzMoq0/tHzFqrxgTXvOgqMelKfxtm9oj9M2F7ygT/jVrnstIf/VH6zBbL9Xb222jWPx54LlD8dTjbc+aBKMXgwF7XmliFO7FMPCRopCLLzePjNL9lihXm66drDg84c5l1b8ZvjMc6Ujo3ag4nmPOV2uHwK7503bdfoBnzoUfOstfwhly+WazwoqJPlzciYqqZ9MBYf+6h5ljnV8iFEY/uMGnU9nzoXP1Xl99SLYW1Mxzu+Xj6IOlcdQ79AwmlzzbMrpUNrjcP4O4+XpRz/0TpUOefRWcdhPMZMHogLm9nSBhFRJOn2TdVFgnA2VRdutnnbkHr1eZx6Z5cq0ctyEKam6jpFRzRVl4sGc/NzRERERBZE+AODFNhk3Bynep0WIi4DaLl6Tg0TERERkVUMnnu0Xagt9kzbKELUEfeaaCv6Gi1q/Mla+7lhMfVNPKbdRp+LNFVERERE1JWYthEG3Tltg4iIiIjChzXPREREREQWMXgmIiIiIrKIwTMRERERkUUMnomIiIiILGLwTERERERkEYPniLEQabKpuceexU2qhNpu4uTpMN4auKDoAT+vuu4Aw8d36LLau13yhTjGW/bC2iyhs9lB2bXtleyBuK23x9sDg+myY6HHki8hUm+fVK+Sf3G4GkVE1ANETPDcZ+gc36/lto3F3drru03dOOPV1hQO8o2EQ++brIZCJF/h3ZltQ1O7NR78JZZPScfy789D2F7AuGMeXpbzXGl+dXb4HP+RmLeY/+qD3q8UJyIiCqcICJ7jkVXwMEbiAmpUiZfmMry/7jVsMroDZ9SIyBQ/ejbs93peAKxB1fICHH75GXyhSqjt9lxtEsdNAypEf0W9CLgamrFHHxXReup2dSTus3BrkrsQtVfF/y43oxbNaLiiRknZ03yc34iIIke3f0mKrHHOaVyPIxezMGrueGDfa6JfjZRkzXM+cHTbQVxXRZ0tnC9JybrXjvwBNdjv2A7jEuCm+zbgjlFR+kBFMQ6/uUbv18h0jjtQ/2o9Uh8ZiWhZ1HgUHxlBdt4rGJ3zET66Os05jxbTGwa1eSdsd82z/7MY+kgcqpc/ii/MyzXzWgcf5G36pePQVw26nMWWKVNxXNZIF0HvV2O0Wmpn2Ur8cOedOLmyDuON+TQdwGpzbaj294PVQDM+WHk7tu1Qg+0hUyuyzuM39bn46QibVtR6fCt+sEsEA4K8zf/TuFLMKq7WhrVb0w/G4r1f78Pr2rQN+DA2F3famvHhjircNjUXUc2l+M2aU9gjx49uwKZzaZjpY96SNn81DqjGJjlfNSTTCu6p34rfY4Lzbyp2vI0nTmi97SbTH8bX/RIvP7ValeiSn/sLFg056bb/vcrcPg+gqjgdf/idGjBox0Ui9pk/dyxCwZ9+gYT3XH+vzTtxG5b/aKleYPGz9pquvYIcC+IEhKcWTheftRo8v891XKhxsYffxomsBzBzkCwTx8RbW/GcsRPl/KemqgHvY0F+3vp0knlamRoxCCfeasA9D4rjSxutjjHZb4H7ceaxXtr8xyNDDek8l+8a77negcVjzJxC5KAMJesP4ZoqJSKKFN2+5vn6KRk4q4EeTf6giMA5RvygmAJn6Yt3ZuPw8gJ8dKRVlXjKRI4W8BaIvytGbd+RSMlTo6SMIj1AluNfla/r/gmS+qtxARjLLavQA25tetkFC5wl4zZ98Vk96JX9WqeCpt99iCoMxrAfa3+tGXGHCI7OfWgKqgZjhhZoyel+iQ8wDnOeW6SPkkFYUaIIotR8i+tw19Iw5tIOGq8HyL9+G7N2VCNqRK6WE2vJoFwtYNp03oY7p+pBdYUtDRON3BVbLmYa836rVGz4BDxljBPB1E9HNImAWYwT3W+Ox2CmRw5u1AgVvGvjm5ExuuNzdC/vPonGmGEYMVUVCCmJNjSe/rMKpsXFzh0fqs9Yfh5nkVYUps+joz/rYMzHgsfntaBIBM4NImDWPq+t4qJpvJ7ra5IxVb/gkX+jHRP5RrAsAtCpMSIg1T9r2XleRM2MFQGxGvcb8cW480E9N1uXipnaRZscL48xcVxZzS0WF3wzsde5XG3eM1zH0YIiERjLCwE5XmyzPPNU7DACZ3lRMB5JImDWp9+HWnFMWs9rvoZD6x3Y35SDQvs0sA6aiCJNz3hg0JZjynsuQIoqjhxZmGYvRE7TfjjaVBPTiqpXH4X+s7sG9SLYjepnylGWNdFGwHtpF642RuHmLk9CXoodB5uRdofxcNdKDMtsxgfrzTWGsobRqKFcjeOnm9E3MVMbSp40DDj4iqv28Xf/iQ+ajGB8Pl4oLkaxZ+dYhgnaH1sga/GMGsQT51GBGAy0us/EtJtUTXDr8VJnrbGTed6Xq/Fxsw235egB14KsVBGkuGqa9+wqdQ+8JdP0e8qq0GqL9agh7ADiYmjfORsGT1IXL9rndRb7nDXUS/EHc22vdnGUiGRTsN1WgT/rYMJ8LKjPK7afHEjF8EHV2OSsaW7Gc4fFhVZmqvvFjAhCjaD49TPib2NtpvGuz96dCIxH2FBx2FWTvGfXXnzYLJbpDFJlTbBxrFTLwxRJCb7m5cPlU3jCFKi7H0dyu0SwLNdV0rbZNO/kVNyGUvzeOb3YB/IiThy7oTjzrgMlp6ORb5+NMQmqkIgoAkR+8Nx80C3f+f2T0RgVaQF0dkanr69bcN1FtNrMzDv1GsQf34m0c9uCp10kpGoPH8paz75jf+FqYWHnL3BXjP4nwFosKSpCkWdnX4G96i+6j2ZcaFC9IpAaGKvXVG78mdF53joXAfm5ateteREE/cCU1tGRjn90Fn2HfE9/+FP7vMx3CTxavNg5F2mqvL0Cf9bBdMyxoAWSyTYkySDX+VmJzpSCYXAGodKJfZjlTK2oxhNaTbZs7UP/rN3vbnjkCoeVrD02rbeR+qHRc5adwbAMlm3N+LhMBcv9YhFly8VPjWlF50r/aIs+yMlj/TMRRY6eUfNscr36QpflPrdZ+XY4HCUoi8mHfc4YxKvijtR6Rc957lI7/oyzqgZRpmxUfWQhT/VqtTPn1tkqhKnTc2bDUNvYafSAWXu4SpE5zMbtdL0z56J2IVmbrFI3PD8vmWs8I1PmsxufxTpUqXHh4P+zDqZjjgXX5yVz0j0+rxDyjvWLH306LUXHLYA2argNMbLSOiy0dBOUOlNCjNQMnbqgGzTeGVjj+F73Y1DWxhvTGp2zBt4a+XxH4ZAW7Hc44Hg3sh/yJqLepYcFz/HIys9Bn+pz/lvm6LY6Jw/wpvt+grS+51B/TBVIcbeotqMXIs146NDki6utiM6a3Lb2pT+p88qVdVmNbe+dRdo9f8H4hAPYESgYmvom5oy1OQM2rRZ07KMo8DnfTqh5dt56T8WLbrV2IRouHyysxgktzaMZe841I2OqZw1kd7EUJ8/ZkHDrSgzz9Xk11Tm/dyN+H3rNc9/+KiXkxzuwSHzWhsCfdTDhPRYmTp7g+ry0dIZUzCwKLV3BH63VDyc9DcOczz5xci4yTClBVmjtVosA2Gc+srNVERuemmE6hpOH4h6ZjmIKjN0eBpRpTLZc/MgjtzsU2oPRPp7vICKKBN2+tQ0MKMDM8d5JDTWq1Q3ZGsfdw/qoUuD6yU14/1TnPr8dztY2JNlUXWFMqaqNmYykx54UAa8+zsnZ4oVsbWMaPnt1Nmov6aNku8ypV1WLGrK1jel6nrDuHMqWG/nRknn+rajaehoJ0/XWNnz/jWCltQ0TrQUEZzCkWttQQ9qDZjvnou9BzxYe9HJzAObVeoNH6w7e824j1SKGq+UC2bJALhqcLQ2YW1hoVi1qmFrbUNNmqJYxfrArxjV9P/fWFfSaS/e0C/dWEARZy6fWxWhtw3rLBqHx19qGk2pFBUE+r8aDB9A4dhiuqlYx3I8Bg+nzUvM1WlXZcnoYZvhtbUPy/Vl3SGsbAT8v87Ggc7U8oY+TD4/6bA3Fa96eLV7on7ertQ3zsj2PSd/HhjG9V4ssWgsxroC54ngpkkaoY1gMuy9X596ihly+e0qR5VZfZFN1gypY20xEEav7B88RINzBc1jJ4Dm/3tV0Xbcjg64CZ5Dl4q+cOlLQ4Lmb65Dg2e1CqhcwN72oivSyNHzsEdwTEfVGPS7nmSKLdnvfyoOCRNQ55AOBqtcwMSdNlDXhAgNnIiIGz9Q1jJYZZiQcwOpw1RJSWDhbtoig16obx5N3agiF7MQ+bDrv3oqI3va4e3oREVFvxbSNMOjWaRtEREREFDaseSYiIiIisojBMxERERGRRQyeiYiIiIgsYvBMRERERGQRg2ciIiIiIosYPHd78u1+25CWpwZ7GKOJseBNoy1CwZ8q8cMfq0FFvhRDTutZ3i7ybXaB1kW+Dc9Y5507MEIVt4k2L/d5uO2T369UpdbItxNu/Jn+em/5lriNC12vd/YiX3yh/tZFvjkuyHRtoK1XgNdYa+uqmkX7Yzte+6yRLzYxr78c/tl0PCU+UPP+CYcJS99AcXGx3r04X5V6mLQMbwQa74c2b8cyTFDD3Vc8xsyxY1q2PnTTfRswet5CfYCIqAeKmOBZvoZ75tyHMWqAKvCQMu5hbbzWjctSpaTp/yyGPv0K/IYk8i2Ejz2Lm9RgZ2s8+Essn5KO5d+fh4h4B8OOeXhZru/KA2hUReF0/Edi3mL+qw92zCu4u6PXi9/GrF+/jU3nVUG3MgHLHCpA9giC9658CEVFRVh1tFWV9ELZI5GDMhwtV8PtFqTCINj5jIiog0VA8ByPrIKHMRIXUKNK3OnjR2EfNq17Te8OnFHjIlP86Nmw38sLACsuP3W7Fmj+4XeqoJfbc7UJaG5AheivqBfBd0NziK+VrsYTIoid1ZNeR32lAa3q7Xjm/WOQ37fZo+PVkKf5eKF4MfLqS7QgWetODscLdjXait0r8JCc7om1qiDSZGGafTbGJKhBD1mDUlBTegjX1HDkkjXo/reTiMjQ7V+SImuccxrX48jFLIyaOx7Y95roVyOlAQWYOehclwbM4XxJSta9duQPqMF+x3boWyRrYZ7EzfuLgelFSNLKzqFs+aPQ6yUXIu3pafjs1dmovaQVwDZvG1KvPo9T72SKccY0Zq2okn+PZzH0kZGIVqUunvM3zaPxKD56+Rl8IftljXXOR/jo6jTcMUp/oW/LEbncXVq/FTJFYXzdL/HyU6tVidlK/HDnXKSpIamq2AiUzeOa8cHK2z1e8S3TPH6Bu2LUIM5iy5SpOK6GvOZ9bh2WG286lGkb99Rhy+lhmKHeWCdrx73WUaZcLE3EPrf5Sh7LNs9bkvMvGqwGJM9108mUlEWJ29ynbS+ZwjDVnD5R7XxznExp+OkIVZ93fh9mFVfr/U4ypWM8MtQQmkvxG3OQ7THvih1v44kTer8277hSbMJ48X3Vy8zjDTJ94576rfjBLo9ad7d5N+PDt7biOdNtCrd1lzzXLSAZHOYj5eJ+ON51P4/I1InF2eVYZV+BvarMF+3v+u30CpDnv1iMQnWQtR5dhYdWes5F1mqL4Ny56pUoKVoCORfPZRvzqtxShCUO7Y/9kPNcBJTXIW9kuvjSlKAEhV7TavMfabyI27VcNwljMPv+HOB0CTYc9hEea+P7otR5vtLTNu5I2I4yFCFHHSy1WwtQdUz2GeczY9j194ffXKOdu4xpzPTzSpDzmen855qHeZw8l92B+lfrkWqc98znMyl7GuzjxMXAAQe2h60mnYh6mm5f83z9lAyc1YAPKYNScL0pXgTWrrQNf6kd3ZueN5gfU4YS0w+RIWm6DJALcHh5AcoqMpFjKadwDarE3x9+9ShatIBYn/7wcvVjcukZnJLDW8/pPyLO8UbgLH/oihAlfrj08udRhZG4w7zsjCL9h0/NJ3pUUZhup8oAdC76GikdU36JD5rUKM1S/EErXyfWyVvyc4/irqsiaNX+RnbuwemI39+Jk85xYh6Zc93zpmPGYYYMXOX4lQeAsY+iYKoaF8SI34vA2blssd4Jc/HYcyKYkWTAXZQogn217A5K/fBJ5jhPjRGBp54iMeutUhFauOzZtVUr/81xj8BVWVA0HknH9b/ROrfgVATWWedd43ZUI2OqR27xoPFaYOx3vD+e672jCXc+aJpWBNb666Ndyw7NGWx3lKAsJh/2OWPEN9EwAROzo9Bavidg4BzI2if02uoSXwepETiba7V9BbCCFjjHHcMq8TeBA2dDFPKyG7DqpWNoTSvElCurtNSS9GEq5cT+ggic60TArC931dFEFHrmV8tAUgTOLSKQ9Bk4C1l5MrA+6nW+kucFeQFvnBeSpltLs2h+U51nxJdCBtz6eadAXZAHOZ8JMhDPiXOdyz46AqQ9Yl62OHc+EodqbXwxavuORIo5PaR8OxybyxA9zh7gbgQR9XbdPngOLB59YoA+w/qi2kjZ2FeDlPFzkBWeCK6TyJqvQuQ07Ydjve/bn7VbXT8QzWUi2M24o+Nz/vKKkNb3HKqdNcm7UFssfrjMy5ZB95tr9P5jH6EWybi5vz7YLj/+b7gLB7DeZ420RZl3+n2Y7/iPzMH0UpwUu7RvfxXgSk0HsNqo8d3xZ5xtsmHwJNN4v1ZiWOZZbHHWFq/GtvfOou+Q72kPII6YMw44+IpHLblVMoXAlHtrdBYfKluQnys2fK9bjW2oojJT/TxIWI0nzDXVJ86jAjEYaH7q8vw+V42yNj4Vw4frg4FMzElzX+8Tpfiw2ZjWhqdGp6Jih1573nbXcGi9A/ubclBonya+kZ3APhN5tkqUBEnnmGgEzkFqvz1V7jH+vhI7PWq85w9LR+UWV6C+d+VOVNqyMXGSPqyljo2LRtnmQDWwWcgYcB0Xzvk4Y1UUu+5AaeeFTMR1+EPPC5EyKgq1+101yV+88+8iEDcvW9ZEG5UDa1BfIY7pfpO1Iaerh7DBsR8tQwqZPkdEPkV48Kyr2bfNlQ998QjKmvugbx81HAmyM5Ciei25XI9OS5xprHfd0owgMhd6y7nBmKFarXDW/Bpk6oTRooXoZmSqcp9W4/JV1RvM1FT0hWu5WueWotEea7HEWUNp6kIMqtrq9eKt+BC5+KlqFeNFj8DX3GKGbNHCx913kyaZjm1JRpwNUSNkKxnGvKfjzg69ckxBbifUOk5IShRXwu75115secgT1w7tqf32NgED44D0GeaLsEKkq7GyUuLWW4KfQONH5yLlYikOBf1unMNnnXZ7pRWfhfOp4wG5zIEmIi8RHjxfw/UmILpvhN9ek7cKfd429iM5DtGdFdT2jXNvhUMuW/V2d0arFTIto3HsLzxSJwZr+dP6+HQRaOujfFuEZPED2njJai24zGF2zVvrwtKSSPtqntuvGc+tUakRb5UiaaorgJY5xzMHyfxpNf7X+wIHhYhBrK0ZDVfUYBCt5nQR1XnmS7ePOW3KSFPYiwv1QFT2xA7Zv3tr61RfAM3HtNQLjFwc2kOKFsj8Z/cLsYewYrcco9fCOw60IOd+VxN07uK1ALvmvFfChg+ZuLlvmINav6Jws1sbk3LZqtcqmcdtz0f06RJxXt5g4eKAiHqbiK95rjlfgz7DRrlqbgeMQo6tBtUB8qS7J6u3jScjKT8TLWd2mYJn1w+GlvPnWeV36VO0BrptKmuy+w5BX890C3W7NfU+47amWvaRYnXbswN9UofGmGEYofKMtTxi58N/oToH2ciCu2Zc/UT1/nhH4JpnmUIScxYnrbTooaV4DMYMP+0z19Q1O1M4tIcWl46D9d/29tU8y9Y3XGkXqXjxwVxx5LTR5WZxbHgw1aLK/OhANc8TJ+cio7kKeywEVK+fqUbUiAlaO83emnGhAcjIUg8TavnR/tuT9k0Gzr7TptaWHEOrLQ+LlprCZ/sL4QlkHSdQ6TlvX2RrHVsqkT7jDSxTaRXtsxd7ylvF/F4Ql2MBBMr/DaF5upvum4akxtPi4lMVCM5UibxXnA8bu+zCZ+KiJSnHz3Mdfs9nehpGUr6r2U192UdRox5ODEo9IBkoz5uIqNu3tqG1pjHeO6mhxtTqhmyR4+5hxm3GGhxZZ0rj6AThbG1DkvmGhTGl6sl//en0NFOE5dWihWz1YrqK/iqKtafc9dY2/PyNlvfnyqGWtCfenT9iAVrbEPOXT8Vr5Dzz601Pq3u3/BFMoNY2tNYmTK1d7Ev8BYZ9pFrb8GqxQjJa3fBsaUPwaPFCLtcZMDcdwAdXx2GwsR5BWsMwr5eL+W+8l+9qrcM8Tq7vNiQslQ8vdkZrGzY8tdBIeZAtVpQi9sFBOKG1tmEeZ+JsdcOjpQ1B1ga7WsVwH996vBS1I9LQoFrFCNwahve8Jbf5B2glxH16Uf5WA+6ZAfzeYmsb8vs2WQRsfoMl+ZKTx/NcFxpVJapVDc+WMhTneHmnwJwOoXNvdcPzb/y3tmG0juG71Q4zfb1i9xRhSYVc91jsFPOs8GgRxL21DUHWcvu8EJPPZOSicbOrFla2CpTb5LsFDvdzieDZooVsp9nU2kXZmSHIUa1tuLifdwKe8zzOZ+6tbVhtmUjOW15EiaB+F2ubiSiw7h88R4BwB8+9SeCm6nq3Dmmqjqi9fDRPR0TUm0R82gYREXUirTUKBs5E1HsxeKYu13fsL/RWKf70psoF7t1kbbzcH96pIURERNTVmLYRBkzbICIiIuodWPNMRERERGQRg2ciIiIiIosYPBMRERERWcTgmYiIiIjIIgbPREREREQWMXimnk2+Ha64GMXFfl5tbH9BjJPjg7yqmLqQfAuf/IyKfb8WO9hnHBL5ljk7pmWrQSIiIg8R01Sd8Qpu82u55Q9dVsFM5Hg1h3sdZdvW44zx5uAOxqbquiv9NcXZ5f5eZ6y/GhlbirDEoYqo+9Jek62/alp/wbQHeSE0scHPK6Ytyp4Ge24jStYfgp+XdRMRUS8XATXPMkB+GCNxATWqxOUazmx7DZvWmbp98q9acL2TAueOED96Nuz3Zqmh4OTfzx4dr4bIJQOxtlaUH/QTSk0aiERU4gQD58iwew/KmxMx0F/tsuMEKm2x4lMPJAvT7LMxJkENesgalIKa0hACZxlsh/BdJSKiyNfta55ljXNO43ocuZiFUXPHA241z95Sxj2MnKZNeP9U59UbhbPmOeteO/IH1GC/8/W3k5H02E+A4u24+ZEiJGll51C2/FG4rg9kQJCPlIv74XjX46W5sjZu2AmsujIFi0dGaUWtR91rYicsfcM5DiKYLDHV7M1/sRhTrqzCaixy/k2luaZWzn9GuhrwnrecvjBNDaAVx156CCt2y35ZK7wIeH0nYh8vhD4H92VrtNrGPMBjvtbImuUpaHAu00Owmkw/5P5aJPbIzn6Lndvmtk9UjXeecUekqgRFT6glOJd5AsOL1XY3H3OrLXX/PDznrdeWO/e427Ry3HCceKkBU8Q+0+bgMW//rHweHst2bpeatrwOeSPFWFFegkJt35jXPdBxZo2xjn4+T2P7/c03YQxm358DnC7BhsM+zg/a+L4oNb16+qb7NmAw/h3VCU8iR0XltVsLUHVM75cX92PmFCIHZaytJiLqJbp9zfP1UzJwVgPB2MYiJ7UGZZ0YOIePnmuZHyN+hE0/3roopD0yDZ+9WoDDywtQVpGJnHkL1TjpDLY7SlAWkw/7nDFiTh7SCrG4304UFRWh6CXxqz9ykSs3VAS/i0fWiUBGjBPdqqOJKHQsE2GKS9TIxc7pVx1tRfpEY7wIVmYkioBYn1Z2nkF5YZwI3pzzBvIeN+cWR4lhGdzK8atwrDkdU5aal9x9yX0iLyq07d5SifQZru2a/6IInOtFYKltt9iuuEK84bZd6SjUgno5vgSVtjzMNHJ5RXC9yPR5yM49KC9EoriQcM4beVj8ojlbW8xbC859zDuowJ/H/BdlYGqsl5i3OK5cOchi2uwGrBLHV6sol/tGO1aGqXWzcJx1KFlDLALnlgMO34GzkJUnA+ujHt89IHrUk0i9+rz23Tu89RySpr8CV6bYNRxa78D+phwU2qeJy1giIurpetQDgynDxI/fySM+0ju6O1lzXIicpv1w+Km9qt06G7WX9P7msnNA3C24SR9UAvyIy9pHo+ZTu/UdhVhVizZ/WDoqt7hq6vau3CkCrmxMNN8aN02/92A5Wt1ujUche6yvEGg+Zo6MQuUeV63n3pWrtYBsuCmYq9xi1CLuxZ7yVkT187jpvnsFHhLBVui1zoKWllGHCz5rKYWMWEQ1N6BCDYakqsS1TjJdQCxJTyeYj+FplSgx9rfYrhV7KhGVPdEtUHRt91qcqAISk9yDa/M+crLPRJ6tEjud+0LM+3UZrA43XZDI2n3j8/Q178ACfR5rnzDX6HrP2/VZm9dRZ+k4C2ovLtT7O96kCjR4HF+SlgY1Lhplmx3YXq4KvWQhY8B1XDjn49tXUYxT7+zS+499hFok4+b++qDhzLsOlJyORn6AlBAiIuoZek7wrNU6ix+/6gisdc7OQIrqtaxvnEfwbJaC3CA50HrQMwED40SoNkNvyUDvTLflldbyPSooErRg1hWcLdFqsheraT1brGhFQ5si0/aSt+/F+iwAVvu6hS9TJ+T4YSdQ1J6Hy9yoCxItYJc1y8b+FJ0prUVX6ZZnvfYJ08WB3L9aTbaa1rN2tq3BfjjIFB3TdrnScYKxdpxZIfeVTJfx3bKGuJiwr0LDRDl/41iMx6239NH6AokfnYuUi6U4dFUVBBSFm5NVr5c+yMlj/TMRUU/WY4JnWevcp/ovndbCRliVb4cjUNqFL431+EL16sxpH/5vTRvqal0ho8xLNVIE9M5fTqkPqmbYeSveLYB21XDr5AN8qrdDiaBertPrwCJfTdAZ63xyuHdw2mbmCwWZz2vsS9WFEqQ7ljinK6nPw2LzOno+ECdrz1Vvh5IXHOIiwHyslFSpcRa16zjTyLSVYgw/6W9aedEkc6LleOOiSb8j4zjQgpz7/TVBpwfYNec9Ezb8acVnl1WvIp9VKBzSgv3iu+f13AEREfUoPSN4VrXOZScj+UfLau7kQqRNz0TLmV2m4Fk9tBQg7cMwYeki7da/XvOp35o35+u2x97aOtUn6bf1XfnRctlTkN58DJtMta5BqVpi95xhi3ZfQJ0zncKHigaPFJS2mf9iodiucuyRwZyWFpOOQrc85LaruNKq+gQtPcSchyyCyYnpaD26ybt23S89AG1bm8imCwT7CyHUPIfzOAt2N8NPmo68QN1chuhxdu+WabJHag/8HfWb0uFim1eEpMbTaFQpVJL2kK/PZxWIiKgn6v7B84ACzJz7sOjGa6kNKeNl/8MYNUAfLQPHrPwIrnX24Myd9Gj+Kmn6Nox+WnZFiDryvCsHU4gfPRkDPy3xX+Nly8Nidbtcf2jLnHv6kKoxNm6ni85qbazHbfxi7eFB17zlLXat5lSN15YdtjSJLpZW6Nxu7aFI53bpqQPyIUHnfhGd1eBfPmRpns59n8ka9RLUOdNk9AcT25QPHqrdK7CzSj5QqNZtYgOOhVDz3K7jLFyuHsIGx360DJnslpcsm6e7/ukn/i86M4rUd28bcuKO4qOXn3FduGZPQz6CX7QSEVHPETEvSenOOvYlKbKpuidx835z81ghkAFue18cEbHkbfyOaapOa33E+VAgdY52NlXni4/m6cxkU3V3JGzH4TfXqBIiIurtes4Dg0ReZOsLnnnXJsHSOqh7mTQR2bYArafYhyM91AcqtdpoplsQEZF1DJ6pB9ObckvUWnnwleO7Fku21KlUhPDkfVNHUK2naC/L8ZHfbbSeIh9oNDWNSERE1BGYthEGHZu2QURERETdBWueiYiIiIgsYvBMRERERGQRg2ciIiIiIosYPBMRERERWcTgmYiIiIjIIgbP3Z58Sco2pOWpwY6WPQ32OWPg8QJjIiIiIhIiJnjuM3SOx2u5XVLG6a/sNjpff0NWxGNMbgpqSvmqYSIiIiJfIiB4jkdWwcMYiQuoUSVmMqgehX3YtO41vdtXg5TxBUhR4yNR/OjZsN+bpYY6UcKtGIgyHC1Xw5Ksie6KdSEiIiLqhrp98Nxn6N3oW/oa3j/luy40OqYPrjeZxl1vxHXVG4my7rWjcEgL9r/r+cLghUh7ehtGa90rsKlSc1qHbZ4xfgOS+qvRIcjKywE+/cS91rn8KMpi8pnKQURERCR0++D5+qn1OHJRDfhQc74GfYbNVKka8cjKz0Gf6nM+a6m7t3iMmWNHfkwZShzb4Rk6J02fhs9eLcDh5c+jqjETqfdNVmN0SdO3IfXq82J8AcoqopA2eaEaY1HCGOQOqEHpYc+LlGs4tN6B/U05KLRPA+ugiYiIqDeL/AcGL27DpnX7gPEy33kmBn66CZsOeIae3V0WptkLkdO0H471vvONa7fORu0l2bcLjWdaEZ2QqZU7VRTj1Du7tN7msnNA3C24SRuyJj5zIPpcrPAK2g1n3nWg5HQ08u2zMSZBFRIRERH1MpEfPA8oEEHz7WjcJnOe96Fl2EzMLBiLPmp0RMjOaHeOdm3ZGtUnHHsUh19+Bl+oweCyMHIIUHbMykVHH+Tksf6ZiIiIeqcID57jkZWbgusn38eZZjl8BkdEAF1jy0FOJLW4Ub4dDkdJ1+UWy+C95QI+uaqGfXDmYjsccHjlYxMRERH1DpFf8yz0iTGFmwMyIcJpNEbcU4NdlVscvHk6GTj7y8UmIiIi6k26f/CspWXIfObxWmpDipbbbLTlfA1ntu1DTep49TeiGx+Nsm3rVU105HHmFndW83CyebroGlSYm6czy56GfPjPxSYiIiLqTW5ITk7+WvVbEh8fj5aWFjVE0qxZs7Bx40Y1FFlkrXJuUwk2eLWyQURERESeekTaBrWdrOlm4ExERERkDYNnIiIiIiKLGDwTEREREVnE4JmIiIiIyCIGz0REREREFjF4JiIiIiKyiMEzEREREZFFDJ6JiIiIiCxi8NztTUbSY9uQlqcGe6of78DTf3oTyWowuJX44c5KPK11f0HBVFXsRv1NSPMV5Lrs3IERatCXEb+vxA9/rAZCYsNTCx/AxqJU0Z+KF3/2AP442aaPsmDi5OnYKKbROm0ePiQPxR8DjfdJX69Q1qXj6Ovy4nA1qPaTvt3T8VRIH2ZotP3rsd8WFJnXxcPw8c510j+b8VigRrXbpGV4o7gYxVr3AuarYjfG37zoc6xfE5a+gWLHMkxQw91XPMbMsWNathrMewWjH3sWN6lBIqKuEDHBc5+hc0yv5XaXMk69mlt2BWPRR5WT0v9ZDH36FRGS+NHVP0hT38RjRYn44D/m4bIqCm4p/jAlHcunrEOVKulMx9cfQN8if0F7x9mzaytm/fpt/OZ4575/XgsMFw7FRDUs+SrrGNV4QmzzrF/vQ4Uq6RAiEP7piCZsKq5WBbrX95ciaWrHBu0+7V6Bh4qKUPTSMbSqol4neyRyUIaj5Wq43YJURgQ7VxIRCREQPMcjq+BhjMQF1KgSMxlUj4opw/vrXsMm0R1pysHd47LU2MgUP3o27PdG9jZYtwgF/zwOOPgKtu1QRWGjAuzvhxKUW7RjHl4ursNd/xxirTaacaEBaK1vEv1NaBAxcO3VMAfCl0/hBzLY9AgCKZBUvDg1FRU79uF1VeIk9+eOJtw5w8eFwpUGEdg24YI4wPZcFZ9pc4NbgC+/y7NHx6uhDmAE2E+sVQWRJgvT7LMxJkENesgalIKa0kPoCe9A7fBjgYg6zQ3Jyclfq35L4uPj0dLSooY6ngyOcxrX48jFLIyaOx7YJwLki2qkOPF6ldnG4u6Cvihbt81nsN0RZs2ahY0bN6qh9sm61478ATXY79iOM1qJrCl5EjfvLwamFyFJKzuHsuWPijBMWoi0p6fhs1dno/aSVgDbvG1Ivfo8Tr2TKcYZ05i1okr+PZ7F0EdGIlqVunjO3zSPxqP46OVn8IXslzXWOR/ho6vTcMeoKG10yxG53F1avyUyReKeOqz2E+AmP/cXLBrrqgeqKk7HH36nBjQyNaMAV1fe7hZ8u013bh2W/2ip3m/id95ynYqALVOm4rgYNP6u8eAv8fJTq7W/1YnA/0+/QMJ7nuvUXjJNYTwy1BCaS/GbNaewRw1Kstb3p3GlXgGyTDGYOUjvbz2+FT/Y5RmYy5SI6bjTudnV2PRrGTDq5bedM6Yx1kEfXyGXl1nlth7aOpjLZAqDCEANFTvexhMn9H75tz/CXrwXN925fubxXtssuI+X5N/kouGtrXjO42DR1mWEsVHGNunkPrmnfit+jwnOv/Gct7/96aLvn9jDnusUjAwO85FycT8c7+rfaHcTsMyxGHnOz6MSJUVL4BYKy9SMx2Ox06N8/ovFKEzT+1uPrsJDK/fqA07+5y3TNhZnl2OVfYX4VFzzqtxShCUO7Y/9ktMuQjnqRuYhXc5zC1A4I118gUqcQbw2/5H6OcHnNkkJYzD7/hzgdAk2HPYRHmvj+6LUeS4U5Dknvx5lZ4Ygx8c556b7NuCOhO04/OYabVirSX4kDtXifAZxXswxH2CKPn2Qc6Xp3Oqah3mcPE//BCjejpsf8XWeloIdC0QUKbp9zfP1UzJwVgM+XUfjddUrNV9DiwgH+zh/MCKFntuXH1OGEvOPhZI0XQbIBTi8vABlFZnImbdQjQlkDarE3x9+9ajYJ/JErk9/eLk64V96Bqfk8NZzelDsHG+c8OUPQhGixI+LXv48qjASd5iXnVGk/1ip+USPKgrplueIOwaj8fSfAwTOdSKIlekZemc1SL381O3a368+6Bk86qzO2/x37oGztBrHTzcj7Y6Vajgc9CAySQS+Mj1D6zwC50BeL9an2XReFbhRgXPDPte8TUGmi3kdfI33RUyTdd413x3VyJjqnv8bNWK6FsTK8TLtJGO0UZMr18u8zVvxoe+PzTcj3UIt+zfHYzDTI51ELlsLjr2WLdkwMdOGijOBauqbseecmC4rlDxy6Qy2O0pQFpMP+5wx4ltupoLbehF0ytpjrfMRZPqx9gl9mhKfeUvW560FznHHsEr8TbDA2RA1MhsNL63CseZ0FE5swCqZWpI2XM/Ltr8gAuc6ETDry111NBGFnvnV2dNgF4FzywGH78BZyMqTgfVRr3Mh+o5EjnHOEec2jPoJkvqrcQE0v6nOYY1A7VbZr3d64B3kXCnIwDwnznWe/OgIkPaIOcUjSgwb52m5nEyk3jdZjZMCHQtEFEm6ffAc2BlUV/dBzjBXikPKuPFIUf2RQ9ZIFCKnaT8c633foqzd6jqJN5eJYDfjjpCC1DbJK0Ja33OodtYk70JtsfhxMS9bBt1GLc+xj1CLZNxs4YdMtwjJCWIWlzyDUmklpo61oapYr/0NL2vzdgXO/v/u8qU6ICHVlLoxHy84H/IydRYfzpo4ORcZzaX4vVeNcRgMz8WdtmqvnF53rsDZq9baloufOh/ce8BU0ytV4wnzfE+cRwViMNCc03J+n3Oee8qq0GqL1Wua5Xqh7du8QAS05nSLPbtKUWFLw0TzsmXtvVo/t2VrYhBra0bDFTXoh5aWESsCbTVs3TUcWu/A/qYcFNqniW+7Yp+JPFslSjoi5cLivCcagbOqgbasaidW7NZ7K/e4Tzt/WDoqt7gC9b0rd6LSlo2Jk/RhLS1tXDTKNjuw3W8ucxYyBlzHhXM+zobmc86lXbjaGIWE4eYgtSMsRMqoKNTuV3fdhC/e+XctQI4z5U+7ztO70HimFdEJmVq5i59jgYgiSoQHz0DNgX2oSR3vfGAwVfxA16AF1zsg9ugw2RmhBfyX68UWdpLGeuePRfhlIiFG9Xqamoq+aMbVT9RwOFma92DcJVM6zn0YOHj/pA6NMYmmz28tljhr+kydxeAkI04ss6HZck1zKCbKne2Rk+spaoQI3sW++bjMxxdIBqCqdteowTWT6RHOlkA8UjA6jg0DY8V+mxp42a3nql37VMsJN9WoJ9t83K73QeY3uwXdbZGCXJX3OiEpMejn0VaW5m3LQ16a2Dfle0ILnAOagIFxQPoM88VjIdLVWHmH7dZbgj/SHT86FykXS3Hoqirwaxc+q1e9Ha4Vn4X14QnXsUBEkSXig2dZ+3xEPSyoPTB4PR7RzY2dF1yGQ/l2OEK5nZcch+gODWpN+sa5t8Ihl6162+8cZGWeTzuq0ah6w87SvM9ii2zJI3MuHntukSrz4dZE9G2qM+XXt6/muaK+4676tJrTIGSe9G/E1cKdD4bW5JrMGZ45SOYaG8F1B7eM4UHmMBtBvd5550X7dbkZtao3oH6xiGpTsGtOyXKlKeytrdP+7QiW5t18TEu3wMjFeMGuysJE5k67X0A+pGqq9ZpXx4EW5NxvaoLOTbwWYNect5IXPBk3i2C99UoIz1m0WRRudns6OBM391W9lvk+FogosvSA4NlEe1hwIC7sPwhzGnRksHo7bzKS8jPRcmaXKXh2ndS1vDzPqrFLn6JVnOjNtxfdyJrsvkPQ1zPdQkvDMOftqWUfKVY50e21Gpevivi8v6/gdClOnrO1oTULK6zOeyn+sPIAMPYXftt0Tu6fCFytNuVst6/mWUspGDTef7vC7SFTKWy5+FGQtpxlc3ibzqd65Q0HZQosFxSFUPOs1ei60iwWFJkfaAxG5SJ75FeHRrZ6YkNsPzXoh1ZzH/JdARks+UnJcpxApS0Pi5Z2QGvLVuctW+vYUon0GW9gmUqraJ+92FPeKubnp11qg6ww2FyG6HF27xYoQmmeTqWW1YtrAKe4W9QF/0KkeT0QrddUJ+X4eWbE77lyDerFwZ2U72rS86b7piGp8ShqzMsOKMCxQEQRpdu3toEBBZg53jupoUa1sCFb47h7mHEbsAZHOrGVDUM4W9uQZE5gYUypeiJbb20jzVTD4dWihXwCfbrKrasoFj87Raq1DT9/4/EEuaQ9pa6eXg/Y2oaYv/NJdvXku7P1DR8tfwTl0bKFJ/kykhmmtEH3FjEG64VOzfhAa3VDbwXjLs+UEI9WNwLP27ROxrK8Wu3ooNY25EtOHswVl0SKs7UNz5YylPP7VCsRer6yV8qCW/6y59/4a23DWFYzPnxrK/bkBGttw32+rcdLUTsizdkyhldrFto2xuI9lT5hbi1Drq9slWP4GdWyhUcrHjp9vYzaZfP0GlMLJUZrG1453Cbu2+KLvj9CbW1Dfpcni4DNfw2jvFNhTmvwaBHD2WKFwRjvOZ3OvdWNIPM2tbZhLMt3qx3utL/ttxNFT1RoDyXG7inCkgr3FkG81l3Wcvu8gJTPe+SicfMGZ4qGbHEot8lPCxxu5zHJs0UL8/lSnOe2nkbCdL21DdffuJ/TAp5PPc6V7q1tmJetL/fm/QWoUsG0Z8sfwY8FIooU3T94jgDhDp57Fz0AHXzasxm4CCCD6gDN7FEk0YN/eDWPp8gAfnRDgOCawsJX83RERN1Mz0rboAi0Gtv+Q6ZGPIrOfltfu7TprYjUfVXjCR/N62lkLfnUGHy4hYFzh7t6CBsYOBNRN8fgmbpem9/W13VGzBmHxmL3F7NQhDuxT28jusg9RWRBfi5qd4TwACIREfVoTNsIA6ZtEBEREfUOrHkmIiIiIvr/t/e2wVVVZ///9/fKcQInCYSECJGQ0NAIRALyHOBGQMlAw9gDZVpbMT/BmVp1aGE6TNH7RdEO05HqtN52RrBHbNW/N6ROIkxoI1JDAAEFGh5S0IRg0EAMCTmQcXz1+69r7bX3Xnufp31yTkJOuD7MDnuvdfbaT2uv9V3XutbaHmHxzDAMwzAMwzAeYfHMMAzDMAzDMB5h8cwwDMMwDMMwHmHxzDAMwzAMwzAeYfE86KEvV9UiP9KntYcK9MGRv0ebqo4+pnLJ/kx2jN+PfuHfeP7AJWN5fZsK9co2/Mzc98C/I84/TV8ojBYfFjrvA3UoVZvhoHQjfQ48FvSlvPd/ZcxVTF/Wez+OT2wb+4p9aHFN12ZBcx5Hi4+ATDvez333E3Rf/qZ9olzeJ3XdeniykffAdd8oLPIx6cMt6pzUfe/zZ9sXbsFbVTE+me0Z+nJhlM95y2NVoUouyTrmbYA+2FK5DEVqk74YOOvRCJ/1ZhjmjiIlxHPu3P+LlWvUUj4H5se4TegT3Vb8mnKEfsz7Duee32LS868ioiygz9E+81vcpTYHnH744MjV5+7H1sXjseNo5E8yR2Yz/ir23br4PbSqkIHk1O4jyPDHKcqTQP3BfXjkD+/i5VN9uWd9J5ywHkix/WbVu/K6qy+rgP5gShl+WdqDavPz5Ir6g/QZ8+V9F8WDkY9fxGN+P/x/PIleFZSKFE0rBs6fSOIHW2IYQm53OcwwjGcGv3geU46ZaED1e38RSzWaUIwH55q2AIGIf3DyLRyX8X/B8bZczAwjsFOJkbNWofIh7RqHNOtR/vO5wNFXU+6DI6eeJIHdDx9KSeCjMfWdPUCwGy1ivaVLiODuYHK/inf1HH4qhOYjLhHIRCMP25fmoaWuAW+qEJs2bHynETnhvmyIHnp8uNYp/lwN4hqC6P5GRQmonFg1a6TaYuLGZVl2UoSCMe1oPHZdbacyIzF79SrMzlKbDMMkTMp9JIWszA/eewUf1R7FTVEoFJWvxNgvq/HROVXI+ebgwfKxuFK7GxcHyICWzI+kFD1UiXmi0D5sfaKWrBW/xt2Hq4DlfuTIsGY0bX1aVKXEOuQ/vwzfvrEK176WAfA9Wou8zt/j3D8KRZy5j04vWun3+C0mPTEDw1SojTt9LY0bJ3D6T/+N72idLCXFp3G6cxmmzkyT0beO03EPynVPkBvDkg7s+GE4qzO5T6xBvtoiWqvG46+viRW1397zk7FijmFTv3H0d/jTczvkugm5b6zPrsXWJzerEBsZp/YlrLQt6Pjl6NzmEshkKd88Fxly4wvsXbwUp+S6Bp2ff4La0M5NhsPaxzyH0HMnN5XfIOtD9zklig/PrVuO6dZlt6H6D05RR1bfX45oDBHI5N6wcpyx3ntqH3560P2CRU5bplnYipd3Gp+4NtNqqXsX1VnOOML9e7Lcvi8EqAntt/GMsU6/fRKH8OGI5db56fGh5xX+/OmclnSFhstzKTV3dt4vc5/XMd/6jfPYke+nTqRjR6cIyyrnIferwwj8M4x9tPIlVK0YrzaIS6jxb8IutbV2exUqrJerFyf/+Bhe/JjW52NLYAMy6/3YFJCRmL/5LWwYdQD+jbQ3uW0sRvfeC5i4Yhrkmx88iVcqXxRPQYPcN57NxAHtmAZG+tPMW9pao9KNBe23HrjQgWkzxHWJ/WpQIa/h0l7Xuc4wyiP3NVtMXIbKubloPxLA/gsqTIMaJhXpjY77Sm4bU7P2owl+FBcYYdf2laP1JK2Z5bS5bf/+2Ns7ZZls7qMjy8szixIrh2XcVHS90YU8Mx1HvCDG9TIMEx8p7vM8Ehm+m7jSZloHijCzvBjDxb+MlDM9k3VACOf0JtRYwtkmZzkJ5HIc21qOppZCFHvyvduJVvH7Y2+cwC1ZEBv7H9uqhPbX/41ztL2v2ShsrXizwKYKwY80UcAb4b9HK2Zgqn7sAr9RQah0hs30R3YPCUPp1Am4cf5fYYQzicc1yBCiktwvti7+HT7tUVEm6XOxgoQxxW87Asx52rOrgyFahfiWaRuLZ5FKlmF1zBsqyIEUyNn4dJudtlvUE/o5hMbvwKnzQeRPjddfOxpKRHY3SDcFYwlnDQ1PdPcG72lL4ZzZiJfFb3SRGZk8bC+6bKdb14YCl6U2rXS5FJ8UT24nBbNsl4/H/c7ziss9w3S3UPvKz3e73Eno2FIchzk23ZcFhT60XIxuqX9TxKcV5sXppnIR+wM1aEqfh8rVs0UJokHCdUW2EMR++MO4UJDArBghBC/FieWVE6It/Gw8/slpmLaChDHt/wpOYhrWb56v4qKzdrsQzl1CMJv7jqjAWx73lced2I1X6HryK7D4m1fEufdi/GR15qLBsGFGhxDM5nVloyKwRchuG9mzN3cYmj6IJCSLMOM+oOlkmAaJKO/IMGGWdznLo7jDaQTfVuWnKDBIcBvlablhaEhGOQxRJzwxAm0yvgrXMmYgV3cPubAfgQ+aMGxuJfdWMEwSSC3x7JuDGZOHo72RrM46ZIEmf+cyoIFcN4BhGalUQJAFqQLFPYcR2P0JwnUUXttnW5aDTaKQLZgal0jtE9P8yM9oRptlST6Ia1VCiOvHpsL+7Z3G+snTuIbRuPseYzM26zE6SyTxdaiwxFM/wgM4gt1hRKdFzxHsMC3Kdf/CFz0+TFi43tiOyjYsneNDa1UYi3HCCNG/RDQIYrih2MI58jlc/boDyMrTXDfI4mcOxNIWlziIyJQSTPe1hfjdJgWPaS8whbNmZZb4SvBLNWiPFtvSS7Rho57umctoQTrG6j4tlxssq219Uyt6fZmQhr7Rk7BkXN+v+fEip7sF+Si3+PKxQD92UFyPSt9xbEk6Mn1Od4uwfNPt2s8r1/HJ7gAO9xSjQnNBWFshlNOJHcqS7GYtVs5Iw6V621J8aNsOnAyOx5RKFRATslSbFt1DqL/Qi7SJCzzkw7WYkn8JNZal+RBerL/kcV8D+7wv4cA2h60bayePx6W9tqX50LYDuOSbiAVqcCP17FXcdwuHA3vwSacRFsLEAuTeuoLPw8W3VNk9a7K8K8SI/h7M7aUclr2Jptjeia4W0cwYtUhuWXR+gj2Bw7h1X8Ud5BbIMP1DColnw6qMs9U4/pUKkgxHcflKZDQqn+evRmJ4OnDrRgr5qlFhrVY9cbULA+Y4c6PL7vpLOoXIEs8qOezA1UiVoZulecgQ1Uzn52o7qRjXFLZBYDEBD5C7SPNn0cX75x24kZ6t5Y1d2KQsao7F3V0egQV0YsofOtl4SlsI5OnjRDXf3Bbqh00CVFl3TQuuDlmrTWFNs4nELzL7gg9jM0U7dWn0YzuuR/qEaxb30b4wblNhkD7NrgZB3OSixLNVsRfdScwIh66Jhp4XFo5FNsajQm/8OVxLEmE+xo4Axq/Q0q6qEEczIT9mtRqRkZhdkov2xvBGDCfN+DZs11M/kOxyeEwJ+0AzTAKkiHgWwnlNGXLbGmzfZsl13BB17E2HoDZcOW44TdODG+pSi9T9Go7RIzCsX0WtRsYI5+hvOrZaTZxm0Pi25BDFiu2mri28u0VS8HJN5Cf9HloL1+CZF6JYyr+XjYyeDrSrzUQtz3IwYT/hKW0SyO80AnHOLkE+wyvJemyJ64Z+aQBEgnyYTVFvLPvwgtdpYaQo9oAU2T24Evd0M7q7VwB7PA9wS0OmoxVQgMwEurLm52QDXVc8NeIMP+S+NQC9QP7PjrT9pi83ubkEUHN+GOZVRhhAl/U9jB3WjhZPfsGFuDujF98ma4qgaCSjHJYDJOdh2PkaUd9EsbwzDBOTFBDPtnCuPuL2QbuO9i9vYvjkB1GkCv7hk+5HbvAK2p2GqxQgfPdrKIuQM68Qty4e1MRzGu5WFisapBIyMOXrL9EbrXuRLNkZ9yHD7W6huiXzHja7/9Sxj1ep7sFEMazFGfeEEZDS6joZpcqHufT13+CBaFZqcvNI/wJnPfktb8bZZl+fZrOIjfJV9kefy1lOhyf9tH8TcU7n0fcIQdLZpvmDJ2Z5lu4OvhI82R9zGXtNmyyz0md5OZ6L5+ZrVu3H/XFYnqV4zcMUJdYNIW6sxyaI+uZgiH91fNCMGT5kjlKbkRiVibS4ewVIOId392r5RnejEI2uZ9XAPskunGkFxi+wG13zNy/G+OBJVKtBd0R2joqVfsT23qEoN5CzHgb9fVyPC8HxqNjeH7M/G+4j41dE992+fmwPAkduofgHlVg2UQUq4pme7q6HlyHnxnnRYFcBAstVYtqr1iBqm4P4tgvIKY4wXqU/y2ESzj8oxq0j8TSwGIaJxKCfbUPOrjE5dPRfO/k2K2uz4zfBJjUTx8CRzNk2COdIbxos8mvkG1M7SEJmtKBZL5YXGustVXI0uDHbRoTfSP8424eakCPDrcI+yihvkT6NHpdQmvO6XKO+nTN/xMQ1+4SOPhsGzUbRkP0bTD6tzbahzWbhnPXCmKkiRGw3v+eYdYM+RrLCvCUCx0wejrSJID5Vs27o52XjnHXD/ZtIs21Yx3Kdm3kNyZ9tgz68oYtPc/aI0BkpJJcb1CwR7v0MnLNWRErbEK367BnmDBa0v5ypIupsG850e0/R3Mj56H7HsADL3+qzWdAHRX6SiQ9N9wl9pg5xPS93CZEvhJZx3rGvyzxXC7Kgq3P1MkuG+9rD0ZfZNqicWCQEWXgxpM9oQf7JB5D57BSciTjbhmtWCjlThj2TRs2FiahwzLahu0MY1t7ws12Y6Om7ZtsQ9J54BY+5/JdDMfaTs4C02DN5tDhmAglz/HAzgRBSUGag0RqgTWNPSnDjg/BWWWcZKXDPaEHz6WuzXTRdvA/FNJjaLC8lzvLUXZb3qRwOU+7aMy5R2tTIEsL7IFubGSZZpNxUdYORZIvnOwtDJE44HzrN3B0NieqIU/gxqYUh0OGaws7CLfaZ20K46ekYhmHCkSI+z8zQZQdq/xzfNHNDnn744iJzO2nDxjDT6xkIYf2TElwL+wEVZiCR7hwsnBmG8QCLZ+b2k8AX9YYipavn4kZVP3y5kLl9nGkw5oj22x96IRYsKkHOqX0e57tmGIZhBgPstpEE2G2DYRiGYRjmzoAtzwzDMAzDMAzjERbPDMMwDMMwDOMRFs8MwzAMwzAM4xEWzwzDMAzDMAzjERbPDMMwDMMwDOMRFs93FPSFriq8VKk2YxLv7wcW+pLYW5vNDwwnAn2BK/RTvQzDMAzDMG5SQjznzv2/WLlGLeVzEPqxbvM3q1Hk/rwwY7F2+wZM66qxPqOb6hzadgAdMzYkLu4nzkAxmnDigtpmGIZhGIaJwOAXz2PKMRMNqH7vL2KpFhKnGA/OLVKRRBFmClGd19OEmyok1aHPxFY+pF9jdOj3q2aNVFsRqHwJFfmXULNxlwoYCuzCpj+eRPaKl7BWhYSnCMsqV2F2ltp0UTQuF+2Nn+C62o4NpbdM/GUYhmEY5k4j5T6SMnzSajx47xV8VHtUiuXcuasx/OxuXMQcPFg+FldqxXrQ+O1AkcyPpBQ9VIl5Y9pxOLBfXBOxCDnP/AKo2o+7n/AjR4Y1o2nr07Avk8TcPOR+dTjC52XJ/WIDMuv9EazOa/FSVQXGqy0ET+KVyhdxyNqvBlhhxgsB7t8kZKtCiPKqFdaeuLTXPga5VazHDhwYtUEIdyNMjw85rqQXJ//4GF78mNad8b0nXsFj2w6pLZu126uw+JvwcciajVU/KAbO12DPsTDyWMZnoNG634Jpr2JW8Wmc7lyGqTPTZNCt47/HuX8clOsENVgq7gOaPtiDTzpVIMMwDMMwQ56U93luPzLwYrl/MPxu56U3oUYXcpI05D+xDN++UY5jW8vR1FKI4kfXqTjiIvYHatCUPg+Vq2eLlFwsXICJvks4E0U4Zwth6vf7jUUKZ5vxKxaj+48U9wpOBsdjseVnLPadfMbeb+8l8VunFThtxgYpbCn+lRO9GL9gi5DkBmu3C2HcWmPs+8eTQjaTuDaFMwl3/bxqIrpo7Dp7CWkTF1jpWkxchkohnG8dCYQXzoKiaSSsT7jut6DAj6lZ++X9PvbGCWDmL5Bzj4oTXD+2B4Ejt1D8A/aVZhiGYZg7idQSz745mDF5ONobDavz0IEsxxUo7jmMwO7w7gPX9q3Cta+N9WBTMzDiXtxlbCqu45PdARzuKUaF26WgIBNpwW60qE2d+ZsXY3zwJHaEs9oqbEF7CPUXepE2qkCGS7cJ3Q0kcAaXkI2xC9U2IcSxaRE+dPQCen2ZMPZeiyn5Iu2zav+P63FBNIKyc5QEJsEP/bx2oZrE9+QwDhot3Vq6BtL1Ze4wNH0QwP6IvsxFKBhzE1eaw9zxGydw+u2dxvrXB9F5Iw13jzY2LS7sR+CDJgybWxnbbYZhGIZhmCFBConnIswsLwbOVuP4VypoqDCxALlq1TMZI1ziWScXJZqYm5+TrdZCKRiVBnRdcVia44FcJqqqzMXtghGNFnQLsWyJYWkd78WFo+pMSPD7pmGDlXYVNswwXChC+PgKOhyifSS+d2+4YaVORs4qQe5XjZ7dLtJGLVJroQy/b4azwcIwDMMwzJAkRcQzDQosQ25bAz46531YV8pAFsxobhfhuNGF79Sqge724XRTOHStQ62F0vINOUv0DfJploMQTbcNfw0uqbjYHMKVLvFffoUhjp+dBpzYoSzcCvK9ttJWS7gBjwvHCuncgSvWvoYVPrpbhSGw2y+H8xEPT+83ts+zRHMLCYS42jAMwzAMMxRJAfFsC+fqI0NZnkRxu3CwDvnLC3Hr4kFNPJNwjuL2EcatwUS6UggB2+fp3jR3EOnDrNZjsnALFjuEt9854I9cQHzTsN7LPM6R3FKiuVXEMT3dXQ//AvkZzeg6qQIIEs4x3UIYhmEYhhlqDHrxPHzS/YZLQ16ZPdezWGaOkdFy9g1j/udiDBf/istTe77ni/8MoOb8MMxzTVWXs7wWs56nxY+0kJkfFmHslzURZtoQSH9ifaCfxscv4jE53ZvtHlEVsAf1RYPmWSaBa7pWLP7mpHfLszjugdbxqDCPqRb7oye7sEkNEtTjw4n8tZPHo/dCfXjXk85PsCdwGLfuW+SYqo6mp7v55edh/cslGTMwVd7vWkydeTV0dpO5wOEAz7TBMAzDMHcaKTdV3WAkmVPVhUJT1f0adx8uR6tu+YwXOaUcnNPM3U4WbsFbz2bigH4+MmwiLlhT1XkgXDqxCDc9nQ5NVTevC6f/9N8u1xiGYRiGYe50UmjAIJMQgU2oIUvv9uifExkwyNVCrZrMnzNRhOm+y7FYi5eenYaOvXE2CKQ1mn2UGYZhGIaJHxbPdxC7Nr6CkyMS8G9OJqaY11wyNszoiMsyTtPs0TzQQ+Vz4wzDMAzDDH7YbSMJ9K/bBsMwDMMwDDNYYMszwzAMwzAMw3iExTPDMAzDMAzDeITFM8MwDMMwDMN4hMUzwzAMwzAMw3iExTPDMAzDMAzDeITFc8qwDvn0xbtnfou7VAjTdxYsWo73f1WGx8X64/4f4/11k7DAiOpfppT167ESva7S1y/h+QNq+fvbGK3CE2bp23jGTPdAHUpVcLJwnPfr21SoN25bXhiy5GH7r36Mvy3yAaMn4W9iffsUFRUno1/4d1zPM97fDyj0DvT1naJy41fL8ZzYWc+vnujnMidVoHdb5kmFfNdF3qRFD0828nn589SWE4rrz2MnHXqfI+YlH55bJ+6nvFatDBiipIR4zp1rf5Z7ZfkcDFfhBiNRJD/JrZa5zs9aM4nje7QWkx5epLbi5Km65Iowpt+5cfR32Lp4PLb+8FFcVWEJU/co/kRpbjuCGyoomZx6UqQt0t9x1P6IOpPiiLJj/ZwO7H1yswpIccQ70NA5F+sHq7gfaGSDwNUICBfWT7xZ9S4e+cO7qL6sAvoDcT2/LO1BdVWbCjAwGkA/FnE+pJWK9UHUuHE3MhxcPYcPu0vwywiNgTuJwS+ex5RjJhpQ/d5fxFKNJhTjQU0gD5/0IMZ+Wa3iG9CeV4YHJ41UsanJyFmrUPmQuxGwE61by3GMPxmdFOo7e4BgN1rEekuXEFzdQdQbUSnNUL2u/oTvWbLpoVuIa53iz9UgriGI7m9UlGe24Wf+CWitWopTKmQocOrJ3+HTrDX42VMqwCvfdKNX3NcrojWr51dmMJOH7Uvz0FLXgDdVCEHCWQrqP+zDZ8EgPntHiPid51KmzHmzSpx3ZlmY3qQgrnQDvV0if+plgMnEZWF0TeqSch9JGT5pNR689wo+qj2KmypMh6zUUmwfGbiPLyfzIylFD1Vi3ph2HNY+H33Xw3swdab6mHVLFY69vdNYl5A7x1R0vdGFvCdmYBgF3TiB06bInvYqZhWfxunOZVYat47/Huf+cVCuy7Sz9ttp3vNbTHpiBNq2Po3v9OPqhJxDGKiLcvNcZKhNmy+wd7GoEMki7YexrmKkldoKE5Xngek4u60DZWY6PUewQ7eGyt9PUBtBfLrtftTWqc1EIOtH0WW83CVa2KVGC7z31D789KBREMjCb0QjHjGtCdSV9ZNMfPgHUUjKfbtF4VKC6T5RMNa14vtLS5AWbMTLVEBS/KxuVDfnY2WYtAmjcDVb/m2ikLULX7IKLOnah9cx3/pNS9272HhGriYMuT+UdfwOf3puhwoxoO7w9fedddz/kDDH84AQPuPx19fUhonMF9lo0J871qP8779B1of272Xa2bXYalodPT7rkP0SJUZeMLoql4tnrTYvN9j5QsVlHnsXZ4p+jJXjKIwqy314wbyJlL6oYE3ceYGet7Efoe9L3aLjcOadbiz5ichfMlrlMVr3gDOfuc5Lpl+GArVl4D6+He8+70SJ/hyN/PJAuto0yxSxZu63F2uwotCIdeZDKlfWIF9tofk9Zx6b+hl2dJRj/RzjvlAvjP4u0Pthpmti/8Z1XnraOnScJR3OsiwJOJ+nVi7EXebEl8/cx5Vo70HE8kzmfTjKt9AwVz50pfskDuHDEcutd8RZFrreTUG4fGqWqSH51/FuOt8PL+WwvG69nlDId1polEeqesT5leDKTu36FQndsyjnHe2eOY+p4SjTFHQMkafiKW/IS2D26goUowk1uz/BdRWaqrDP86CBMpYQzukiY2nCmfjuH6twbGs5Th/vVSFuClEsBW+5+F0VrmXMQO40FUUU+A2BTPFvnABm/gI596i4KJjHbWoxBLfcn5ZYwpkwu+mrvjBEL63LRYmm1z5DKyZgsmaBKZ0qxFHzZ5qomoAVUmjRfr/Dp5iL1S+sN6JIhPmzhYhS6VZ14IHNSfSlHVdmFHx/eBeP1LUhrbTEe1fiuBIpmKov+zB9qSGqW3z5WGD6rvhKsNJM+51GceHzpS+jRBRKhlXC6FJ8+VQ6Vrq69Kibzzy3l08FUTCr/7v8rn58FjfSJ6NUFNImudk+3Dj/LyUAhCgRwsN4xvQ8vkC+P0nPo7+fdSz0vOB6Xo/7ReXcLSoX+bwMi4y7y7NgqVHR0m9knphnVmxCGCxNF5Wb8axpcQualZlCqKi4l8WLMf0nepd2HlbKRhvFUx4T+cqrb7Fo8K0Ulah5XJn2CjsfPe4XgoUqTYoX10wlT0udWQmTKClDjhAixv4NuCbyZF/9mkNZj9L7fGg9HUU4dwphauY1R0NMULhGNgApjtx48pfYbmOlr4sGubXfe2gVv3VYgcW2FO0UL/Jwxpwf2flMiN4VhSTUaV9RHpGBTQhkU1yXvq6fl2FhfsYsr3So7HO9S4liCB+73KDF0aDWyxx3eRYjL0TNZ2LfJ8UNMvOwdIEgcW2KLQ/lWTQe9wvhrvaVxxbvop7PqCw03y13Weh8N+N0zyCDiP5u1vW43r1Y5bAPCwp9aLnoEp2CNylMXMf7flFPhNGqUe/ZmctoEc9jinYPFmSJ1trly4Zw9nje4e5Z/UGzjDIaGXJ/WtzCmaDz0Os0T1zHJ7sDONxTjIrKZUh1G3RqiWffHMyYPBztjeGtztLFI+8mms4OnNU5ORRhWaVokfUcRqBPLbJetL7xtGhjEjvRJcRu2ijNR5ks0abg/fogOm+k4e64Mn1/sBl1VLFNNf3/tmFyYRCf7tYrTLIwmhXjDpw6H0RGtmH2Gb1wMnD0Vdv6+Nr/isrMFONr8VJVFarcS2AL5ssfe0CvAGSBlY6xXu+Z2LdaVVy9pxpDrAqOtK+24T9BH75fbJSijxc5u/nqDzaGFlLa/vVNrej1ZboshP0A+Ws2+zBhoSkG6Hl9gQbLKrcZf9WtbLJxlI3RSRAI0Z91LJKcF9TzyhxFG6ISG9em+TMG8cIxIUwK85ziQIhQUxTLilPUmHolaz57J0KwlIrK95ht2ak/eAifBfWKk6xKZl5po2yKnKxwaYXh6jls1IS6Mx/RdQmxbFb88pq1tEfn4ftoxOvW/uIeUCUs8m5yKERWehCdn6tNnad+hAfShYCN1rOgCVqj0ZeNXLlFbhO60N6Ms81Axj2awKWGvpm2Kw87G/dGeYSsPCXMjffBPq8dqP1QiO/7/ivMeI9mdPb4kPU9tSlYuz1MHq16C1sWqh9EReUVl3uAg2jlWdS8QETOZwuK85EWbEW9smzK/K3tG7s8E+euBu3JReuFId6s0q8pTB7X3i3HeQsRucTxbsYHXRdOHbIstjjT6Hr3BFHL4XTxmkdwVzpDgp4aAnni93T9TnEb/Z653zUS6aLxctg4D0/nHemexQW5ZZjlYHxc/GcANeeHYV7lKszOUoEpSAqJ5yLMLC8Gzlbj+FcqSEcI6wfLctHesBsX7XIgNZhYYBXuA4VDXN8mZMVWON2w7Dw1HfnNtbHdLlRlRVbPjDm/sWdYOKB34+7CJr8ffvdS+SIOqV8MHgw/MQMfxmYalkqrMgnpOheCvLnN7ioTFd9PRUEcsdJMIqdOa2JAPi+9l4Asb9qMF3rXeIJEf9ax6J+8ICvw0T7kxKj8CYf1iSpOq6uzDRulJdsYPBQ6UKovvsJeUSPjzfM2u+Qlhr+iVUGTWBZC4D9NqmAdlYk0Xwl+ae4rlrDdvX1F3MNQdy+D0fdki9PrQLvajhtymbDyUagLRjTaO8T1m+WVso5bPS/ynCdghZa27sLkZAeudjpF+66NYfKo/zG8+LH6QTRkPkwkr0TLC9GR/teaGCbhZ1lBPZVn5JKgLJy01LnELrkHWPvqLkz9S8EINZDPOrbT/YOIWg7LZxIN8e7TtQohW32ZyhBjJhUv90wK3nHjjLJCNmTtxouX804ORr3lubEeluEonpa69ucUEc9COK8pQ25bAz46F8YuS8I5mrAe7FzYj0CgBk3p81C5ejYGYrhj7zeGz/Ntpe5f+EJZEMmqE76b1kVnm+UnaM0KoS2Gb2MSrI0DhlFY6gMryAfNqkzkYvus3Va07mb38yJfU7tLm5b3RJGePCI/61j0T16wn5er8qclHj9AWeka+8nuWYeAdlt2yJqlVhNEdmmj0XIJMV0zDFSDjrqWqQIWYsphzSLI6mbuay59tPKFIERFpBlZrn7dodb6gHT/oUGIdh7a26ziPGAc2xTIogGHI9it+UMbvtfOPBp+xpr1GJ0l8vTX9r4JWZ7loMy+Ez0vxEAOZPRh+k8MsbYyjLW3z+WZdEEgK6y9b7/OjOHC4bqgFocrTDQ8PBNyt6DBdWRdb3G961HvmewJMqzJ0tKsi3hBQuftmdB6yys0rqvivls4HAgg8M9U8xKwSQHxbAvnsIMANeEcVlinDAPjD3TXw79AfkYzuk6qAGLEvWru6HXINwcdanzX2YthRYv6Nr/05x0hvrI2Rtdm/pJ/oyzrCOqiiSFR8a2eY/tBSivonKdRHjbdAbA8W13vedgeh6UmhCk0sLANZ2ThFkR9cxAFS90WyMECdXNTd/M2TA73vDSLYOnr8VueLUvcUzRFma0Soz/rWCQ3LyxYNN9+XqoSW5mkaZukFc/C6KLW/SgXLCpBgRCtpkuQF2hwEomasP7I1qwiPjy3QsvDZpe3Vvk6BlNRt7+vBE/22xyuoW4NFrIBp419iBvNHUT6MKv1mKxH+RKn8HYIY2UIWOFpGrpQt5SELM8yrwgB6/BTjpNIeSEGj8+jhpUu1vResGSUZ5pFfUqZd8uzFK+2u4IcPxCH1ZrcT9L0sShxE9utgazEUnxOGYcC6zq93DPjNzlZeVhQ2IMPtXcz8fMWwr0rGOp6FkIUt5QoyAkRwozrSkUGvXgePul+w6UhT7w45lzOYpk5RkYjd3KxnPd5+OSVWvxqFPVXud7PWP5A1pQui5DzTC1mPV9rzHxR4Jfrsx5dp+I9kDEDU2kfmcZVNG01/aNpUOD/oBVm/DJ8u+8E3HOpOH8T57HrHsXuo8ADm83uTNdAL1kZiodlDTzT8dn7bZ6LG/qo+deWqoFjZrph0u4npO8pzG7rEnTXxWGpIfQubyEI9ZHTNGjDsECqeFoG0Rygp3YfQYZ/DTJcz+vqc7VS1KxXz6Ks44jD8kyWafM52t3b5vMSjag/HwFM14wlHdirz9d8G5+1RHtexkAe83kF8cJOY5Cg9azE4h4wGBFXl/T7cqCPnRferHoX1TSnqoqXx45rdHtk3jws8qxpWf7VcmQ2a3n46jl8KLuStXMTi31dbdgo7gENEtTjkzdg0PAn1gf62WzGXxe/hxsONx6PeUH57Vv5SOSzTz1bnlVD328eUy3WHPYi/ofGIEE9PuyAQXJ56jmLU8mYGUjhzivxPI+oeSEGtK/tdmQutvBLqDyT+dC2atPsDp95tjwbbhGm+wMN7KPBcTY0i4cRR6LadHWw8ji5V8nBdurYcomnEaBEcMhgbttFho4rz0++97Zl2cs9Iz/oa6VlmN5tusgoEj5vd/0mlnDGARL8mq+7JyYuwzz0dVzX4CPlpqobjCRzqrqkQ1PVzeuyp64bdNDUUeXoDJl6LFI4059EmqouVeiXqerinpIpxaHucnPqRRVkhOXjP1ol378YU8oh3HSHt4XQ6RTNsAnn43lfwqWTuoSb5s2eii1JbjwpCwn0MtFoC+c2QSJ6PrB3kLjkxQWduzEFZ/LdQVKH1JptgxlyyO59LwMFGYYZGGhAoFo1kbMqqI90DAyb8ddkTneYMORqoVZNlv4XJogw3Xc5FuZ0dkNBOJOIIr9XJ8ZMLcaHMu50TOt3OMsvuT0M5PuUPMwpAO9k4Uyw5TkJsOU5fqyPDbg/fGLBlufbgeMjEBGfzeDDcd6RPk7RF+5Ey7NAWg8dPqLkA637sw4MSe9JSASaqcM1g0bYDwFFggYs/hzYnSLvlCdkj4TTRzrch0juZOQc3DQf9FCwxNPzXgG8foeVh+Fg8ZwEBrV4ZhiGYRiGYZIGu20wDMMwDMMwjEdYPDMMwzAMwzCMR1g8MwzDMAzDMIxHWDwzDMMwDMMwjEdYPDMMwzAMwzCMR1g831HMx5ZAFV6qVJsxiff3A8v8zW/hrc3z1VYijMTs1ZVYNlFtMgzDMAzDRCAlxHPuXPuz3CvL58jPcVuMKdc+yy2WueZnrRk3a7dvwLSuGmwKqIAU59C2A+iYsSFxcT9xBorRhBMX1DbDMAzDMEwEBr94FuJ4JhpQ/d5fxFItJE4xHtQF8le1Kk7Fp5fhwUkjVWRqMnLWKlQ+5L0RQL9fNSvGNVe+hIr8S6jZuEsFDAV2YdMfTyJ7xUtYq0LCU4RllaswO0ttuigal4v2xni+t0/pLRN/GYZhGIa500i5j6QMn7QaD957BR/VHsVNFaZDVurinmp8dM67FEqUZH4kpeihSswb047Dgf24KEMWIeeZXwBV+3H3E37kyLBmNG19GvY3nEjMzUPuV4cR+KexlxNyv9iAzHp/BKvzWrxUVYHxagvBk3il8kUcsvarAVaY8UKA+zcJ2aoQorxqhbUnLu21j0FuFeuxAwdGbRDC3QjT40OOK+nFyT8+hhc/pnVnfO+JV/DYtkNqy2bt9ios/iZ8HLJmY9UPioHzNdhzLEyekPEZaLTut4C+ylh8Gqc7l2HqTOPbWbeO/x7n/nFQrhPUYKm4D2j6YA8+6VSBDMMwDMMMeYaYz3MR8vJu4krbwAnn5GH43c5Lb0KNLuQkach/Yhm+faMcx7aWo6mlEMWPrlNxxEXsD9SgKX0eKlfPFim5WLgAE32XcCaKcM4WwtTv9xuLFM4241csRvcfKe4VnAyOx2LLz1jsO/mMvd/eS+K3Titw2owNUthS/CsnejF+wRYhyQ3WbhfCuLXG2PePJ4VsJnFtCmcS7vp51UR00dh19hLSJi6w0rWYuAyVQjjfOhIIL5wFRdNIWJ9w3W9BgR9Ts/bL+33sjRPAzF8g5x4VJ7h+bA8CR26h+AfsK80wDMMwdxKpJZ59czBj8nC0NzqtzmSNNnyey5Db9m9cTLnP6pPluALFPYcR2B3efeDavlW49rWxHmxqBkbci7uMTcV1fLI7gMM9xahwuxQUZCIt2I0Wtakzf/NijA+exI5wVluFLWgPof5CL9JGFchw6Tahu4EEzuASsjF2odomhDg2LcKHjl5Ary8Txt5rMSVfpH1W7f9xPS6I55adoyQwCX7o57UL1SS+J4dx0Gjp1tI1kK4vc4eh6YMA9kf0ZS5CwRjR2GoOc8dvnMDpt3ca618fROeNNNw92ti0uLAfgQ+aMGxuZWy3GYZhGIZhhgQpJJ6LMLO8GDhbjeNfqSDFzXO7Lb/nj3ruDx1UONiZWIBcteqZjBEu8ayTixJNzM3PyVZroRSMSgO6rjgszfFALhNVVebidsGIRgu6hVi2xLC0jvfiwlF1JiT4fdOwwUq7ChtmGC4UIXx8BR0O0T4S37s3dg4YOasEuV81ena7SBu1SK2FMvy+Gc4GC8MwDMMwQ5IUEc9COEurckNMX+abbVdw05eBYWo7JSALZjS3i3Dc6MJ3atVAd/twuikcutah1kJp+YacJfoG+TTLQYim24a/BpdUXGwO4UqX+C+/whDHz04DTuxQFm4F+V5baasl3IDHhWOFdO7AFWtfwwof3a3CENjtl8P5iIen9xvb51miuYUEQlxtGIZhGIYZiqSAeLaFc/WR2PIkd3Ixhrc1o11tpw5R3C4crEP+8kLcunhQE88knKO4fYRxazCRrhRCwPZ5ujfNHUT6MKv1mCzcgsUO4e13DvgjFxDfNKz3Mo9zJLeUaG4VcUxPd9fDv0B+RjO6TqoAgoRzTLcQhmEYhmGGGoNePA+fdL/h0pBX5pjPeeYYGa35O6twmtbOg8gerFz8ZwA154dhnmuqupzltZj1PC1+pIXM/LAIY7+siTDThkD6E+sD/TQ+fhGPyenebPeIqoA9qC8aNM8yCVzTtWLxNye9W57FcQ+0jkeFeUy12B892YVNapCgHh9O5K+dPB69F+rDu550foI9gcO4dd8ix1R1ND3dzS8/D+tfLsmYganyftdi6syrobObzAUOB3imDYZhGIa500i5qeoGI8mcqi4Umqru17j7cDladctnvMgp5eCcZu52snAL3no2Ewf085FhE3HBmqrOA+HSiUW46el0aKq6eV04/af/drnGMAzDMAxzp5NCAwaZhAhsQg1ZerdH/5zIgEGuFmrVZP6ciSJM912OxVq89Ow0dOyNs0EgrdHso8wwDMMwTPyweL6D2LXxFZwckYB/czIxxbzmkrFhRkdclnGaZo/mgR4qnxtnGIZhGGbww24bSaB/3TYYhmEYhmGYwQJbnhmGYRiGYRjGIyyeGYZhGIZhGMYjLJ4ZhmEYhmEYxiMsnhmGYRiGYRjGIyyeGYZhGIZhGMYjLJ5ThnXIpy/ePfNb3KVCmL6zYNFyvP+rMjwu1h/3/xjvr5uEBUbUbSYP23/1Y/xtkQ8YPQl/E+vbp6goT6xH+d8v4fkDanl9mwpPnNLX7XSfeWG9Ck0W2/Az85zF8rOnVLAnEr1nTLwk7f15qg7P//1tjFabMYn39wMK5eE6lKqt+EgkD9O+y/Hc4LwpA8eUMkc+NPKoyJu0+PNUaD/gOq4DepaDpm7xAuUl470Ox+CtNweelBDPuXPtz2+vLJ+D4SrcyUgUldNvVqNIlD9M8vA9WotJDy9SW3EyqCu7KMgKLHIhkhD9mbaitWo8ti4Wy5ObVUjinHrSSHNvswpIKpvxVzrfxb/Dpz0qiBnaLH0bz/iz8emfH8VVFZTabEbd0WysSMXyrl8wGgTORkC4sP6h/uA+PPKHd/HyqaAK6QeoLF+ajs/2nkO9CpKoBtD7PylBmq8EvxxMjZtoYh9tqD6VjpV3sCj2yuAXz2PKMRMNqH7vL2KpRhOK8eDcIhVpM3zSgyjuaUe72k5lRs5ahcqH3Ne4E61by3GMPxmdFOo7hUILdqNFrLd0icK1O+gs/G4bPXQquNYp/lwN4hqC6P5GRTER4Hs20CT+/qxH+c/nAkdfRW2dChoCXH3ufuztnIvVcffMcB5OPXx4bkUJcOoQXtBbfySchWi+VmcI995TJOL3OX8ziKFGR3V3CZ6kXhAX0d/7kZi9ehVmZ6nNIU7KfSRl+KTVePDeK/io9ihuqjD45uDB8rG4UvtvZJTfjxu1u3FRPNeBIpkfSSl6qBLzxrTjsPb56Lse3oOpM9XHrFuqcOztnca6hNw5pqLrjS7kPTEDwyjoxgmcNkX2tFcxq/g0Tncus9K4dfz3OPePg3Jdpp21307znt9i0hMj0Lb1aXynH1cn5BzCQFalzXORoTZtvsDexUtxiizSfhjrKkZaqa0w6gKdjrPbOlBmptNzBDt+qFmp5O8nqI0gPt12fxIqYqPbqkBt2QTx2Tt2AUjdV78sNQsX0Vr/QwPepFVVcEIUmD89aGRC6t5aOY5+cxlTPKSdGOS28RtkfTgef31NBUmM8Annf4c/PbcjQpix/UC6ERtyvxXkvlHWoacjoGexpEP7PT2/cnRqz2T0C//G+jnmPVP5QG3ZRDr/viIquHXzRaZqROZPzHuvPS+J85lTZWc+O+N5ZuJD/dkFG/HyTtPSROkvx3SrnnGlrfKD9RZdbsAjVW3GOlmAii7j5a4SKy85jh0VD9dF6S+1u6tbRGW+8Qyt0fWOQ/epdEwXx+091YD/FJaJa9Dzoeu69PNOBiH5xYkzrxg9KTI/qP32np+MFSr+xlFnXnTuq5cLscsU93Elze9ZPTie8rAs+7LREDZ/J4Dredp5hZ5nCbrrWvH9pSqvOfKoIGJeMMqyJ3EIH45YLsopI0yPD8nDEi2vOdLW85DxXkFPKyTMlc8c523k0zPvdGOJeXzXdTnLYYH7ugXyNyMaw+Rf41z69t4L6LpndYccz7gfkPenRRx7Zec+7foVybxnXsuUsM+RcJeHAuv6XeGxmLgMlXNz0X4kgP0XVNgQZQj4PI9E0bxi4OxHAyqYkw+12oRwTm9CjSacie/+sQrHtpbj9PFeFeKmEMVS8JaL31XhWsYM5E5TUUSB3xDIFP/GCWDmL5Bzj4qLgnncJtHMJMEt96cllnAm6h7Fn6gbvuoLo4KSXfK0qArltc/QigmYrPm2lk4VQrj5M63CmYAVshJS3fnQLDpml+82lW5VBx7Y3Fd/Q502bPzDu3jknUb0ykJFrMtFE7eigPplaY8V97LezXX1HH5a14a00vlGN534rSGcqRDykHa/sQOnzgeRcd9/aV3KhchKD+KLjw3hMfqFHwF/Np+T634nihA96+cI0aPywY4B7d72YbqoNLrfMe539eU8rLR8IKkiKkOOqGCMZ9GAa6XLQ7qaV5I4kfuLCtFXgpUqfsGi+ZjeLSov61nqlY2o9MRxyQJlxrWMKzP8Wk3EtqzYKV7mm5I43Hn069qHz4J5WGKlLY4tKlHrvETaBUt1V6E8TKfjymOWIfMY3Rcfvl9s7P+4X1TO1nWJtDNd550g9K7fOP+vKMLZziu0OBpS6XOxIrvWiBPlS8acH9nvvSgXluJVa78dR4EHfq7nM71MeQ+tIq2lZhkk9l09B1aZIt2TqOwyXZ+85uG6f+GLHmfZljBSbKULkaWep1icjSyRF5aS2KE4Zx6NnRcg8sByLOmy3RwKZpnd9uL9kNZV9X6IfQ2xp/I5iSz9vOp6RJ707pK2YJFIe6/al/IZ3BZP8e5JEUfxrutylcPGuXklsfeeeLwoD73NbU7hTJy5jBa5ryj7R4R5Z6LeszbaHQUibYvRPuRQuBLTMd/NSGUK1U3mfaKGgNyfljAC+Wob/iPKkymO++GBC/sR+KAJw+ZWYtWskSpwaJJa4tk3BzMmD0d7o2Z1HjMTxWjCiXPXVUAqUoRllRUo7jmMwO5PEP+V9KL1jadFkUbsRJcQu2mjNB9lskSbgvfrg+i8kYa7B0a1RIH8A4PIn2oOaNuGyYVBfLpb99Elq5FpvVHiL7tQbo1eONnZ5fva/+JTq8Jai5eqqlDlXgJbMF/+ODGo0Gypswuc+oONomDNxwLznp5pEBUQMH3eJDw3y/nb28nV52qFWJiM0qUq4KnpyG+ute7h1eeWapZ75/1OFBJLrVW2JS7kXKIwf/Nboc9SLC9Vqh94oKXObqC8eVFUHpk+QxyMzsP30YjXLSEiGjUkHvTKS2Dvb1RuOVl6ZTUurFggYVAgKqlqy4IkGk9UmRXm2f6EVImZViNZ6aZjbBzvpn1eQdQ3B5E2wuw2EMfSLW0haQsBdFjFO86REJUmNfis/YN44ZjrvBNiPUZniWLpa63nwmIbls7xOfJKCLqglY3wbIw285FotP9Vs0Jf/fgsbqRnI1dt07XYZcpmnBUCOeMeo4FIZUpGz1mcUu/AqdOi4a/t6z0P78DVTjtdycIteCtMHq7avlb9IBpC6IlypNftHuBAE7QheTRWXhBcbrDEeH1TK3p9mYa1ld4PXxD/aVLvh9zXh8xRxuaC4nyn28KZRtmI00VXwVI1aE8utqWXqD/YoF2TOw8Tka7LuCd9LlsTfu99GJup3GxCMIwk1EgvGGdcvy7KY92zNw83olcrU4zfN6rr9PBuJlimGARxpdtVznml8xPsCRzGrfsqwrifDh1SSDwXYWY5WZircfwrFURhZcPQdFgT06nIxAKtcB8YHOL6NiErtsLphtXIJeQikpUnLT252T5kzPmNNTvD8wc0dwPswia/H373UvkiDqlf9B2j0IxWIRD1Bw/hs8wSaSEI6bK7bZBY8GHCQqNSl2LgtNZYIWu+NuNFSPd1nzHEUr7fTvv5A2sgqgRPHNr2WOizFMumgPpBXzDFwahMNaDHfp6ObmCJbfUh3qyyrX7SP5As2WrfEOts3L7AyUOOhreuKzSPRkRauuxrkovW5Z841OOhVt2I42SIirvzc7UdN+T2o+WzsK5j4bn6dYcQy7YYdvaExZeH2ztcDc+PX8RjYfKwf+Mu9YNopFNbL4JQ80af84L0v7Z7JIRyE/va70PBCJ+0Wttpa+4ECnIBMSychpWT/GUtyApr7Rvu3esnEnzvzWcSjTer6FqF0BUNZqovzLIh5j1zWH1FI19kI6vx0u/vpg35NDsbMn1gTMmQ9YFOEfEsRPKaMuS2NeAj3cI8plCIzuEolrNs0CJ+Y26HGVQ4aKGujkANmtLnoXL1bAxEZ0fvN4bP821F694MEXKR6GyzunrJ19HsnjUXo3u3fy3PhLNCoMXpekFda99vbkh6d3eikDXNcN0gS/8XOGt1h2/Dz4TQgHZPdxzte2UdDmsGEGvx5qOeDMtzCGrQi8TRhakW3VIXA6pUjf2Mrl/H8zYt3IoFEVVjciE/T8NdyD43h2iJib6vWty+nX2mGTTuKCxCaNxQq32h9HXRiIbmJrbtiPf0Pu8Qv/Xhgc2GOF4h3o+9rtlqvOZhatzf6NCmpUnI8mwMJuwrieUF49iW2BNCzW3tJZ9aRz4RizeDgeHWZLmEiKVfZ8Zwk9B77+GZkNClcuZMg2hgi3uoCdHo98ywwEsruLSQt6Jeq1v69920IZHf29WHqY+yZmNV5TwMO18jdM0efNKpwocYKSCebeFcfUT3BBZ8Vatm4TCXBrTjJppqxbr7t4Oe6/hkdwCHe4pRUblMXHX/cNfDv0B+RjO6TqoAYsS9au7odcg3Bx1qfNfZi2FFi/o2vzRVSBG753eg9sMvkL/k3yjLOoK6aAPEpD+izxLYUgTOeRrlYdNNguVZWlyc3Y8GqmBz+Qw6UH7OHx5swwt7G0WNrvyfTSKmPQBQNzd1RT81HRlH/zeka9zqSlf3Oy6sLm6y/ulWOcMFJN/fN5/05FqeRYUtBIDlq0jdmr7wI8vjx1mhGt3fTt/TlaU+tByLp6Ij30zDOhX3VFdaA+FxfzzWRsPyZfuFJ5swbg0WRu+I0085TqwGtsiHP/dueS5d7Ww8WuMzJPHk4TBuKQlZnj2UObHoa16YUoLpcIpMXRiTC5Q1vqOPWBb10ZPwpGfLs+FWIAUmIf2I48ivCb/3HtwayLote57I1UIIZiVEvdwzWXaIhvfjxfm4ppcXyXg3v+kW5ZLmZhiWaG4pUSDh/INi3DoSwJ5jqexKG5tBL56HT7rfqJDzhCAx53oWy8wxMnrIcfGfAdScH4Z5lq/QIuQ8U4tZz9caM18U+OX6rEfXqXgPZMzAVNpHpnEVTVtN/2gaFPg/ol1rxi/Dt/tOwD2XivM3cR677lHspkE7yprzvPsjAlLMiQIo7OAh2wpE3a83zBH3xGtL1SBBM90waSeE4Z9qu2fY4oW66uUgQb3rzBwwKAf2aNaZq+fw4WUa2KWLn8hp9z9qLlp/tjVQ0ED5oJvd0ptFvMPyTDMVGHErCkWWUi4z1sdSxPPY2zwBK+RvaLaM90SesaEpvOQAK5WGXAZwPlz7XhuDhOzuV/JPNCzG1rMUi7d5aE1hay7GQB4rbRqg804jclzHHgg3HsMP3+6WXtIltlVcbIJ4YacxEMm+tjAuKQlgNH61gX4aNJ84Tfe2XssrXj+ac2r3EdwoXKP2E/nwvHfLM+0LhysYLXaZ4jkPL/0vTEjXe3USJ1yZ4/V5JJQXyB8XTvcGWqz340yDGvCmx3sV+W2Gn7H5fvwkE/+Jw/Is3SLGqTxKgwrlQGwT+92U7hjm7yzRmch7b2CI4NABvmTpl+mRmJfHdZU5Xu4Z1RvdouFd2uNwHUnKuynSfl20Cu3jh3le0tfd6bYSm5GYvWgsrnww9GfaIFJuqrrBSDKnqks6NFXdvC576rpBR+iUZgaRwpnoJHuqt4GmP6aqWy5nkxg8vueM+ZydUyfeXsJNwUhhK2BPVeeFsFM5pipkDHBPxyYNBMZUbH0arDdkMMqW7zfrjXEbEtE0BWC4uMEO+cjT7CupeO4DRWrNtsEMOUpfX+NtoCDDMEOIHaj9M1l6I7leDTSGq4UTGhcAp+9yDGiavRVZR7B7KAhnQTgffZptyDFm4I4lGN4tT0E+w4kM8rxdSB/5TH0mEiYcLJ6Z2wJZZ6jbkyoaa9opJmlY7hevm1MBDnZMtxB91hRmSENzwZPrVSL+zUnDFPO628YaZLg+wBIdmmavA3sjfPglFZGzBrncNkhYhXwY5E6FXLPIBWNF6OesaSBx6vV20biMHlTz840Ju20kgUHttsEwDMMwDMMkDbY8MwzDMAzDMIxHWDwzDMMwDMMwjEdYPDMMwzAMwzCMR1g8MwzDMAzDMIxHWDwzDMMwDMMwjEdYPN9RzMeWQBVeqlSbgvmb30JVYIuIGQAqXxq4Y2EtXqp6SfxNAvJb/f33yXSGYRiGYVKHlBDPuXPtz3KvLJ+D4Spc4puDB7XPdstlLsuccKzdvgHTumqwKaAChjS7UH0iGxVJEOtF04qB8ydwUW0zDMMwDHPnMvjF85hyzEQDqt/7i1iq0YRiPOgWx8EmfCTj1XIktWXOyFmrUPmQ9wYA/X7VrJFqKwKVL6Ei/xJqNu5SAUOfQ9seQ03XNKzfHEM+R7UsF6FgTDsaj11X2x6YuCyu58cwDMMwTOow+MXzV7WaGL6O9i9vAukjndbnIUTRQ5WouO8WDv/TvOZFyHlmD3LuWYf852sxSy6vwqdiievHGnHrvooogm0+tiwYj0t7NyGWdF67vQpVVbprh+HqQWFy2W46QhjhbzmEaWiYdAsx910xXoWakGuFlrZlJQ51LzGg37+FLQvFKrmAiHPR03eei8GumpPAjJWR3TdI6P6gGLeO7A9rWR45qwS5X7U44u56eA8mPbwIvkfN51GL/GkqkrhwAk3p81C5ejZiNGkYhmEYhkkx2Od50DASs1dXYl56E2oCbiGXhvwnluHbN8pxbGs5mloKUfzoOhVHXMT+QE1kwbZwASb6LuFMDHcNEs4VI07iFb/fcu0wXT38IszvfwUnR1QokXoI9Rd6kTZxgRK8AnmcXlw4esjYFgJ3w4wO1Mh9xbL3khEuIYFcgewTr9hpYxo2SHF+CFe6gOycUDHsIL8CG0YdsNJOCyeSP67HheB4TAkR4srCP3cYmj4IYP8FFeigCDPuA5pOhsrqYTN/jbzO38vncWxfM3KW6w2a6/hkdwCHe4pRwb7SDMMwDDOkSC3x7JuDGZOHo73xKG6qIImvWPN7LkeuCk4dirCssgLFPYcR2P2JkF6hXNu3Cte+NtaDTc3AiHtxl7GpiCLYCjKRFuxGi9oMxwJTOFe+KKSryVpMcbh6HMKL9UKkKsF8aNsBXPJNxAKyBAvmz5mItNYDePFjuRXd2l25EtOEoD+wzTyaSPvNk+jNnyIFcMs3vUawboVeOBbZ6MAVmb4gKM7XPLfAGVwSsWPVudiEF+KWhT+wB590qkA3EwuQe+sKPg8X31KFc/84aKyfPI1rGI277zE2TS7+M4Ca88Mwr3IVZmepQIZhGIZhUpoUEs9FmFleDJytxvGvVBARPOrwd/7o7DDMTDUBTSJNrXomY4RLPOvkokTzgZ6fk63WIuCbhmn5QO+Fek04C6RYHY8K3bXC4XqxC2da0zBxDgnT+VgwUejImjh8qqMI+kPXOpA2qkBaszO7LgGm+I3RCAgHCXGZlgX5MavViIzE7JJc0VAL35gJJQ13j1arIQxH8TS2PzMMwzDMUCBFxLMQzmvKkNvWgI/ORZcyN9uuOK3SqcCF/QhEc7sIx40ufKdWDXS3jwD2aAPcSIhGhSy4fyTf4A1h/Iwv2W4X5qJZp3edVZZoctnABdSbVmEv+DKhS1ppIVeraOlG74ixWDtHKHLRYOoeJY5B8V1XnALfAwWj0tD7jS65yc0lhlU463sYO6wdLWHdOcLRi2+vqlWFbd0OIGD5sDMMwzAMk8qkgHi2hXPsWTRGomheMYa3NaNdhaQOXv1k1yF/eSFuXTyoiWcSzlHcPkiIuoWqm49fxGN7L2H8CjUgT4YZ/sIV1iDBMASqpa/y+scnoqNed/kw3CXGT1b7LtyCt3SrtXSzGI/F1iA/w82j90S1w81j7KgOnAmItIQ0Xzk52yWCvTAfY0cAHddCJff1Y3sQOHILxT+oxDKh0XXimZ7O96gfOTfO44ZyqyFIOIf3X2cYhmEYJpUZ9OJ5+KT7DZeGvDLHXM4zVbf78EmrtfCVGPtldUpPVWf5ybpmzshZbs7s4Efa8d/b/raCkbMWieuuiWzdVCLYFqoRCGzCKyeAac+aM1ccwouVxiBBy21DLM5ZLdTAQR+JXBWk2LWxBpfy1b7PZuLAH0/C9GQml49N/hp0zNig0jUGJj5m+kB/fAUd5E6CM1JM7zrbgfH5aWFFcFRiDZYkq/8HTRg2V2+wkFvHTVxpjtLLUeC3ZtooHnECp//033ZjZuIyzENk/3WGYRiGYVKX/zN69Oj/p9Y9MXLkSNy6dUttMcQjjzyC999/X20lG5qq7te4+3A5Wk+qoL5AU7utAGr8saerixeaLk7OejEI55CmGUQWf/OKLco9QLNwVKQ3RmyM0FR1U7P249jbO1UIwzAMwzB3Cik0YJBJiMAm1LTGcMHoCwu3YP2MOAcKDhAk6mkGkR1xCGdCunOwjzLDMAzDMGFg8XwHsWuj4YIROiiwD5APs3THmIaOvY+p6ekGE2uxkuaYdky9xzAMwzAMkxjstpEE+tdtg2EYhmEYhhkssOWZYRiGYRiGYTzC4plhGIZhGIZhPMLimWEYhmEYhmE8wuKZYRiGYRiGYTzC4plhGIZhGIZhPMLiOWVYh3z6ot0zv8VdKoTpOwsWLcf7vyrD42L9cf+P8f66SVhgRN1m8rD9Vz/G3xb5gNGT8Dexvn2KivLEepT//RKeP6CW17ep8MQpfd1O95kX1qvQZLENPzPPWSw/e0oFeyLRe8bES9Len6fq8Pzf38ZotWnmg/ief18x3pWBOZZg6dt4xnGtcTClTNzv5XhO7KzfewMj/w9MnvfhuXVD8f1yX5dxT9+Xi3Hf+4fo95PerVS615Q3ZTkcjqh5OPVICfGcO9f+LPfK8jkYrsJ1HL+Z6/y0NZMYvkdrMenhRWorTkIqxxRBirB+ern7M21Fa9V4bF0slic3q5DEOfWkkebeZhWQVDbjr3S+i3+HT3tUEDO0ITHpz8anf34UV1XQkKbuUTR0zsX6JDZohzJSYLkaZeHC+oc2bPzDu3jkDw1oUSH9weP+5Zje3YCNZ1SAQjZIhXBfOQ4oWCrW/Xkq5nYTXezXH2zEtdLlQ7BxFcrgF89jyjETDah+7y9iqUYTivGgQxyPRFH5/9V+I5Yjqf11OPo8dOVD7gbATrRuLcexP/03vlMhTN+p7xQKLdgtC8aWriDQHUS9EXWb6aFTwbVO8edqENcQRPc3KoqJAN+zgSbx92c9yn8+Fzj6KmrrVNAdwKknReMwa0381u5vutEr8vkV0crQ7z2TwkwpE+K4DdVVbSrAgITzysxGvCyFu4gnEe/6zeBFNDreaUTO0jDGoRh5mHTPqlkj1dbgJ+U+kjJ80mo8eO8VfFR7FDcpQIjrleOab6tgTuZHUooeqsS8Me04HNgP84ruengPps5MMzZaqnDs7Z3GuoTcOaai640u5D0xA8Mo6MYJnDZF9rRXMav4NE53LrPSuHX89zj3j4NyXaadtd9O857fYtITI9C29Wl8px9XJ+QcwkBWpc1zkaE2bb7A3sVLcYos0n4Y6ypGWqmtMOq+nY6z2zpQZqbTcwQ7fqhZqeTvJ6iNID7ddn8SKmLqritDgdqyCeKzd/bhBXVwsoD8stTsnqICrgFv0ipZlX9SImrJffjpQSEqBLIwpELyD5cxxUPaiUFd0b9B1ofj8dfXVJDECJ9w/nf403M7IoQZ2w+kG7Eh91tB7htlHXo6AnoWSzq039PzK0en9kxGv/BvrJ9j3jOVD9SWTaTz7ytkKZkvMlUjMn9i3nvteUmcz7xXe3bG88zEh/qzC4qKbec5JRYp/eWYbvVUutJW+cF6iy432BUhdWMWXcbLXSVWXnIcOyoerovSX2pbrFrq3lUWLrreceg+lY7p4ri9pxrwn8IycQ16PnRdl37eySAkv5hQvlkDVKnnb5Yjel6M+N679pW4w4ztfBlnQL005u+deVSLi3C+8vfZtdj6ZLPIt08Df65F1mYz/Qh5POK19xUj/8J8vmae0/OpIy/oz9m1r8Qd5nw/CDsvuctCLY6OOatbe1cM5O9HNIr81BM1D8vfFbY69neHOY/tzr/xvfeEfl0G9JsSdIcpn53H1tM23p3MY+/iTJFhPQ4t4+3fOI9nhH+/mcqBdGxf50O16/5Ffjf1fc0yJDQs+nlHvmdGPSYDHYQrs+i3S7q8lmUmRVhWOQ+5Xx1G4J+D3wCa8j7PueNycbNnJGaaLhtimTlGRaYUIzF7tRDO6U2o0YQz8d0/VuHY1nKcPt6rQtwUolgK3nLxuypcy5iB3GkqiijwGwKZ4t84Acz8BXLuUXFRMI/bJJqHJLjl/rTEEs5E3aP4E3XDV31hiDDZJU+Lqkxe+wytmIDJmgWmdKqoEJs/0yqbCVixORsNZnc+5mK16WtrdvluU+lWdeCBzXUoNWITQHXXidZzryw4qOuOFq3gE5XCL0t7rLiXhQhZaXYlXj2Hn9a1Ia10vuEnJ35rCGcqgDyk3W/swKnzQWTc91+aC00hstKD+OJjQwSPfuFHovI3n5PrfieKEAzr53QIMWGkv+NoNlYMmDuPD9OFmOh+x7jf1ZfzsNLqBqUKoww5ogIwnkVDmG5H8XtZgRrxLb4SrFTxCxbNl92uxr5GvKNyFse9JipkM65lXJnTJ1BsSyFB8TLflMThzqNf1z58FszDEittcWwhzK3zEmkXOKxBeZhOx5XHLJOVePVlH75fbOxvdicb+4u0M13nnSD0rt84/6/o4lEJ5xtCwG41hWbU934zzjYD+VM1t4inpgsh+wXOSnFMDbM1yDj6OzuP6y5CrjxKZVe+/98oXyriPu/AjfRs5Bq/jIBPnAs1GM20J6As3PtDZV/6ZJRSuslGCWeZ50zRRWFL04V4M/NCj8g3Zl5ow5nLoooo0twCpowTwkmES1Hnfj8on8lfGbjKQiOfKR9hsjT6Mh3iNJRoeTgG4rpW4pA6LyqHgekrdJeOaGnHuK5YRKsDFORuQQKS4undmj5Pu8ej8/B9n3mPdYKobw6Kd3I5/uYfhxwVqhP53VT7FuZp55GOTNEo/k+TuriY5x35nr1ZZd8namQYx383rEB+86IoVxzn4YWL2B+oQVP6PFSuni0U0eAmtcSzbw5mTB6O9kZldRa3d3g6MHxyBtpMl42GduSWrUZR8sr5AYBaXBUo7hEtrt2f4LoK9U4vWt94Wrw6xE50CbGbNkrzUSZLtCl4vz6IzhtpuPu2OyFvRt3RoFbRbcPkwiA+3a376JJVybTcKPGXXSi3Ri+c7Ozyfe1/ZWVliPG1eKmqClXuJbAFol2dMI+LiqalzhZJ5OfV4svHAvOenmkwCvJ5k/DcLOdvbydXn6t1VtokLJprrXt49bmlmuXeeb8ThcRSa5VthQs5lyjM3/xW6LMUy0uV6gceaKmzGyhUsIsaxSjYqRJDI163KgDRqDkVdIoJgb2/ITZysrQCZty4sIJ3waISFAQbUW1VkKLxRGJVr1TIOmhadEXCLaKyGxvHu2mfl6o4R5jdBuJYuqU4JO0gPjus4h3nSOQJ/STug7V/EC8c60tlGIn1GJ0liqWvtZ4LN/fYwtm2Isd674FTu4/gRuF0qxEtRfrR/zXy3VM/wgM4gt16j4mFENZLtN8Sry3F3mYfJiwUAlg8txsqWFqOVcMvN9uHGx32IIDWKtMKHu39aUZnjw9Z31ObgrXbQ/N3VdVb2LJQ/cALWbZw1q2ZC4rzxY05ZDfQzzRKUTRFNQDfPCwa81oepvKt91SjUWZNKcF0x/uhIwSoKN+s3xKi7LMaYdKFSiFEm+mrXDDCh94uu9USOQ8LREP1l9bAvR9rFlPB1XPYqJ1XfVNriFiPmHbU64pNzDqAuNxgCUtHmUOMykRaBNeb+oNCcL/TKMqVPKTR9TvEbfR3M+Q8qCF0udF69l7OO+rz8IqnhlM4ruOT3QEc7ilGReUyoYwGLykknosws7wYOFuN41+pIEV7Qy3a1Tq+Oo6m4HBkhBtVOFiZWBDDopF8HOL6NnH147N2RecSchHJyrMqrYw5v7FmZ3j+gOZugF3Y5PfD714qX8Qh9Yu+48PYTDWIwyrUnV1/RP3BQ/gsUxTQYQaD3D7IMqfEgEAK2tNaY4Wsetb9vOTovk4MQyzl++20n3d1nUfj0LbHQp+lWDYF1A/6glmwUyUWrYKWOC1EZIExK0Wq6KQlW+0bYp29jb705qCjSHk0IqN9yBGVtHlNctHcPxKHejzUagTy55Crlmkxton+3gvq/oUvLDFNDfIv0BBWLIcnsqAnwZuN0aKxVzpViORO2wodtREQlh242glk3GNbpXdtDM3ffv9jePFj9QMPFJSSe1CoNZPEKlky7byguxkJrrbhP5aYNsTZh3GISjnWICw0FsFosD0uVFBLty2mIu/jghqXysJpWEr1/ch6rOVR0XAI42TYD3irA1pIMJuIRoXVEyBYEOsFEA2D18W1kkvVZ6DySfUUxHw3qXGv9SCRWLbOw9t5JwXZcIrPEBBKLkoGsQ90iohnIZzXlCG3rQEfndPtstdxUzRgh2WkjpN5WC7sR2CAuyt6vzF8nm8rWkUXIuQi0dlmdfXesLpf7cWwUvWv5ZnQu62MxWytG1DX2vebRcGX5O7uRDl1+gvlumEIC1ucbMPPNtMALvue7jjqvQL1gjUDiLV481FPhuU5BN3q46qg5aJbbWNgdGfSYrh8OJ63bm0SxKw0kwT5NRruQva5hbNyRUbfVy0hvpd9hYSoWo0A5ZW9zRPCuvZEfu8Jw+Ire7Rkg1x3A4uNLmjNRp8BCV6yFov3JqsDdachyi2KD6Lzc/UTz4Ra3pNheaYySTbkXO4DBPmlOp6lWOxGvWFhlL0t0lJ5Oa6eMkcvjBJoBkFc6fYhc5QQ5JndqL4okp9C8ckZ0CvdF6C9u9IdbuCIVQdEQw6YiwE1eq6J+u6FvXRduhCN/m7aLhNGQ8jdmErkvD0jRb4xODA+dPfVAPYci78ffqBIAfFsC+dwgwLbL7dj+OSZtuV2zEwU+9rR5rJOD34Gprvirod/gfyMZnSdVAHEiHvV3NHrkG8OOtT4rrMXw4oW9W1+aekrGKl7fgdqP/wC+Uv+jbKsI6hzWZkcLH0bq+f4LIEtReCcpw1/xBCSYHmWLWfTGqOjKppwo4lNlJ/zhweNgg+m/7NJxLQHAOlvmY1cISwy9C5qhVWhq/sdF5ZPqOFbaluWlaDx980nPbmW5zxsX5qH3uY2o7IhdwZfCZ5MSgPHmPXDpF52I9v+0XTslaU+tByLR4Sa1rU+zDWrNRAe98dhYVKWSNsvPNmEWl7DIWemgHNqt+jvvYF0CSosxzNLsp1uYK6yqPR13Wqt3Czm/MjOo+Tmke6yXN8j7gn5aou0Mqb+CFnpHbjqoQHoxBhroIvuZFieiTer9hmWSu3ZSTHlLoNcyO77cSX426x0252HkN3vdre+FKzWq6K69XU/fXKH8Lks1ySu6X0TaeUUlYj2ZF9EVQSsnh3xnqyIw8TBVD0AACFqSURBVPIc9bpi4aEOiEVMtwa7kUFuN2mmEPXybsoyTaQtGkI5uktNMs5bNoiEsKeGVjSiuKVEhoRzIu6rA8ugF8/DJ91vVMh5QpCEGxT4VS0+OjvMHjBYBhx/T3PjSDEu/jOAmvPDMM+aqm4Rcp6pxazna42ZLwr8cn3Wo+tUvAcyZmAq7SPTuIqmraZ/NA0K/B+0woxfhm/3nYB7LhXnb+I8dt2j2H0UeGCz2c3qElBSzIlSK+zgIRqAo/Zz+z++tlQNFjLTDZN2Qhj+qXYXly1eqKteDrSwur7EYlp7yLdPiDPLr+zqOXxIg0V+ooufyGn3P+Rrno0V/mxroKCB8kE3XSs2i3iH5ZlmKTDiVhSKLKW6zq2PpUj/0AlYIX9Ds2W8J/KMzdXn7jcGCao05DKA83/b99oYJGQPcqFBnIbF2HqWYvE2T6mr25i6w7ttP0c5eFRO22TGG8ceCDcew5fRdkdZ0iW2VVxsgnhhpzEQyb62MC4pCWCIYE2ohkU0rn8o8lHhGpFf1Lvt6b033JMycBandGHrKotoxhh9zvKQPCoHJtp++u0d4v2YMxmd9N5Qr1nWBOT3dMRf15BFvMd1bkmDnp0xMJXymxRJ5DIgBwnaz9KKszC6+9PEW1uvF8TSfQDWvjQArvqyihOElIVyYKLtU0vTGBaU5qObBqyR8MvMQ0Hcoio8hq+2mUeXI7M5DstzjOuS5bhMlxqdVH4bx/BUB3hBieDQwZGicS/TIzFvHNcY4GfeUy/vZhuq6dzEs7AGCioSPm/Bm1Vm/gp3bAPpN28aKDwyctYijP2yJiVm2iBSbqq6wUgyp6pLOjRV3bwue+q6QQeJMueUZgaRwpnoJHuqt4GmP6aqCzclFHN7MZ6zc+rE5BF2OsVBweB9P/s2vRjTZ6ShBZow1iERPQ5nwsYNcuSMLzS9Zwqeexyk1mwbzJCj9PU13gYKMgwzhNiB2j8fAWK4YPSJp+qwIs6BggOFdBXpfG/wNWwtVzMWzgOGnJkkggsG+QwnyUI/sAjRL2d8GdrCmWDxzNwWyDJEXaMrso5gRxI/Ic0YWO4XKfMpYNMtxDV7AjN0obngyQXj50ly36Ep5MK4Wwwalr4tx3YMqvLOdE9wuVswA4P0Uc8sC3UTI5evpA3QHThoes6Bck273bDbRhIY1G4bDMMwDMMwTNJgyzPDMAzDMAzDeITFM8MwDMMwDMN4hMUzwzAMwzAMw3iExTPDMAzDMAzDeITFM8MwDMMwDMN4hMXzHcV8bAlU4aVKtSmYv/ktVAW2iJgBoPKlgTtWIng8z7Xbq1BV9Ra2LFQBbiidKvpNjN/FxVq8VPWS+JsEJi5D5erZGKk2GYZhGIaJTUqI59y59me5V5bPwXAVTt9CLyrX4qxlNYqS9yXZIcPa7RswrasGmwIqgOlHhMhdMR6X9vrh99PyGF78WEUt3IK3+iyAd6H6RDYqEm6EjMTskly0N36C6yqEYRiGYZjYDH7xPKYcM9GA6vf+IpZqNKEYD84tUpHXcbGWwrWloV2E38LNFP5Q0shZq1D5kHmNsaHfr5oVw35Y+RIq8i+hZuMuFcAkyq6NLlGss3AssnEJZ/qhoXJo22Oo6ZqG9ZtjyOes2VhVuQxhc1LW9zBWvE0nLqhtD3jKZwzDMAwzxBn84vmrWlQfuag2rqP9y5tA+kjN+uwkd1wubp49DpLQqUjRQ5WouO8WDv/TvOZFyHlmD3LuWYf852sxSy6vQjesXz/WiFv3VUQR3POxZQFZQTchlnQ2XBF01w7D1cNyP9hu2kuN8LccAi40TLqFmPuuGK9CTcgFQUvbsqaGupcY0O+V+wO5RIhz0dN3nkssIh3bpiBS2tJybO4bwYJckIk0tWqjjvnsNBE3HhVWGvG7dOyqOQnMWBn+2AS5ZPygGLeO7IeZk3SKphUDX36uWZ2Tkc8YhmEYZugztHyefXNQnNeOpnOp2BE9ErNXV2JeehNqAm7Bk4b8J5bh2zfKcWxrOZpaClH86DoVR1zE/kANmtLnhfdhXbgAE32xraAknCtGnMQrfr/l2mG6ehiuB6/g5IgKJSQPof5CL9ImLrBFpzxOLy4cPWRsC4G7YUYHauS+Ytl7yQiXkECuQPaJV+y0MQ0bpDg/hCtdQHZODDGcX4ENow5YaadFE5Mu1m7Xjy2WyhfFUTV801ARKe2PX8RjFP7Hk+hVQSaWmJcNBU0gy+vahU3Wfpfs+xLJeh2Nj+txITgeU0IaGKrnYu4wNH0QwP5wluWs2SgZ047GY+73JMF8xjAMwzB3AKklnoU4njF5ONobj+KmCtLJnVwMpKTVuQjLKitQ3HMYgd3hfVCv7VuFa18b68GmZmDEvbjL2FRcxye7AzjcU4wKd1c9WUGD3WhRm+FYYApnh4hciykOV49DeLFeCEklmA9tO4BLvolYoKym8+dMRFrrASUEhTiOZu2uXIlpQtAf2GYeTaT9phCV+VOkSG35xpSlmhVaukJ04IopNIPifM1zC5wRcjQbY+Ow4DqEv5s+pk0uFabghi6Qk+4uE76BYfVcBPbgk04V6GJk4VgM/6olrEU6oXzGMAzDMHcAKSSeizCznMRxNY5/pYJ0pNX5Jq60paDVeWIBctWqZzJGuESNTi5KNN/U+TnZai0CvmmYlg/0Xqh3Wl+lWNXdC0yLqskunGlNw8Q5JODmY8FE4GRNHCIxiqA/dK0DaaMKpDU7s0sIUVMkxmgEeGXXRmXpVtcV6iIy+KEGhrxHFkUoGKNWI1KEGfcBTSfDSecwxJHPGIZhGOZOIEXEsxDOa8qQ29aAjyK4ZJDVeXjbv3ExFQcKXtiPQLzd4Te68J1aNdDdPgLYo3XJkxCNCllZ/0g+tBvCiEjdvUAtmnV611lliSaXDVxAfTzuB75M6NLP4Sfc0o3eEWOxdo5Q5KLB1D1KHIPiu644BX6fOYQXK9X1iGvPXpF6ArpgVBp6v9GbEuRWEUDN+WGYV7kKs7NUsA411G5dwecRrNIhxJHPGIZhGOZOIAXEsy2c7YGDLpTVuemsR2vaoMRrd/g65C8vxK2LBzVRQ4ImitsHCVG3UHVDfrx7L2H8Cm3wmvKrrbAGCYYhUC0tuOsfn4iOet3lw3ArGD9Z7UuD7HSrtXSFGI/F1kA8w82j90S1w81j7KgOnAmItIQ0Xzk52yUWk8THVxCjeZFc5PHC+yt7Zz7GjgA6roU2Ja4f24PAkVso/kEllom2h00809P1IZ8xDMMwzB3AoBfPwyfdb7g05JU55nKeaXVPj0TRvBS2Oru4+E9lOXTNaJCz3JwBwY+047/HuX8cVDHiDsxahLFf1iBgzdDhQolgW6hGILAJr5wApj1rzi5B1lljkKDltiEW56wWauCgj0SuClLs2liDS/lq32czccAxwI4Gz9WgY8YGla4xMPEx0weaBCa5k+CMFNO7zgq5mZ8WVizGj2umjSpj8KDX+a+tQYGOWTPimbdZXLtsqJjH78MHVGINAqXejA+aMGyu1hCj6emGtaMlyvR0CeUzhmEYhrkD+D+jR4/+f2rdEyNHjsStW7fUFkM88sgjeP/999VWsqEpxH6Nuw+Xo/WkCuoLNLXbCqDGH3u6unghMSlnveA5pAcMmhll8Tev2I0ND9BgwpKemgiuFknKZwzDMAwzxEmhAYNMQgQ2oaY1hgtGX1i4BetnxDlQkEkIaqzQzCg74hDOBPVqsI8ywzAMwyQGi+c7CDnDxIiK5AyMMz8U8uw0dOztwzzFTB9Zi5U0d7Z7XmqGYRiGYQYEdttIAv3rtsEwDMMwDMMMFtjyzDAMwzAMwzAeYfHMMAzDMAzDMB5h8cwwDMMwDMMwHmHxzDAMwzAMwzAeYfHMMAzDMAzDMB5h8ZwyrEM+ffntmd/iLhXC9J0Fi5bj/V+V4XGx/rj/x3h/3SQsMKJuM3nY/qsf42+LfMDoSfibWN8+RUV5Yj3K/34Jzx9Qy+vbVHjilL5up/vMC+tVaLLYhp+Z5yyWnz2lgj2R6D1j4iVp789TdXj+729jtNo080F8z7+vGO/KwBwrETye59K38Qy9PxHf+f4rG6JB5UZf73Ei+czYV+xDiz9PhbpQ5UXE+AjItAdJnUH3RZZ9EqMsNK57OZ6zX6ykI++B675RmH0uLqaUWeekP9dUJSXEc+5c+7PcK8vnYLgKN3HEOz7dzSQD36O1mPTwIrUVJyGVY4ogC9V+ern7M21Fa9V4bF0slic3q5DEOfWkkebeZhWQVDbjr3S+i3+HT3tUEDO0IbHnz8anf34UV1UQ03+MfuFpPIAj2CHfM1fZkEg5LUV7HUrVpptTu48gw/9vlC9VAQNE/cF9eOQP7+LlU0EVMjCEE9YDJ7bbsFFc8yN/aECLCukXhBD+ZWkPqqvaVIBB/cFGXCtdfkcYLwa/eB5TjploQPV7fxFLNZpQjAfnFqlIYPik1Vq8WBrakVtWjlwVn4qMnLUKlQ/Z12iwE61by3HsT/+N71QI03fqO4VCC3bLAqalSxSu3UHUG1G3mR46FVzrFH+uBnENQXR/o6KYCPA9G2gSf3/Wo/znc4Gjr6K2TgUxiVH3KP4UpcGcm+3DjfP/GviGCp1XVQce+Hn84rzfy+mr5/BTEpsuEchEIw/bl+ahpa4Bb6oQGyHe32lEztIwxqFvutEryuorIgPqz9WEdM+qWSPV1uAn5T6SQmL5wXuv4KPao7gptsnqXNxTjY/Oqc8O++bgwfIMNL1Xi3YjpN9J5kdSih6qxLwx7Tgc2I+LKuyuh/dg6sw0Y6OlCsfe3mmsS8idYyq63uhC3hMzMIyCbpzAaVNkT3sVs4pP43TnMiuNW8d/j3P/OCjXZdpZ++007/ktJj0xAm1bn8Z3+nF1Qs4hDGSN2DwXGWrT5gvsXbwUp8jS4YexrmKk9cMKo+7b6Ti7rQNlZjo9R7Djh5qVSv5+gtoI4tNt9yehIqZurzIUqC2bID57Zx9eUAcnS8IvS83uqTZUi5a+LEjIqvyTEuDUPvz0oCjsBdSttnIc/eYypnhIOzGoa/Y3yPpwPP76mgqSGOETzv8Of3puR4QwY/uBdCM25H4rqBu2rENPR0DPYkmH9nt6fuXo1J7J6Bf+jfVzzHum8oHasol0/n3Fh+fWzReZqhGZPzHvvfa8JM5n3qs9O+N5ZuJD/dkFG/HyznOqEqf0l2O61VPpSlvlB+stutxgV9TUjVl0GS93lVh5yXHsqHi4LkpfVHImLXXvYuMZWqPrHYfuU+mYLo7be6oB/yksE9eg50PXdennnQxC8osJ5Zs1QJV6/mY5oufFiO+9a1+JO8zYzpdxBtRLY/7emUe1uAjnK3+fXSsEa7PIt08Df65F1mYz/Uh5PDwRj229E+8B/vBp0zu5otBYv3HU9W5Kwr3/gljltNoKT+i9NAhXFif7vTZxldeOd9NAltUjGkPyr1EuG+vh37vI77ZMs7DVOpaZFr1j1VnOOML9+8jvpvHbJ3EIH45Ybp2fHh96XuHOn+5LCbrD1CsR6y4BXceSrn14HfOt3ziPHfl+6pjpeCvLTIqwrHIecr86jMA/TfUzeEl5n+f2y+0YPnmlctUYiaJ5xRje1jxgwjl5jMTs1UI4pzehRhPOxHf/WIVjW8tx+nivCnFTiGIpeMvF76pwLWMGcqepKKLAbwhkin/jBDDzF8i5R8VFwTxuk2gekuCW+9MSSzgTphWk6gtDhJldhWaB/NpnaMUETNZ84Uqnigqx+TOtwJ6AFZuz0SD3+x0+xVysNn1tzS7fbSpdsmxsjtx16B3V7SVaz72yYKEuMFq0QsjsslJxLwsRstLskiNLRl0b0krnG/5m4reGcKYCykPa/cYOnDofRMZ9/6VZfwqRlR7EFx8blenoF34kKn/zObnud6II8bF+ToeokI30dxzNxooBc+fxYboQsN3vGPe7+nIeVlq+elQRlSFHVD7Gs2gI0+0ofi8rIiO+xVeClSp+waL5mN4thKX1LDXxShWYOO41UfmYcS3jypw+gWJbVkQUL/NNSRzuPPp17cNnwTws0X0fhTC3zkukXeCwBuVhOh1XHrMMmcfovvjw/WJj/8f9onK2rkuknek67wShdz2mFVQJuxtCRG41RWvU934zzjYD+VM1X96npgtx9wXOWiJ0DTKEuLTyuO4i5MqjVHblm+4Gn3fgRnp2jB5NnzgXajCaaU9Amdf3R1zXav3YYnGLzHx/5LQju1SRwCUfZ6NRnDHnN8rnWV1XrHI6KsrVatsR3JBi29w3nBHDKH8czyZhSCDq765YXMI5Gm9WGftUX1YBDpRAjfhu20jhnClEu/iNLjIjE+vdhHgnl0vxSfHkdlIwy3b5cL6bkc4/AtHqLgUd2yyT3Mem+7Kg0IeWi9Eb0m+K+LTCvDjdVC5if6AGTenzULl6tlBEg5vUEs++OZgxeTjaGw2rs+SrWlS/1wCUkb/zSoz9shrVRwZ/q8UJtbgqUNwjWly7P4GyocdBL1rfeFq094md6BJiN22U5qNMlmhT8H59EJ030nD3wKiWKGxG3VG9MN2GyYVBfLpb73IkC4ZZiCvxl22YV0YvnOzs8n3tf2WFYojxtXipqgpV7iWwRbSnE+fxImeXFfl5tfjyscC8p2caRKEDTJ83Cc/NitS9NfBcfa4WremTUWr6HpKwaK617uHV55ZqlZ7zficKiaXWKrtCDjmXKMzf/FbosxTLS5XqBx5oqbMbKFSwI1NUArQxOg/fRyNetywkolFDFYZ4xjr2/m04IyqrnCxdAI8LK3gXLCpBQbAR1VaFKhpPJFb1SoUsZaYFRyTcgnSMjePdtM8riPrmINJGmN0G4li6ZSgk7SA+O6ziHedI5GEKNfis/YN44VhfKsNIrMfoLFEsfe22jmrcYwtnXURGf+8N/9obhdOtRrQU6Uf/18h3T/1I+vzuDrHKEkJYL9F+S7y2VIhRHyYsFCJVPLcbKlhaoVXDT7pCdNiKtbXKFI59eX+cxgQ3fUvbOZaArNKRBW7/cvXrDiArT2swJ1ZOm++X/e4mkSklmO7T34HwLDCFs1u0iwb2L62Bez/WLL1ErHdTcLnBstrWN7Wi15dpWNdHT8ISx7sZHzHrLkIrkxzHlqSLotODWxy5aDj288p1fLI7gMM9xaioXCaU0eAlhcRzEWaWFwNnq3H8KxVEjCkXovl+3Kgln+cG3Jq8MuygwkHNxIIB99F2iOvbxNWPz9oVnUvIRUQVvlRp2VYU27JisAub/H743UvlizikftF3fBibCRQstQtGGjXsLiTqDx7CZ5miAO5u8GiNGAjIMqfEgEAK2tNaY4Wsetb9vOToQk4MQyzl++20nw/b3RueQ9seC32WYtkUUD/oC2bBPioTaVErOkIIZu0ZksXKqtgO7jMs2WrfEOvsbfSlJ4tYtDwakdE+5AgBbV6TXLQu5sShHg+1GoH8OeRKYFqMbaK/94K6f+ELS0xTg/wLNIQVy+GJLOib0dmTjdGisVc6VQjZTtsKHbUR4BXpF0yWbnVdqTjIOhYh1vvEyumCEeJd66f3awFlUJdPbgii3Jg+Duhtbgs9BxKgyrprWnB1+vxuJoS3ustxPdInXDP+yLLBA3LsSXyGgFByUTKIfaBTRDwL4bymDLltDbZvs2QkikpycfPsR7go8+ZFHBcCut1XjOJUmnHjwn4EBri7ovcbw+f5tqJVdCFCLhKdbVZXr21FsRfDStW/lmeC/MDMgtFYnK4X1LX2/eaGpHd3J8qp018o1w1DWNjiZBt+tpkGcNn3dMfR5Fp0rBlArMWb9SsZlucQ9IrRVdHJJQ7Ljtn9a7p8OJ63aeFWyEp5ACC/RMNdyD63qEIgBH1ftcTRJR4dEqJqNQKUV/Y2Twjr2hP5vSc09wDZINfdwGKTcY/uZmE0+gx24GqnD1nfE+9NVgfqTkOUWxQfROfn6ieJ8tpS63r2ds7F+qEmoL+XjYyeDs2lMrFyWg4g7CfkgLZYULnxTqOovOKbXSLxdzMxYtVdUZGi2ANSZBuDA+NDd18NYM+x+PvhB4oUEM+2cI7kjjE8XZObYwpFe+Umblh+HanCwHRX3PXwL5Cf0YyukyqAGHGvmjt6HfLNQYca33X2YljRor7NLy2tDZG653eg9sMvkL/k3yjLOoI6l5XJgfQJ9FkCW4rAOU9HmP4oCZZnWUjkYUpIoWh0j7t91BwoP+cPD7bhhb1UuCr/Z5OIaQ8A5GtO1h8hLDL0LmqFZUVT9zsuLKuS4VtqW5aVoPH3zSc9uZbnPDlS3LKuUJeprwRPJqWBY8z6YVIvuzxt/2g69spSH1qOxSNCyfeSLER9mLNVayA87o/DunW1Df8J6n7hyYaEqFuohnLqScPvfr02H3H0995AugQVluOZJdlONzBXWVT6um61Vq4Qc35k51Fy80h3Wa7vEfeEfLVFWhlTf4Ss9A5cjcf9gVw+yLIcY47l9o7+E4ZhiVpOC6Kdt3Rpie5yQoy+J9th/Ei0nJbv17iy/pkWzWu5oMa4FCyN8/3s87vprDsMIW6sx8ZD3RUTKuN8yBylNiNBPXqxLPchkHBOxH11YBn04nn4pPuNCjlPCJKQuZyv42JtA9r1uLJhaKrdrSzRqcfFfwZQc34Y5llT1S1CzjO1mPV8rTHzRYFfrs96dJ2K90DGDEylfWQaV9G01fSPpkGB/4NWmPHL8O2+E3DPpeL8TZzHrnsUu48CD2xW3ZHu+UClmBMFVNjBQzQAR+3n9n8kK40cLGSmGybthDD8U+0uLrtwpK56OdDC6voSiznoQo2itvzKROH64WUa2KUXrpHT7n/I1zwbK/zZ1kBBA+WDbnYbbxbxDsuzOfDIGNVvdp1bH0uR/qETsEL+xpgZoNWIkVx97n5jkKBKQy4DaFmz77UxwMgeBS6ehbIYW89SLN4qZFPYmosxkMdKmypWOW2TGW8ceyDceAxfRtsdZUmX2FZxsQnihZ3GIEH72sK4pCSAIYI1oRoW0bj+ochHhWtEflHvtqf33nBPysBZnNKFrassohlj9AF2IXlUDky0/fRJ0ObPmYxOem+o1yxrAvIdltS+QzNt2NdDLlMd2Oua2SMyMd5NL8Qqp6OyGX/VXU7MwYgO1qP0Ptv4kRRC3i+xWIPf7HdTumEJkS3jrQYhDTY04kl80iA5WrfzeLhyIYLoNMe4/MTbO5LYu+msO2hgn8MlhOofda4F4h7QOXmuuzyhBLhjEGEo5Fsd1p0lCiNnLcLYL2tSYqYNIuWmqhuMJHOquqRDU9XN67Knrht0UMHvnNLMIFI4E53+mhJqoEj2+Ruj5mk2icHje86Yzzlk6rQkEXY6Reb2QZbrsFMTMqmHMcsJXFPYWVjTew6OgfL9RWrNtsEMOUpfX+NtoCDDMEOIHaj98xEghgtGnxBCbUWcAwWZfsScXpC/JDlEMK3f4SzxQljL6TmHtnAmWDwztwWyDMluxqwj2JHET0gzBlYXagzfysGD2fXsmj2BGbrIGSb69uW5sJh+uS53C+b2UrqaXO64B3FIIV1V0kPGRdD0gQPlmna7YbeNJDCo3TYYhmEYhmGYpMGWZ4ZhGIZhGIbxCFuek8Ddd9+t1hiGYRiGYZihDFueGYZhGIZhGMYjbHlOAqbl+dtvv5X/MwzDMAzDMEMTtjwzDMMwDMMwjEdYPN8WjO+3L5uoNt3c81tMev5VOL9VtA759HW/Z37bt89kMwzDMAzDMAmTEuJ57fYqVFWpJbAF81W4Saz4QcfEGShGE05cUNsMwzAMwzBMSjD4xXPlS6hADfx+v1hewUlMw4bta1UkMH/zW6gYcRKvyHg/arqc8beHIiyrXIXZWWrTRdG4XLQ3foLratsbO9G6tRzH4v7MNlm5I58LwzAMwzAM453BL54Dm+DfuEttHEL9hV5gxFhlXV6LlTPScKn+RRFjsKvmJHrzp4iY20TWbKyqnIdh5w/ik04VpiPiS8a0o8VtdZ72KmaRWwYtT8zAMBVM3PXwHjvu0XUq1EDGuVw5nGHX8UnjLRT/IIqbCMMwDMMwDOOJIeDz3IvuFrVKfHwFHcjG2IVqeyCZuAyVPyjGrSMB7DkW3q5cNK0YOH8CF9W2hHycl49G6xvlOEbW5TdOQJ/P5Lt/rJLhp4+LhoOL786cx62M+5BxjwoQ3JWVhlsXD9oW6gv7EfigCcPmVmLVrJEqkGEYhmEYhomX1BLPC7dgvcPSvAtnWtMwrcK2M6/dXoHxan0gyZy2ApVzh6HpgwD2R/RlLkLBmJu40uwU1r5FM4Dj/4NrX6uAePj6v9HWkoasKYtUwDqMKGhG2z8Oqm1F5yfYEziMW/dVoPKhIhXIMAzDMAzDxEMKiee1eOnZacCJV7ApoIIEuzbW4FJ+hTVgcMpZsY0OXPlY/WBAyBSiWHe0CM/IWSXI/aoxvDtHAgSbmjGsaJHhpjFtKnJaTiMoYyIwpoR9oBmGYRiGYfpAiohnIZyrKjC+tQaPbTO9m012YZMaLEjLppaxyA52Q/fk6H+68dkH/x8CR6L5Fo/E9+4djvbLDoeN5HDyNK4p1w1fcSGuNe1UERqWL3YNAoE9SRfwDMMwDMMwdwIpIJ5t4WwPHIzAwi1469mJuPCmPYBwQInmWxxlerrvOnttyzHN5+waMBibnehqScPdo9dhxIgTaD+pgk1IOMfwxWYYhmEYhmFiM+g/z01T0W2Ykaa2bC7t9Uv3DWf8JdT4NyGGxE46oZ/npqnqSnDjA9vCW/RQJUp6aiKI10XIeebXyM+g9V60vrEfdz8xFV1bn0bQEafRUoVjb2sWZhp0KEQ3jv8e5xz+zjRV3SLgIFubGYZhGIZhEmXQi+dUIFQ8u5CW3ww0BvY7Z9lgGIZhGIZhUgoWz0kgpnhmGIZhGIZhhgSpNVUdwzAMwzAMw9xG2PKcBEzLM8MwDMMwDDO0YcszwzAMwzAMw3iELc8MwzAMwzAM4xG2PDMMwzAMwzCMR1g8MwzDMAzDMIxHWDwzDMMwDMMwjEdYPDMMwzAMwzCMR1g8MwzDMAzDMIxHWDwzDMMwDMMwjEdYPDMMwzAMwzCMR1g8MwzDMAzDMIxHWDwzDMMwDMMwjEdYPDMMwzAMwzCMR1g8MwzDMAzDMIxHWDwzDMMwDMMwjEdYPDMMwzAMwzCMR1g8MwzDMAzDMIxHWDwzDMMwDMMwjEdYPDMMwzAMwzCMR1g8MwzDMAzDMIxHWDwzDMMwDMMwjEdYPDMMwzAMwzCMR1g8MwzDMAzDMIxHWDwzDMMwDMMwjEdYPDMMwzAMwzCMR1g8MwzDMAzDMIxHWDwzDMMwDMMwjEdYPDMMwzAMwzCMR1g8MwzDMAzDMIxHWDwzDMMwDMMwjEdYPDMMwzAMwzCMR1g8MwzDMAzDMIxHWDwzDMMwDMMwjEdYPDMMwzAMwzCMJ4D/HxFornZmZyViAAAAAElFTkSuQmCC;" parent="1" vertex="1">
                    <mxGeometry x="402" y="720" width="719" height="653" as="geometry"/>
                </mxCell>
                <mxCell id="10" value="" style="rounded=1;whiteSpace=wrap;html=1;fillColor=none;fontColor=#ffffff;strokeColor=#FFFF00;strokeWidth=2;imageAspect=0;recursiveResize=1;expand=1;" parent="1" vertex="1">
                    <mxGeometry x="555" y="1132" width="198" height="16" as="geometry"/>
                </mxCell>
                <mxCell id="22" style="edgeStyle=orthogonalEdgeStyle;html=1;strokeWidth=2;strokeColor=#FFFF00;" parent="1" source="10" target="11" edge="1">
                    <mxGeometry relative="1" as="geometry">
                        <Array as="points">
                            <mxPoint x="901" y="1140"/>
                            <mxPoint x="901" y="502"/>
                        </Array>
                    </mxGeometry>
                </mxCell>
                <mxCell id="11" value="" style="rounded=1;whiteSpace=wrap;html=1;fillColor=none;fontColor=#ffffff;strokeColor=#FFFF00;strokeWidth=3;imageAspect=0;recursiveResize=1;expand=1;" parent="1" vertex="1">
                    <mxGeometry x="130" y="485" width="163" height="72" as="geometry"/>
                </mxCell>
                <mxCell id="25" value="" style="rounded=1;whiteSpace=wrap;html=1;fillColor=none;fontColor=#ffffff;strokeColor=#FFFF00;strokeWidth=2;imageAspect=0;recursiveResize=1;expand=1;" parent="1" vertex="1">
                    <mxGeometry x="555" y="1153" width="216" height="15" as="geometry"/>
                </mxCell>
                <mxCell id="26" style="edgeStyle=orthogonalEdgeStyle;html=1;strokeWidth=2;strokeColor=#FFFF00;" parent="1" source="25" target="11" edge="1">
                    <mxGeometry relative="1" as="geometry">
                        <Array as="points">
                            <mxPoint x="489" y="1161"/>
                            <mxPoint x="489" y="538"/>
                        </Array>
                    </mxGeometry>
                </mxCell>
                <mxCell id="27" value="" style="rounded=1;whiteSpace=wrap;html=1;fillColor=none;fontColor=#ffffff;strokeColor=#FF0000;strokeWidth=3;imageAspect=0;recursiveResize=1;expand=1;" parent="1" vertex="1">
                    <mxGeometry x="132" y="566" width="249" height="72" as="geometry"/>
                </mxCell>
                <mxCell id="29" style="edgeStyle=orthogonalEdgeStyle;html=1;strokeColor=#FF0000;strokeWidth=2;" parent="1" source="28" target="27" edge="1">
                    <mxGeometry relative="1" as="geometry"/>
                </mxCell>
                <mxCell id="28" value="" style="rounded=1;whiteSpace=wrap;html=1;fillColor=none;fontColor=#ffffff;strokeColor=#FF0000;strokeWidth=3;imageAspect=0;recursiveResize=1;expand=1;" parent="1" vertex="1">
                    <mxGeometry x="810" y="1180" width="259" height="72" as="geometry"/>
                </mxCell>
                <mxCell id="32" style="edgeStyle=orthogonalEdgeStyle;curved=1;html=1;strokeColor=#007FFF;strokeWidth=1;" parent="1" source="30" target="31" edge="1">
                    <mxGeometry relative="1" as="geometry"/>
                </mxCell>
                <mxCell id="30" value="" style="rounded=1;whiteSpace=wrap;html=1;fillColor=none;fontColor=#ffffff;strokeColor=#007FFF;strokeWidth=3;imageAspect=0;recursiveResize=1;expand=1;" parent="1" vertex="1">
                    <mxGeometry x="996" y="1184" width="67" height="27" as="geometry"/>
                </mxCell>
                <mxCell id="34" style="edgeStyle=orthogonalEdgeStyle;html=1;entryX=1;entryY=0.5;entryDx=0;entryDy=0;strokeColor=#007FFF;strokeWidth=2;" parent="1" source="31" target="33" edge="1">
                    <mxGeometry relative="1" as="geometry"/>
                </mxCell>
                <mxCell id="31" value="Manera de capturar el evento del elemento - equivalente a (event) =&amp;gt; {}" style="rounded=1;whiteSpace=wrap;html=1;fillColor=none;fontColor=#ffffff;strokeColor=#007FFF;strokeWidth=2;imageAspect=0;recursiveResize=1;expand=1;" parent="1" vertex="1">
                    <mxGeometry x="956" y="1009" width="275" height="62" as="geometry"/>
                </mxCell>
                <mxCell id="33" value="" style="rounded=1;whiteSpace=wrap;html=1;fillColor=none;fontColor=#ffffff;strokeColor=#007FFF;strokeWidth=3;imageAspect=0;recursiveResize=1;expand=1;" parent="1" vertex="1">
                    <mxGeometry x="248" y="573" width="108" height="19" as="geometry"/>
                </mxCell>
                <mxCell id="37" style="edgeStyle=orthogonalEdgeStyle;curved=1;html=1;entryX=0.5;entryY=0;entryDx=0;entryDy=0;strokeColor=#33FF33;strokeWidth=1;" parent="1" source="35" target="36" edge="1">
                    <mxGeometry relative="1" as="geometry"/>
                </mxCell>
                <mxCell id="35" value="" style="rounded=1;whiteSpace=wrap;html=1;fillColor=none;fontColor=#ffffff;strokeColor=#33FF33;strokeWidth=3;imageAspect=0;recursiveResize=1;expand=1;" parent="1" vertex="1">
                    <mxGeometry x="810" y="1293" width="282" height="38" as="geometry"/>
                </mxCell>
                <mxCell id="36" value="Truco con el evento KEYDOWN donde se puede acceder a una tecla especifica" style="rounded=1;whiteSpace=wrap;html=1;fillColor=none;fontColor=#ffffff;strokeColor=#33FF33;strokeWidth=3;imageAspect=0;recursiveResize=1;expand=1;" parent="1" vertex="1">
                    <mxGeometry x="692" y="1406" width="282" height="38" as="geometry"/>
                </mxCell>
            </root>
        </mxGraphModel>
    </diagram>
</mxfile>